{
classes = (
{
automatic = 1;
code = "A Aacute Abreve Acircumflex Adieresis Agrave Amacron Aogonek Aring Atilde AE B C Cacute Ccaron Ccedilla Cdotaccent D Eth Dcaron Dcroat E Eacute Ecaron Ecircumflex Edieresis Edotaccent Egrave Emacron Eogonek F G Gbreve Gcommaaccent Gdotaccent H Hbar I IJ Iacute Icircumflex Idieresis Idotaccent Igrave Imacron Iogonek J K Kcommaaccent L Lacute Lcaron Lcommaaccent Ldot Lslash M N Nacute Ncaron Ncommaaccent Eng Ntilde O Oacute Ocircumflex Odieresis Ograve Ohungarumlaut Omacron Oslash Otilde OE P Thorn Q R Racute Rcaron Rcommaaccent S Sacute Scaron Scedilla Scommaaccent T Tbar Tcaron Tcedilla Tcommaaccent U Uacute Ucircumflex Udieresis Ugrave Uhungarumlaut Umacron Uogonek Uring V W Wacute Wcircumflex Wdieresis Wgrave X Y Yacute Ycircumflex Ydieresis Ygrave Z Zacute Zcaron Zdotaccent A.ss01 E.ss01 M.ss01 N.ss01 Q.ss01 R.ss01 U.ss01 W.ss01";
name = Uppercase;
}
);
copyright = "Copyright \U00A9 2013 by Andrew Paglinawan. All rights reserved.";
customParameters = (
{
name = description;
value = "Copyright \U00A9 2013 by Andrew Paglinawan. All rights reserved.";
},
{
name = vendorID;
value = AP;
},
{
name = licenseURL;
value = "http://scripts.sil.org/OFL_web";
}
);
date = "2013-10-27 09:57:24 +0000";
designer = "Andrew Paglinawan";
designerURL = www.andrewpaglinawan.com;
familyName = "Quicksand Pro";
featurePrefixes = (
{
automatic = 1;
code = "languagesystem DFLT dflt;\012languagesystem grek dflt;\012languagesystem latn dflt;\012languagesystem latn CAT;\012languagesystem latn ROM;\012languagesystem latn MOL;\012languagesystem latn TRK;\012";
name = Languagesystems;
}
);
features = (
{
automatic = 1;
code = "feature locl;\012feature sups;\012feature frac;\012feature ordn;\012feature case;\012feature salt;\012";
name = aalt;
},
{
automatic = 1;

glyphs = (
{
glyphname = A;
lastChange = "2013-12-18 08:32:10 +0400";
layers = (
{
anchors = (
{
name = ogonek;
position = "{475, 10}";
},
{
name = top;
position = "{372, 700}";
}
);
layerId = "4FD7A5AB-3C0B-49D1-A419-889C157412FC";
name = Bold;
paths = (
{
closed = 1;
nodes = (
"420 664 LINE SMOOTH",
"415 689 OFFCURVE",
"397 704 OFFCURVE",
"373 704 CURVE",
"347 706 OFFCURVE",
"320 691 OFFCURVE",
"304 664 CURVE SMOOTH",
"-48 79 LINE SMOOTH",
"-68 46 OFFCURVE",
"-60 13 OFFCURVE",
"-30 1 CURVE SMOOTH",
"0 -11 OFFCURVE",
"36 4 OFFCURVE",
"56 37 CURVE SMOOTH",
"123 149 LINE SMOOTH",
"126 154 OFFCURVE",
"131 157 OFFCURVE",
"136 157 CURVE SMOOTH",
"376 157 LINE SMOOTH",
"381 157 OFFCURVE",
"384 155 OFFCURVE",
"385 149 CURVE SMOOTH",
"406 37 LINE SMOOTH",
"412 4 OFFCURVE",
"440 -12 OFFCURVE",
"474 0 CURVE SMOOTH",
"510 13 OFFCURVE",
"532 46 OFFCURVE",
"526 79 CURVE SMOOTH"
);
},
{
closed = 1;
nodes = (
"212 277 LINE SMOOTH",
"205 277 OFFCURVE",
"203 282 OFFCURVE",
"208 289 CURVE SMOOTH",
"315 467 LINE SMOOTH",
"320 476 OFFCURVE",
"326 476 OFFCURVE",
"329 467 CURVE SMOOTH",
"360 289 LINE SMOOTH",
"361 282 OFFCURVE",
"357 277 OFFCURVE",
"350 277 CURVE SMOOTH"
);
}
);
width = 601.982;
}
);
leftKerningGroup = A;
rightKerningGroup = dollar;
unicode = 0041;
},
{
glyphname = AE;
lastChange = "2013-12-18 08:32:10 +0400";
layers = (
{
anchors = (
{
name = bottom;
position = "{583, 0}";
},
{
name = ogonek;
position = "{818, 10}";
},
{
name = top;
position = "{669, 700}";
}
);
layerId = "4FD7A5AB-3C0B-49D1-A419-889C157412FC";
name = Bold;
paths = (
{
closed = 1;
nodes = (
"524 120 LINE SMOOTH",
"518 120 OFFCURVE",
"514 124 OFFCURVE",
"515 130 CURVE SMOOTH",
"528 240 LINE SMOOTH",
"529 247 OFFCURVE",
"534 250 OFFCURVE",
"540 250 CURVE SMOOTH",
"751 250 LINE SMOOTH",
"786 250 OFFCURVE",
"815 275 OFFCURVE",
"819 309 CURVE SMOOTH",
"823 344 OFFCURVE",
"800 370 OFFCURVE",
"765 370 CURVE SMOOTH",
"554 370 LINE SMOOTH",
"548 370 OFFCURVE",
"545 374 OFFCURVE",
"546 380 CURVE SMOOTH",
"569 570 LINE SMOOTH",
"570 577 OFFCURVE",
"573 580 OFFCURVE",
"580 580 CURVE SMOOTH",
"836 580 LINE SMOOTH",
"871 580 OFFCURVE",
"900 605 OFFCURVE",
"904 639 CURVE SMOOTH",
"909 674 OFFCURVE",
"886 700 OFFCURVE",
"851 700 CURVE SMOOTH",
"529 700 LINE",
"508 703 OFFCURVE",
"486 694 OFFCURVE",
"470 674 CURVE SMOOTH",
"-9 97 LINE SMOOTH",
"-33 68 OFFCURVE",
"-32 32 OFFCURVE",
"-6 13 CURVE SMOOTH",
"20 -8 OFFCURVE",
"57 -2 OFFCURVE",
"80 27 CURVE SMOOTH",
"168 133 LINE SMOOTH",
"170 135 OFFCURVE",
"172 136 OFFCURVE",
"175 136 CURVE SMOOTH",
"391 136 LINE SMOOTH",
"394 136 OFFCURVE",
"395 134 OFFCURVE",
"395 131 CURVE SMOOTH",
"386 61 LINE SMOOTH",
"382 26 OFFCURVE",
"405 0 OFFCURVE",
"440 0 CURVE SMOOTH",
"765 0 LINE SMOOTH",
"800 0 OFFCURVE",
"829 25 OFFCURVE",
"833 59 CURVE SMOOTH",
"838 94 OFFCURVE",
"815 120 OFFCURVE",
"780 120 CURVE SMOOTH"
);
},
{
closed = 1;
nodes = (
"277 256 LINE SMOOTH",
"273 256 OFFCURVE",
"273 259 OFFCURVE",
"275 262 CURVE SMOOTH",
"428 445 LINE SMOOTH",
"431 449 OFFCURVE",
"434 448 OFFCURVE",
"434 444 CURVE SMOOTH",
"411 261 LINE SMOOTH",
"411 258 OFFCURVE",
"408 256 OFFCURVE",
"405 256 CURVE SMOOTH"
);
}
);
width = 919;
}
);
leftMetricsKey = A;
rightMetricsKey = E;
unicode = 00C6;
},
{
glyphname = B;
lastChange = "2013-12-18 08:32:10 +0400";
layers = (
{
layerId = "4FD7A5AB-3C0B-49D1-A419-889C157412FC";
name = Bold;
paths = (
{
closed = 1;
nodes = (
"239 700 LINE SMOOTH",
"204 700 OFFCURVE",
"172 674 OFFCURVE",
"165 639 CURVE SMOOTH",
"42 61 LINE SMOOTH",
"35 26 OFFCURVE",
"55 0 OFFCURVE",
"90 0 CURVE SMOOTH",
"279 0 LINE SMOOTH",
"378 0 OFFCURVE",
"517 36 OFFCURVE",
"554 213 CURVE SMOOTH",
"575 311 OFFCURVE",
"544 364 OFFCURVE",
"496 393 CURVE SMOOTH",
"490 396 OFFCURVE",
"490 400 OFFCURVE",
"495 406 CURVE SMOOTH",
"515 434 OFFCURVE",
"532 468 OFFCURVE",
"541 511 CURVE SMOOTH",
"574 668 OFFCURVE",
"468 700 OFFCURVE",
"401 700 CURVE SMOOTH"
);
},
{
closed = 1;
nodes = (
"250 426 LINE SMOOTH",
"244 426 OFFCURVE",
"241 430 OFFCURVE",
"242 436 CURVE SMOOTH",
"270 570 LINE SMOOTH",
"272 577 OFFCURVE",
"276 580 OFFCURVE",
"282 580 CURVE SMOOTH",
"350 580 LINE SMOOTH",
"387 580 OFFCURVE",
"433 567 OFFCURVE",
"420 508 CURVE SMOOTH",
"406 442 OFFCURVE",
"359 426 OFFCURVE",
"321 426 CURVE SMOOTH"
);
},
{
closed = 1;
nodes = (
"185 120 LINE SMOOTH",
"179 120 OFFCURVE",
"175 123 OFFCURVE",
"177 130 CURVE SMOOTH",
"212 296 LINE SMOOTH",
"213 302 OFFCURVE",
"218 306 OFFCURVE",
"224 306 CURVE SMOOTH",
"337 306 LINE SMOOTH",
"382 306 OFFCURVE",
"453 302 OFFCURVE",
"434 213 CURVE SMOOTH",
"421 148 OFFCURVE",
"372 120 OFFCURVE",
"305 120 CURVE SMOOTH"
);
}
);
width = 607.683;
}
);
leftKerningGroup = B;
rightKerningGroup = B;
unicode = 0042;
},
{
glyphname = C;
lastChange = "2013-12-18 08:32:10 +0400";
layers = (
{
anchors = (
{
name = bottom;
position = "{306, 0}";
},
{
name = top;
position = "{381, 700}";
}
);
layerId = "4FD7A5AB-3C0B-49D1-A419-889C157412FC";
name = Bold;
paths = (
{
closed = 1;
nodes = (
"592 686 OFFCURVE",
"536 700 OFFCURVE",
"477 700 CURVE SMOOTH",
"278 700 OFFCURVE",
"101 543 OFFCURVE",
"80 350 CURVE SMOOTH",
"55 128 OFFCURVE",
"221 1 OFFCURVE",
"402 1 CURVE SMOOTH",
"459 1 OFFCURVE",
"517 14 OFFCURVE",
"573 40 CURVE SMOOTH",
"607 56 OFFCURVE",
"621 96 OFFCURVE",
"598 130 CURVE SMOOTH",
"582 154 OFFCURVE",
"553 157 OFFCURVE",
"524 144 CURVE SMOOTH",
"488 128 OFFCURVE",
"451 121 OFFCURVE",
"415 121 CURVE SMOOTH",
"294 121 OFFCURVE",
"184 203 OFFCURVE",
"200 350 CURVE SMOOTH",
"213 476 OFFCURVE",
"331 580 OFFCURVE",
"464 580 CURVE SMOOTH",
"502 580 OFFCURVE",
"538 572 OFFCURVE",
"568 557 CURVE SMOOTH",
"595 543 OFFCURVE",
"624 545 OFFCURVE",
"644 569 CURVE SMOOTH",
"673 600 OFFCURVE",
"671 643 OFFCURVE",
"638 661 CURVE SMOOTH"
);
}
);
width = 698.697;
}
);
leftKerningGroup = C;
rightKerningGroup = C;
unicode = 0043;
},
{
glyphname = D;
lastChange = "2013-12-18 08:32:10 +0400";
layers = (
{
anchors = (
{
name = center;
position = "{365, 350}";
},
{
name = top;
position = "{439, 700}";
}
);
layerId = "4FD7A5AB-3C0B-49D1-A419-889C157412FC";
name = Bold;
paths = (
{
closed = 1;
nodes = (
"239 700 LINE SMOOTH",
"204 700 OFFCURVE",
"172 674 OFFCURVE",
"165 639 CURVE SMOOTH",
"42 61 LINE SMOOTH",
"35 26 OFFCURVE",
"55 0 OFFCURVE",
"90 0 CURVE SMOOTH",
"289 0 LINE SMOOTH",
"482 0 OFFCURVE",
"622 156 OFFCURVE",
"664 350 CURVE SMOOTH",
"705 543 OFFCURVE",
"631 700 OFFCURVE",
"438 700 CURVE SMOOTH"
);
},
{
closed = 1;
nodes = (
"185 120 LINE SMOOTH",
"179 120 OFFCURVE",
"176 124 OFFCURVE",
"177 130 CURVE SMOOTH",
"270 570 LINE SMOOTH",
"272 577 OFFCURVE",
"276 580 OFFCURVE",
"282 580 CURVE SMOOTH",
"412 580 LINE SMOOTH",
"538 580 OFFCURVE",
"570 476 OFFCURVE",
"544 350 CURVE SMOOTH",
"517 223 OFFCURVE",
"441 120 OFFCURVE",
"315 120 CURVE SMOOTH"
);
}
);
width = 726.94;
}
);
leftKerningGroup = B;
rightKerningGroup = D;
unicode = 0044;
},
{
glyphname = Eth;
lastChange = "2013-12-18 08:32:10 +0400";
layers = (
{
anchors = (
{
name = center;
position = "{351, 350}";
},
{
name = top;
position = "{425, 700}";
}
);
layerId = "4FD7A5AB-3C0B-49D1-A419-889C157412FC";
name = Bold;
paths = (
{
closed = 1;
nodes = (
"225 700 LINE SMOOTH",
"190 700 OFFCURVE",
"159 674 OFFCURVE",
"151 639 CURVE SMOOTH",
"104 415 LINE SMOOTH",
"103 412 OFFCURVE",
"101 410 OFFCURVE",
"98 410 CURVE SMOOTH",
"85 410 LINE SMOOTH",
"50 410 OFFCURVE",
"18 385 OFFCURVE",
"11 351 CURVE SMOOTH",
"4 316 OFFCURVE",
"24 291 OFFCURVE",
"59 291 CURVE SMOOTH",
"72 291 LINE SMOOTH",
"75 291 OFFCURVE",
"77 289 OFFCURVE",
"76 286 CURVE SMOOTH",
"29 61 LINE SMOOTH",
"21 26 OFFCURVE",
"42 0 OFFCURVE",
"77 0 CURVE SMOOTH",
"276 0 LINE SMOOTH",
"469 0 OFFCURVE",
"609 156 OFFCURVE",
"650 350 CURVE SMOOTH",
"691 543 OFFCURVE",
"617 700 OFFCURVE",
"424 700 CURVE SMOOTH"
);
},
{
closed = 1;
nodes = (
"171 120 LINE SMOOTH",
"165 120 OFFCURVE",
"162 124 OFFCURVE",
"163 130 CURVE SMOOTH",
"196 286 LINE SMOOTH",
"197 289 OFFCURVE",
"199 291 OFFCURVE",
"202 291 CURVE SMOOTH",
"233 291 LINE SMOOTH",
"268 291 OFFCURVE",
"300 315 OFFCURVE",
"307 349 CURVE SMOOTH",
"314 384 OFFCURVE",
"294 410 OFFCURVE",
"259 410 CURVE SMOOTH",
"228 410 LINE SMOOTH",
"225 410 OFFCURVE",
"223 412 OFFCURVE",
"224 415 CURVE SMOOTH",
"257 570 LINE SMOOTH",
"258 577 OFFCURVE",
"263 580 OFFCURVE",
"269 580 CURVE SMOOTH",
"399 580 LINE SMOOTH",
"525 580 OFFCURVE",
"557 476 OFFCURVE",
"530 350 CURVE SMOOTH",
"503 223 OFFCURVE",
"427 120 OFFCURVE",
"301 120 CURVE SMOOTH"
);
}
);
width = 700;
}
);
unicode = 00D0;
},
{
glyphname = E;
lastChange = "2013-12-18 08:32:10 +0400";
layers = (
{
anchors = (
{
name = bottom;
position = "{233, 0}";
},
{
name = ogonek;
position = "{469, 10}";
},
{
name = top;
position = "{382, 700}";
}
);
layerId = "4FD7A5AB-3C0B-49D1-A419-889C157412FC";
name = Bold;
paths = (
{
closed = 1;
nodes = (
"538 580 LINE SMOOTH",
"573 580 OFFCURVE",
"605 605 OFFCURVE",
"612 639 CURVE SMOOTH",
"619 674 OFFCURVE",
"599 700 OFFCURVE",
"564 700 CURVE SMOOTH",
"239 700 LINE SMOOTH",
"204 700 OFFCURVE",
"172 674 OFFCURVE",
"165 639 CURVE SMOOTH",
"42 61 LINE SMOOTH",
"35 26 OFFCURVE",
"55 0 OFFCURVE",
"90 0 CURVE SMOOTH",
"415 0 LINE SMOOTH",
"450 0 OFFCURVE",
"482 25 OFFCURVE",
"489 59 CURVE SMOOTH",
"496 94 OFFCURVE",
"476 120 OFFCURVE",
"441 120 CURVE SMOOTH",
"185 120 LINE SMOOTH",
"179 120 OFFCURVE",
"176 124 OFFCURVE",
"177 130 CURVE SMOOTH",
"200 240 LINE SMOOTH",
"202 247 OFFCURVE",
"206 250 OFFCURVE",
"212 250 CURVE SMOOTH",
"423 250 LINE SMOOTH",
"458 250 OFFCURVE",
"490 275 OFFCURVE",
"497 309 CURVE SMOOTH",
"504 344 OFFCURVE",
"484 370 OFFCURVE",
"449 370 CURVE SMOOTH",
"238 370 LINE SMOOTH",
"232 370 OFFCURVE",
"229 374 OFFCURVE",
"230 380 CURVE SMOOTH",
"270 570 LINE SMOOTH",
"272 577 OFFCURVE",
"275 580 OFFCURVE",
"282 580 CURVE SMOOTH"
);
}
);
width = 582.388;
}
);
leftKerningGroup = B;
rightKerningGroup = E;
unicode = 0045;
},
{
glyphname = F;
lastChange = "2013-12-18 08:32:10 +0400";
layers = (
{
layerId = "4FD7A5AB-3C0B-49D1-A419-889C157412FC";
name = Bold;
paths = (
{
closed = 1;
nodes = (
"538 580 LINE SMOOTH",
"573 580 OFFCURVE",
"605 605 OFFCURVE",
"612 639 CURVE SMOOTH",
"619 674 OFFCURVE",
"599 700 OFFCURVE",
"564 700 CURVE SMOOTH",
"239 700 LINE SMOOTH",
"204 700 OFFCURVE",
"172 674 OFFCURVE",
"165 639 CURVE SMOOTH",
"42 61 LINE SMOOTH",
"35 26 OFFCURVE",
"54 0 OFFCURVE",
"89 0 CURVE SMOOTH",
"124 0 OFFCURVE",
"155 26 OFFCURVE",
"162 61 CURVE SMOOTH",
"200 240 LINE SMOOTH",
"202 247 OFFCURVE",
"206 250 OFFCURVE",
"212 250 CURVE SMOOTH",
"423 250 LINE SMOOTH",
"458 250 OFFCURVE",
"490 275 OFFCURVE",
"497 309 CURVE SMOOTH",
"504 344 OFFCURVE",
"484 370 OFFCURVE",
"449 370 CURVE SMOOTH",
"238 370 LINE SMOOTH",
"232 370 OFFCURVE",
"229 374 OFFCURVE",
"230 380 CURVE SMOOTH",
"270 570 LINE SMOOTH",
"272 577 OFFCURVE",
"275 580 OFFCURVE",
"282 580 CURVE SMOOTH"
);
}
);
width = 560.388;
}
);
leftKerningGroup = B;
rightKerningGroup = F;
unicode = 0046;
},
{
glyphname = G;
lastChange = "2013-12-18 08:32:10 +0400";
layers = (
{
anchors = (
{
name = bottom;
position = "{338, 0}";
},
{
name = top;
position = "{413, 700}";
}
);
layerId = "4FD7A5AB-3C0B-49D1-A419-889C157412FC";
name = Bold;
paths = (
{
closed = 1;
nodes = (
"620 371 LINE",
"513 371 LINE SMOOTH",
"478 371 OFFCURVE",
"449 346 OFFCURVE",
"445 311 CURVE SMOOTH",
"442 276 OFFCURVE",
"465 251 OFFCURVE",
"500 251 CURVE SMOOTH",
"539 251 LINE SMOOTH",
"546 251 OFFCURVE",
"549 248 OFFCURVE",
"547 241 CURVE SMOOTH",
"539 159 LINE SMOOTH",
"539 153 OFFCURVE",
"536 150 OFFCURVE",
"530 147 CURVE SMOOTH",
"496 130 OFFCURVE",
"456 120 OFFCURVE",
"414 120 CURVE SMOOTH",
"281 120 OFFCURVE",
"185 224 OFFCURVE",
"199 350 CURVE SMOOTH",
"212 476 OFFCURVE",
"330 580 OFFCURVE",
"463 580 CURVE SMOOTH",
"502 580 OFFCURVE",
"538 572 OFFCURVE",
"568 557 CURVE SMOOTH",
"595 543 OFFCURVE",
"623 546 OFFCURVE",
"646 571 CURVE SMOOTH",
"673 602 OFFCURVE",
"669 641 OFFCURVE",
"638 660 CURVE SMOOTH",
"594 687 OFFCURVE",
"536 700 OFFCURVE",
"476 700 CURVE SMOOTH",
"277 700 OFFCURVE",
"100 543 OFFCURVE",
"79 350 CURVE SMOOTH",
"58 157 OFFCURVE",
"202 0 OFFCURVE",
"401 0 CURVE SMOOTH",
"479 0 OFFCURVE",
"554 25 OFFCURVE",
"618 66 CURVE",
"635 76 OFFCURVE",
"652 93 OFFCURVE",
"655 120 CURVE SMOOTH",
"675 310 LINE SMOOTH",
"680 345 OFFCURVE",
"657 371 OFFCURVE",
"622 371 CURVE SMOOTH"
);
}
);
width = 747.141;
}
);
leftKerningGroup = C;
rightKerningGroup = G;
unicode = 0047;
},
{
glyphname = H;
lastChange = "2013-12-18 08:32:10 +0400";
layers = (
{
anchors = (
{
name = center;
position = "{384, 350}";
},
{
name = top;
position = "{458, 700}";
}
);
layerId = "4FD7A5AB-3C0B-49D1-A419-889C157412FC";
name = Bold;
paths = (
{
closed = 1;
nodes = (
"549 380 LINE SMOOTH",
"548 374 OFFCURVE",
"543 370 OFFCURVE",
"537 370 CURVE SMOOTH",
"238 370 LINE SMOOTH",
"232 370 OFFCURVE",
"228 373 OFFCURVE",
"230 380 CURVE SMOOTH",
"285 639 LINE SMOOTH",
"292 674 OFFCURVE",
"273 700 OFFCURVE",
"238 700 CURVE SMOOTH",
"203 700 OFFCURVE",
"172 674 OFFCURVE",
"165 639 CURVE SMOOTH",
"42 61 LINE SMOOTH",
"35 26 OFFCURVE",
"54 0 OFFCURVE",
"89 0 CURVE SMOOTH",
"124 0 OFFCURVE",
"155 26 OFFCURVE",
"162 61 CURVE SMOOTH",
"200 240 LINE SMOOTH",
"202 247 OFFCURVE",
"206 250 OFFCURVE",
"212 250 CURVE SMOOTH",
"511 250 LINE SMOOTH",
"518 250 OFFCURVE",
"521 247 OFFCURVE",
"519 240 CURVE SMOOTH",
"481 61 LINE SMOOTH",
"474 26 OFFCURVE",
"493 0 OFFCURVE",
"528 0 CURVE SMOOTH",
"563 0 OFFCURVE",
"594 26 OFFCURVE",
"601 61 CURVE SMOOTH",
"724 639 LINE SMOOTH",
"731 674 OFFCURVE",
"712 700 OFFCURVE",
"677 700 CURVE SMOOTH",
"642 700 OFFCURVE",
"611 674 OFFCURVE",
"604 639 CURVE SMOOTH"
);
}
);
width = 747.439;
}
);
leftKerningGroup = B;
rightKerningGroup = H;
unicode = 0048;
},
{
glyphname = Hbar;
lastChange = "2013-12-18 08:32:10 +0400";
layers = (
{
anchors = (
{
name = center;
position = "{408, 350}";
},
{
name = top;
position = "{482, 700}";
}
);
layerId = "4FD7A5AB-3C0B-49D1-A419-889C157412FC";
name = Bold;
paths = (
{
closed = 1;
nodes = (
"737 560 LINE SMOOTH",
"734 560 OFFCURVE",
"732 562 OFFCURVE",
"733 565 CURVE SMOOTH",
"748 639 LINE SMOOTH",
"756 674 OFFCURVE",
"736 700 OFFCURVE",
"701 700 CURVE SMOOTH",
"666 700 OFFCURVE",
"636 674 OFFCURVE",
"628 639 CURVE SMOOTH",
"613 565 LINE SMOOTH",
"612 562 OFFCURVE",
"610 560 OFFCURVE",
"607 560 CURVE SMOOTH",
"298 560 LINE SMOOTH",
"295 560 OFFCURVE",
"293 562 OFFCURVE",
"294 565 CURVE SMOOTH",
"309 639 LINE SMOOTH",
"317 674 OFFCURVE",
"297 700 OFFCURVE",
"262 700 CURVE SMOOTH",
"227 700 OFFCURVE",
"197 674 OFFCURVE",
"189 639 CURVE SMOOTH",
"174 565 LINE SMOOTH",
"173 562 OFFCURVE",
"171 560 OFFCURVE",
"168 560 CURVE SMOOTH",
"141 560 LINE SMOOTH",
"111 560 OFFCURVE",
"85 539 OFFCURVE",
"79 511 CURVE SMOOTH",
"73 481 OFFCURVE",
"89 460 OFFCURVE",
"119 460 CURVE SMOOTH",
"146 460 LINE SMOOTH",
"149 460 OFFCURVE",
"151 458 OFFCURVE",
"150 455 CURVE SMOOTH",
"67 61 LINE SMOOTH",
"59 26 OFFCURVE",
"79 0 OFFCURVE",
"114 0 CURVE SMOOTH",
"149 0 OFFCURVE",
"179 26 OFFCURVE",
"187 61 CURVE SMOOTH",
"225 240 LINE SMOOTH",
"226 247 OFFCURVE",
"231 250 OFFCURVE",
"237 250 CURVE SMOOTH",
"536 250 LINE SMOOTH",
"543 250 OFFCURVE",
"545 247 OFFCURVE",
"544 240 CURVE SMOOTH",
"506 61 LINE SMOOTH",
"498 26 OFFCURVE",
"518 0 OFFCURVE",
"553 0 CURVE SMOOTH",
"588 0 OFFCURVE",
"618 26 OFFCURVE",
"626 61 CURVE SMOOTH",
"709 455 LINE SMOOTH",
"710 458 OFFCURVE",
"712 460 OFFCURVE",
"715 460 CURVE SMOOTH",
"742 460 LINE SMOOTH",
"772 460 OFFCURVE",
"798 481 OFFCURVE",
"804 509 CURVE SMOOTH",
"810 539 OFFCURVE",
"794 560 OFFCURVE",
"764 560 CURVE SMOOTH"
);
},
{
closed = 1;
nodes = (
"573 380 LINE SMOOTH",
"572 374 OFFCURVE",
"567 370 OFFCURVE",
"561 370 CURVE SMOOTH",
"262 370 LINE SMOOTH",
"256 370 OFFCURVE",
"253 373 OFFCURVE",
"254 380 CURVE SMOOTH",
"270 455 LINE SMOOTH",
"271 458 OFFCURVE",
"273 460 OFFCURVE",
"276 460 CURVE SMOOTH",
"585 460 LINE SMOOTH",
"588 460 OFFCURVE",
"590 458 OFFCURVE",
"589 455 CURVE SMOOTH"
);
}
);
width = 815;
}
);
unicode = 0126;
},
{
glyphname = I;
lastChange = "2013-12-18 08:32:10 +0400";
layers = (
{
anchors = (
{
name = ogonek;
position = "{214, 10}";
},
{
name = top;
position = "{237, 700}";
}
);
layerId = "4FD7A5AB-3C0B-49D1-A419-889C157412FC";
name = Bold;
paths = (
{
closed = 1;
nodes = (
"285 639 LINE SMOOTH",
"292 674 OFFCURVE",
"273 700 OFFCURVE",
"239 700 CURVE SMOOTH",
"204 700 OFFCURVE",
"172 674 OFFCURVE",
"165 639 CURVE SMOOTH",
"42 61 LINE SMOOTH",
"35 26 OFFCURVE",
"54 0 OFFCURVE",
"88 0 CURVE SMOOTH",
"123 0 OFFCURVE",
"155 26 OFFCURVE",
"162 61 CURVE SMOOTH"
);
}
);
width = 308.442;
}
);
leftKerningGroup = B;
rightKerningGroup = H;
unicode = 0049;
},
{
glyphname = J;
lastChange = "2013-12-18 08:32:10 +0400";
layers = (
{
anchors = (
{
name = top;
position = "{338, 700}";
}
);
layerId = "4FD7A5AB-3C0B-49D1-A419-889C157412FC";
name = Bold;
paths = (
{
closed = 1;
nodes = (
"-1 32 OFFCURVE",
"61 0 OFFCURVE",
"137 0 CURVE SMOOTH",
"265 0 OFFCURVE",
"389 107 OFFCURVE",
"415 229 CURVE SMOOTH",
"502 639 LINE SMOOTH",
"509 674 OFFCURVE",
"490 700 OFFCURVE",
"456 700 CURVE SMOOTH",
"421 700 OFFCURVE",
"389 674 OFFCURVE",
"382 639 CURVE SMOOTH",
"295 229 LINE SMOOTH",
"283 171 OFFCURVE",
"223 120 OFFCURVE",
"163 120 CURVE SMOOTH",
"130 120 OFFCURVE",
"107 129 OFFCURVE",
"86 153 CURVE SMOOTH",
"67 176 OFFCURVE",
"43 191 OFFCURVE",
"7 172 CURVE SMOOTH",
"-24 156 OFFCURVE",
"-47 123 OFFCURVE",
"-30 89 CURVE SMOOTH"
);
}
);
width = 518.442;
}
);
leftKerningGroup = J;
rightKerningGroup = J;
unicode = 004A;
},
{
glyphname = K;
lastChange = "2013-12-18 08:32:10 +0400";
layers = (
{
anchors = (
{
name = bottom;
position = "{288, 0}";
},
{
name = top;
position = "{437, 700}";
}
);
layerId = "4FD7A5AB-3C0B-49D1-A419-889C157412FC";
name = Bold;
paths = (
{
closed = 1;
nodes = (
"435 367 LINE SMOOTH",
"432 372 OFFCURVE",
"434 377 OFFCURVE",
"439 382 CURVE SMOOTH",
"702 597 LINE SMOOTH",
"732 622 OFFCURVE",
"741 658 OFFCURVE",
"722 682 CURVE SMOOTH",
"702 707 OFFCURVE",
"666 707 OFFCURVE",
"636 682 CURVE SMOOTH",
"236 354 LINE SMOOTH",
"229 348 OFFCURVE",
"223 350 OFFCURVE",
"225 359 CURVE SMOOTH",
"285 639 LINE SMOOTH",
"292 674 OFFCURVE",
"273 700 OFFCURVE",
"239 700 CURVE SMOOTH",
"204 700 OFFCURVE",
"172 674 OFFCURVE",
"165 639 CURVE SMOOTH",
"42 61 LINE SMOOTH",
"35 26 OFFCURVE",
"54 0 OFFCURVE",
"88 0 CURVE SMOOTH",
"123 0 OFFCURVE",
"155 26 OFFCURVE",
"162 61 CURVE SMOOTH",
"184 166 LINE SMOOTH",
"186 172 OFFCURVE",
"187 175 OFFCURVE",
"192 179 CURVE SMOOTH",
"318 282 LINE SMOOTH",
"324 287 OFFCURVE",
"329 287 OFFCURVE",
"333 282 CURVE SMOOTH",
"491 23 LINE SMOOTH",
"507 -4 OFFCURVE",
"542 -8 OFFCURVE",
"573 13 CURVE SMOOTH",
"605 36 OFFCURVE",
"615 72 OFFCURVE",
"599 99 CURVE SMOOTH"
);
}
);
width = 663.962;
}
);
leftKerningGroup = B;
rightKerningGroup = K;
unicode = 004B;
},
{
glyphname = L;
lastChange = "2013-12-18 08:32:10 +0400";
layers = (
{
anchors = (
{
name = bottom;
position = "{213, 0}";
},
{
name = top;
position = "{362, 700}";
}
);
layerId = "4FD7A5AB-3C0B-49D1-A419-889C157412FC";
name = Bold;
paths = (
{
closed = 1;
nodes = (
"185 120 LINE SMOOTH",
"179 120 OFFCURVE",
"176 124 OFFCURVE",
"177 130 CURVE SMOOTH",
"285 639 LINE SMOOTH",
"292 674 OFFCURVE",
"273 700 OFFCURVE",
"239 700 CURVE SMOOTH",
"204 700 OFFCURVE",
"172 674 OFFCURVE",
"165 639 CURVE SMOOTH",
"42 61 LINE SMOOTH",
"35 26 OFFCURVE",
"55 0 OFFCURVE",
"90 0 CURVE SMOOTH",
"415 0 LINE SMOOTH",
"450 0 OFFCURVE",
"482 25 OFFCURVE",
"489 59 CURVE SMOOTH",
"496 94 OFFCURVE",
"476 120 OFFCURVE",
"441 120 CURVE SMOOTH"
);
}
);
width = 556.388;
}
);
leftKerningGroup = B;
rightKerningGroup = L;
unicode = 004C;
},
{
glyphname = Lslash;
lastChange = "2013-12-18 08:32:10 +0400";
layers = (
{
anchors = (
{
name = bottom;
position = "{258, 0}";
},
{
name = top;
position = "{406, 700}";
}
);
layerId = "4FD7A5AB-3C0B-49D1-A419-889C157412FC";
name = Bold;
paths = (
{
closed = 1;
nodes = (
"229 120 LINE SMOOTH",
"223 120 OFFCURVE",
"220 124 OFFCURVE",
"221 130 CURVE SMOOTH",
"266 341 LINE SMOOTH",
"267 344 OFFCURVE",
"268 346 OFFCURVE",
"271 347 CURVE SMOOTH",
"415 405 LINE SMOOTH",
"445 417 OFFCURVE",
"462 445 OFFCURVE",
"456 471 CURVE SMOOTH",
"449 498 OFFCURVE",
"424 509 OFFCURVE",
"394 497 CURVE SMOOTH",
"297 458 LINE SMOOTH",
"293 456 OFFCURVE",
"291 458 OFFCURVE",
"292 461 CURVE SMOOTH",
"329 639 LINE SMOOTH",
"337 674 OFFCURVE",
"317 700 OFFCURVE",
"283 700 CURVE SMOOTH",
"248 700 OFFCURVE",
"217 674 OFFCURVE",
"209 639 CURVE SMOOTH",
"160 406 LINE SMOOTH",
"159 403 OFFCURVE",
"158 401 OFFCURVE",
"155 400 CURVE SMOOTH",
"73 367 LINE SMOOTH",
"42 355 OFFCURVE",
"25 327 OFFCURVE",
"32 301 CURVE SMOOTH",
"38 274 OFFCURVE",
"64 263 OFFCURVE",
"93 275 CURVE SMOOTH",
"129 290 LINE SMOOTH",
"133 291 OFFCURVE",
"135 290 OFFCURVE",
"134 286 CURVE SMOOTH",
"87 61 LINE SMOOTH",
"79 26 OFFCURVE",
"100 0 OFFCURVE",
"135 0 CURVE SMOOTH",
"460 0 LINE SMOOTH",
"495 0 OFFCURVE",
"526 25 OFFCURVE",
"533 59 CURVE SMOOTH",
"541 94 OFFCURVE",
"520 120 OFFCURVE",
"485 120 CURVE SMOOTH"
);
}
);
width = 552;
}
);
unicode = 0141;
},
{
glyphname = M;
lastChange = "2013-12-18 08:32:10 +0400";
layers = (
{
layerId = "4FD7A5AB-3C0B-49D1-A419-889C157412FC";
name = Bold;
paths = (
{
closed = 1;
nodes = (
"471 376 LINE SMOOTH",
"466 371 OFFCURVE",
"460 371 OFFCURVE",
"457 376 CURVE SMOOTH",
"284 674 LINE",
"270 696 OFFCURVE",
"252 706 OFFCURVE",
"226 700 CURVE",
"196 694 OFFCURVE",
"172 670 OFFCURVE",
"166 640 CURVE SMOOTH",
"43 61 LINE SMOOTH",
"35 26 OFFCURVE",
"55 0 OFFCURVE",
"89 0 CURVE SMOOTH",
"124 0 OFFCURVE",
"155 26 OFFCURVE",
"163 61 CURVE SMOOTH",
"247 455 LINE SMOOTH",
"249 465 OFFCURVE",
"256 467 OFFCURVE",
"260 460 CURVE SMOOTH",
"384 232 LINE SMOOTH",
"393 217 OFFCURVE",
"409 205 OFFCURVE",
"428 206 CURVE SMOOTH",
"446 205 OFFCURVE",
"468 217 OFFCURVE",
"483 232 CURVE SMOOTH",
"705 460 LINE SMOOTH",
"711 467 OFFCURVE",
"718 465 OFFCURVE",
"716 455 CURVE SMOOTH",
"632 61 LINE SMOOTH",
"624 26 OFFCURVE",
"645 0 OFFCURVE",
"680 0 CURVE SMOOTH",
"714 0 OFFCURVE",
"744 26 OFFCURVE",
"752 61 CURVE SMOOTH",
"875 640 LINE SMOOTH",
"881 670 OFFCURVE",
"866 694 OFFCURVE",
"841 700 CURVE SMOOTH",
"816 706 OFFCURVE",
"796 696 OFFCURVE",
"771 674 CURVE"
);
}
);
width = 898.32;
}
);
leftKerningGroup = B;
rightKerningGroup = H;
unicode = 004D;
},
{
glyphname = N;
lastChange = "2013-12-18 08:32:10 +0400";
layers = (
{
anchors = (
{
name = bottom;
position = "{332, 0}";
},
{
name = top;
position = "{481, 700}";
}
);
layerId = "4FD7A5AB-3C0B-49D1-A419-889C157412FC";
name = Bold;
paths = (
{
closed = 1;
nodes = (
"564 236 LINE SMOOTH",
"562 227 OFFCURVE",
"556 225 OFFCURVE",
"552 232 CURVE SMOOTH",
"283 674 LINE",
"280 678 LINE",
"273 692 OFFCURVE",
"258 700 OFFCURVE",
"239 700 CURVE SMOOTH",
"204 700 OFFCURVE",
"172 674 OFFCURVE",
"165 639 CURVE SMOOTH",
"42 61 LINE SMOOTH",
"35 26 OFFCURVE",
"54 0 OFFCURVE",
"88 0 CURVE SMOOTH",
"123 0 OFFCURVE",
"155 26 OFFCURVE",
"162 61 CURVE SMOOTH",
"247 461 LINE SMOOTH",
"249 470 OFFCURVE",
"256 472 OFFCURVE",
"260 465 CURVE SMOOTH",
"527 27 LINE SMOOTH",
"529 24 OFFCURVE",
"531 20 OFFCURVE",
"535 17 CURVE",
"543 7 OFFCURVE",
"556 0 OFFCURVE",
"573 0 CURVE SMOOTH",
"608 0 OFFCURVE",
"640 26 OFFCURVE",
"647 61 CURVE SMOOTH",
"770 639 LINE SMOOTH",
"777 674 OFFCURVE",
"758 700 OFFCURVE",
"724 700 CURVE SMOOTH",
"689 700 OFFCURVE",
"657 674 OFFCURVE",
"650 639 CURVE SMOOTH"
);
}
);
width = 793.442;
}
);
leftKerningGroup = B;
rightKerningGroup = H;
unicode = 004E;
},
{
glyphname = Eng;
lastChange = "2013-12-18 08:32:10 +0400";
layers = (
{
anchors = (
{
name = bottom;
position = "{332, 0}";
},
{
name = top;
position = "{480, 700}";
}
);
layerId = "4FD7A5AB-3C0B-49D1-A419-889C157412FC";
name = Bold;
paths = (
{
closed = 1;
nodes = (
"688 700 OFFCURVE",
"657 674 OFFCURVE",
"649 639 CURVE SMOOTH",
"564 236 LINE SMOOTH",
"562 227 OFFCURVE",
"555 225 OFFCURVE",
"551 232 CURVE SMOOTH",
"283 674 LINE",
"280 678 LINE",
"273 692 OFFCURVE",
"257 700 OFFCURVE",
"238 700 CURVE SMOOTH",
"203 700 OFFCURVE",
"172 674 OFFCURVE",
"164 639 CURVE SMOOTH",
"42 61 LINE SMOOTH",
"34 26 OFFCURVE",
"54 0 OFFCURVE",
"88 0 CURVE SMOOTH",
"123 0 OFFCURVE",
"154 26 OFFCURVE",
"162 61 CURVE SMOOTH",
"247 461 LINE SMOOTH",
"249 470 OFFCURVE",
"255 472 OFFCURVE",
"259 465 CURVE SMOOTH",
"520 38 LINE SMOOTH",
"520 36 OFFCURVE",
"521 35 OFFCURVE",
"520 32 CURVE SMOOTH",
"510 -19 LINE SMOOTH",
"499 -69 OFFCURVE",
"474 -89 OFFCURVE",
"431 -90 CURVE SMOOTH",
"397 -91 OFFCURVE",
"368 -116 OFFCURVE",
"361 -148 CURVE SMOOTH",
"354 -180 OFFCURVE",
"377 -200 OFFCURVE",
"414 -200 CURVE SMOOTH",
"501 -201 OFFCURVE",
"600 -156 OFFCURVE",
"631 -14 CURVE SMOOTH",
"769 639 LINE SMOOTH",
"777 674 OFFCURVE",
"757 700 OFFCURVE",
"723 700 CURVE SMOOTH"
);
}
);
width = 792.757;
}
);
unicode = 014A;
},
{
glyphname = O;
lastChange = "2013-12-18 08:32:10 +0400";
layers = (
{
anchors = (
{
name = top;
position = "{443, 700}";
}
);
layerId = "4FD7A5AB-3C0B-49D1-A419-889C157412FC";
name = Bold;
paths = (
{
closed = 1;
nodes = (
"603 222 OFFCURVE",
"496 120 OFFCURVE",
"383 120 CURVE",
"270 120 OFFCURVE",
"185 221 OFFCURVE",
"199 350 CURVE",
"212 479 OFFCURVE",
"319 580 OFFCURVE",
"432 580 CURVE",
"545 580 OFFCURVE",
"632 478 OFFCURVE",
"618 350 CURVE"
);
},
{
closed = 1;
nodes = (
"759 543 OFFCURVE",
"627 700 OFFCURVE",
"445 700 CURVE",
"263 700 OFFCURVE",
"100 543 OFFCURVE",
"79 350 CURVE",
"58 157 OFFCURVE",
"188 0 OFFCURVE",
"370 0 CURVE",
"552 0 OFFCURVE",
"717 157 OFFCURVE",
"738 350 CURVE"
);
}
);
width = 797.296;
}
);
leftKerningGroup = C;
rightKerningGroup = D;
unicode = 004F;
},
{
glyphname = Oslash;
lastChange = "2013-12-18 08:32:10 +0400";
layers = (
{
anchors = (
{
name = top;
position = "{440, 700}";
}
);
layerId = "4FD7A5AB-3C0B-49D1-A419-889C157412FC";
name = Bold;
paths = (
{
closed = 1;
nodes = (
"706 667 LINE SMOOTH",
"724 690 OFFCURVE",
"722 719 OFFCURVE",
"700 737 CURVE SMOOTH",
"677 756 OFFCURVE",
"647 753 OFFCURVE",
"628 730 CURVE SMOOTH",
"576 666 LINE SMOOTH",
"574 663 OFFCURVE",
"572 663 OFFCURVE",
"569 665 CURVE SMOOTH",
"528 687 OFFCURVE",
"480 700 OFFCURVE",
"428 700 CURVE SMOOTH",
"246 700 OFFCURVE",
"83 543 OFFCURVE",
"62 350 CURVE SMOOTH",
"52 259 OFFCURVE",
"76 176 OFFCURVE",
"123 114 CURVE SMOOTH",
"124 111 OFFCURVE",
"124 109 OFFCURVE",
"122 107 CURVE SMOOTH",
"78 52 LINE SMOOTH",
"60 29 OFFCURVE",
"62 0 OFFCURVE",
"84 -18 CURVE SMOOTH",
"107 -37 OFFCURVE",
"137 -34 OFFCURVE",
"156 -11 CURVE SMOOTH",
"197 39 LINE SMOOTH",
"199 42 OFFCURVE",
"201 42 OFFCURVE",
"204 40 CURVE SMOOTH",
"247 15 OFFCURVE",
"298 0 OFFCURVE",
"353 0 CURVE SMOOTH",
"535 0 OFFCURVE",
"700 157 OFFCURVE",
"721 350 CURVE SMOOTH",
"732 445 OFFCURVE",
"705 531 OFFCURVE",
"653 595 CURVE SMOOTH",
"651 597 OFFCURVE",
"651 599 OFFCURVE",
"653 602 CURVE SMOOTH"
);
},
{
closed = 1;
nodes = (
"195 479 OFFCURVE",
"302 580 OFFCURVE",
"415 580 CURVE SMOOTH",
"441 580 OFFCURVE",
"465 575 OFFCURVE",
"487 565 CURVE SMOOTH",
"490 564 OFFCURVE",
"491 561 OFFCURVE",
"489 558 CURVE SMOOTH",
"213 218 LINE SMOOTH",
"210 215 OFFCURVE",
"207 215 OFFCURVE",
"205 218 CURVE SMOOTH",
"186 255 OFFCURVE",
"177 301 OFFCURVE",
"182 350 CURVE SMOOTH"
);
},
{
closed = 1;
nodes = (
"586 222 OFFCURVE",
"479 120 OFFCURVE",
"366 120 CURVE SMOOTH",
"337 120 OFFCURVE",
"309 127 OFFCURVE",
"285 139 CURVE SMOOTH",
"282 141 OFFCURVE",
"281 143 OFFCURVE",
"283 146 CURVE SMOOTH",
"564 492 LINE SMOOTH",
"566 495 OFFCURVE",
"569 495 OFFCURVE",
"571 492 CURVE SMOOTH",
"595 453 OFFCURVE",
"607 404 OFFCURVE",
"601 350 CURVE SMOOTH"
);
}
);
width = 763.429;
}
);
unicode = 00D8;
},
{
glyphname = OE;
lastChange = "2013-12-18 08:32:10 +0400";
layers = (
{
anchors = (
{
name = bottom;
position = "{651, 0}";
},
{
name = center;
position = "{349, 350}";
},
{
name = ogonek;
position = "{886, 10}";
},
{
name = top;
position = "{392, 700}";
}
);
layerId = "4FD7A5AB-3C0B-49D1-A419-889C157412FC";
name = Bold;
paths = (
{
closed = 1;
nodes = (
"592 120 LINE SMOOTH",
"586 120 OFFCURVE",
"582 124 OFFCURVE",
"583 130 CURVE SMOOTH",
"596 240 LINE SMOOTH",
"597 247 OFFCURVE",
"602 250 OFFCURVE",
"608 250 CURVE SMOOTH",
"819 250 LINE SMOOTH",
"854 250 OFFCURVE",
"883 275 OFFCURVE",
"887 309 CURVE SMOOTH",
"891 344 OFFCURVE",
"868 370 OFFCURVE",
"833 370 CURVE SMOOTH",
"622 370 LINE SMOOTH",
"616 370 OFFCURVE",
"613 374 OFFCURVE",
"614 380 CURVE SMOOTH",
"637 570 LINE SMOOTH",
"638 577 OFFCURVE",
"641 580 OFFCURVE",
"648 580 CURVE SMOOTH",
"904 580 LINE SMOOTH",
"939 580 OFFCURVE",
"968 605 OFFCURVE",
"972 639 CURVE SMOOTH",
"977 674 OFFCURVE",
"954 700 OFFCURVE",
"919 700 CURVE SMOOTH",
"594 700 LINE SMOOTH",
"594 700 OFFCURVE",
"593 700 OFFCURVE",
"593 700 CURVE SMOOTH",
"592 700 LINE",
"393 700 LINE SMOOTH",
"200 700 OFFCURVE",
"74 543 OFFCURVE",
"50 350 CURVE SMOOTH",
"26 156 OFFCURVE",
"114 0 OFFCURVE",
"307 0 CURVE SMOOTH",
"506 0 LINE SMOOTH",
"506 0 OFFCURVE",
"507 0 OFFCURVE",
"507 0 CURVE SMOOTH",
"508 0 LINE",
"833 0 LINE SMOOTH",
"868 0 OFFCURVE",
"897 25 OFFCURVE",
"901 59 CURVE SMOOTH",
"906 94 OFFCURVE",
"883 120 OFFCURVE",
"848 120 CURVE SMOOTH"
);
},
{
closed = 1;
nodes = (
"322 120 LINE SMOOTH",
"196 120 OFFCURVE",
"154 223 OFFCURVE",
"170 350 CURVE SMOOTH",
"185 476 OFFCURVE",
"252 580 OFFCURVE",
"378 580 CURVE SMOOTH",
"508 580 LINE SMOOTH",
"514 580 OFFCURVE",
"518 577 OFFCURVE",
"517 570 CURVE SMOOTH",
"463 130 LINE SMOOTH",
"462 124 OFFCURVE",
"458 120 OFFCURVE",
"452 120 CURVE SMOOTH"
);
}
);
width = 987;
}
);
leftMetricsKey = O;
rightMetricsKey = E;
unicode = 0152;
},
{
glyphname = P;
lastChange = "2013-12-18 08:32:10 +0400";
layers = (
{
layerId = "4FD7A5AB-3C0B-49D1-A419-889C157412FC";
name = Bold;
paths = (
{
closed = 1;
nodes = (
"239 700 LINE SMOOTH",
"204 700 OFFCURVE",
"172 674 OFFCURVE",
"165 639 CURVE SMOOTH",
"42 61 LINE SMOOTH",
"35 26 OFFCURVE",
"54 0 OFFCURVE",
"88 0 CURVE SMOOTH",
"123 0 OFFCURVE",
"155 26 OFFCURVE",
"162 61 CURVE SMOOTH",
"200 240 LINE SMOOTH",
"202 247 OFFCURVE",
"206 250 OFFCURVE",
"212 250 CURVE SMOOTH",
"371 250 LINE SMOOTH",
"475 250 OFFCURVE",
"592 351 OFFCURVE",
"618 475 CURVE SMOOTH",
"645 600 OFFCURVE",
"571 700 OFFCURVE",
"467 700 CURVE SMOOTH"
);
},
{
closed = 1;
nodes = (
"238 370 LINE SMOOTH",
"232 370 OFFCURVE",
"229 374 OFFCURVE",
"230 380 CURVE SMOOTH",
"270 570 LINE SMOOTH",
"272 577 OFFCURVE",
"276 580 OFFCURVE",
"282 580 CURVE SMOOTH",
"441 580 LINE SMOOTH",
"479 580 OFFCURVE",
"511 533 OFFCURVE",
"498 475 CURVE SMOOTH",
"486 418 OFFCURVE",
"435 370 OFFCURVE",
"397 370 CURVE SMOOTH"
);
}
);
width = 606.596;
}
);
leftKerningGroup = B;
rightKerningGroup = P;
unicode = 0050;
},
{
glyphname = Thorn;
lastChange = "2013-12-18 08:32:10 +0400";
layers = (
{
layerId = "4FD7A5AB-3C0B-49D1-A419-889C157412FC";
name = Bold;
paths = (
{
closed = 1;
nodes = (
"539 576 OFFCURVE",
"388 589 OFFCURVE",
"210 590 CURVE",
"210 679 LINE SMOOTH",
"210 714 OFFCURVE",
"186 740 OFFCURVE",
"151 740 CURVE SMOOTH",
"116 740 OFFCURVE",
"90 714 OFFCURVE",
"90 679 CURVE SMOOTH",
"90 61 LINE SMOOTH",
"90 26 OFFCURVE",
"114 0 OFFCURVE",
"149 0 CURVE SMOOTH",
"184 0 OFFCURVE",
"210 26 OFFCURVE",
"210 61 CURVE SMOOTH",
"210 152 LINE",
"380 153 OFFCURVE",
"539 166 OFFCURVE",
"539 371 CURVE SMOOTH"
);
},
{
closed = 1;
nodes = (
"210 470 LINE",
"348 471 OFFCURVE",
"419 469 OFFCURVE",
"419 371 CURVE SMOOTH",
"419 272 OFFCURVE",
"348 271 OFFCURVE",
"210 272 CURVE"
);
}
);
width = 574;
}
);
unicode = 00DE;
},
{
glyphname = Q;
lastChange = "2013-12-18 08:32:10 +0400";
layers = (
{
layerId = "4FD7A5AB-3C0B-49D1-A419-889C157412FC";
name = Bold;
paths = (
{
closed = 1;
nodes = (
"537 52 LINE SMOOTH",
"638 114 OFFCURVE",
"713 224 OFFCURVE",
"727 350 CURVE SMOOTH",
"748 543 OFFCURVE",
"616 700 OFFCURVE",
"434 700 CURVE SMOOTH",
"252 700 OFFCURVE",
"89 543 OFFCURVE",
"68 350 CURVE SMOOTH",
"51 203 OFFCURVE",
"124 77 OFFCURVE",
"239 25 CURVE SMOOTH",
"246 22 OFFCURVE",
"246 16 OFFCURVE",
"238 12 CURVE SMOOTH",
"182 -21 LINE",
"172 -26 LINE",
"146 -44 OFFCURVE",
"136 -77 OFFCURVE",
"148 -105 CURVE SMOOTH",
"157 -125 OFFCURVE",
"174 -135 OFFCURVE",
"195 -135 CURVE",
"204 -135 LINE",
"210 -134 OFFCURVE",
"215 -133 OFFCURVE",
"221 -131 CURVE SMOOTH",
"279 -113 OFFCURVE",
"329 -96 OFFCURVE",
"379 -131 CURVE SMOOTH",
"432 -168 OFFCURVE",
"482 -191 OFFCURVE",
"555 -191 CURVE SMOOTH",
"629 -191 OFFCURVE",
"721 -145 OFFCURVE",
"771 -111 CURVE SMOOTH",
"802 -90 OFFCURVE",
"811 -52 OFFCURVE",
"790 -25 CURVE SMOOTH",
"770 1 OFFCURVE",
"744 2 OFFCURVE",
"710 -18 CURVE SMOOTH",
"675 -40 OFFCURVE",
"633 -71 OFFCURVE",
"577 -71 CURVE SMOOTH",
"518 -71 OFFCURVE",
"488 -48 OFFCURVE",
"438 -21 CURVE SMOOTH",
"429 -16 OFFCURVE",
"426 -12 OFFCURVE",
"439 -4 CURVE SMOOTH"
);
},
{
closed = 1;
nodes = (
"468 144 LINE",
"438 129 OFFCURVE",
"405 120 OFFCURVE",
"372 120 CURVE SMOOTH",
"259 120 OFFCURVE",
"174 221 OFFCURVE",
"188 350 CURVE SMOOTH",
"201 479 OFFCURVE",
"308 580 OFFCURVE",
"421 580 CURVE SMOOTH",
"534 580 OFFCURVE",
"621 478 OFFCURVE",
"607 350 CURVE SMOOTH",
"598 268 OFFCURVE",
"550 196 OFFCURVE",
"486 155 CURVE"
);
}
);
width = 821.285;
}
);
leftKerningGroup = C;
rightKerningGroup = D;
unicode = 0051;
},
{
glyphname = R;
lastChange = "2013-12-18 08:32:10 +0400";
layers = (
{
anchors = (
{
name = bottom;
position = "{264, 0}";
},
{
name = top;
position = "{413, 700}";
}
);
layerId = "4FD7A5AB-3C0B-49D1-A419-889C157412FC";
name = Bold;
paths = (
{
closed = 1;
nodes = (
"239 700 LINE SMOOTH",
"204 700 OFFCURVE",
"172 674 OFFCURVE",
"165 639 CURVE SMOOTH",
"42 61 LINE SMOOTH",
"35 26 OFFCURVE",
"54 0 OFFCURVE",
"88 0 CURVE SMOOTH",
"123 0 OFFCURVE",
"155 26 OFFCURVE",
"162 61 CURVE SMOOTH",
"206 265 LINE SMOOTH",
"207 272 OFFCURVE",
"212 275 OFFCURVE",
"218 275 CURVE SMOOTH",
"340 275 LINE SMOOTH",
"400 275 OFFCURVE",
"423 239 OFFCURVE",
"412 187 CURVE SMOOTH",
"389 77 OFFCURVE",
"416 31 OFFCURVE",
"446 10 CURVE SMOOTH",
"466 -3 OFFCURVE",
"510 -9 OFFCURVE",
"538 17 CURVE SMOOTH",
"565 42 OFFCURVE",
"564 81 OFFCURVE",
"539 98 CURVE SMOOTH",
"516 113 OFFCURVE",
"527 148 OFFCURVE",
"533 204 CURVE SMOOTH",
"537 247 OFFCURVE",
"533 281 OFFCURVE",
"492 316 CURVE SMOOTH",
"487 320 OFFCURVE",
"489 326 OFFCURVE",
"495 330 CURVE SMOOTH",
"555 362 OFFCURVE",
"606 417 OFFCURVE",
"620 485 CURVE SMOOTH",
"647 610 OFFCURVE",
"571 700 OFFCURVE",
"467 700 CURVE SMOOTH"
);
},
{
closed = 1;
nodes = (
"241 384 LINE SMOOTH",
"235 384 OFFCURVE",
"232 388 OFFCURVE",
"233 394 CURVE SMOOTH",
"270 570 LINE SMOOTH",
"272 577 OFFCURVE",
"276 580 OFFCURVE",
"282 580 CURVE SMOOTH",
"441 580 LINE SMOOTH",
"479 580 OFFCURVE",
"512 540 OFFCURVE",
"500 482 CURVE SMOOTH",
"488 425 OFFCURVE",
"438 384 OFFCURVE",
"400 384 CURVE SMOOTH"
);
}
);
width = 658.491;
}
);
leftKerningGroup = B;
rightKerningGroup = R;
unicode = 0052;
},
{
glyphname = S;
lastChange = "2013-12-18 08:32:10 +0400";
layers = (
{
anchors = (
{
name = bottom;
position = "{269, 0}";
},
{
name = top;
position = "{418, 700}";
}
);
layerId = "4FD7A5AB-3C0B-49D1-A419-889C157412FC";
name = Bold;
paths = (
{
closed = 1;
nodes = (
"94 16 OFFCURVE",
"171 -7 OFFCURVE",
"264 -7 CURVE SMOOTH",
"399 -7 OFFCURVE",
"546 66 OFFCURVE",
"573 193 CURVE SMOOTH",
"593 285 OFFCURVE",
"575 358 OFFCURVE",
"397 410 CURVE SMOOTH",
"295 440 OFFCURVE",
"215 464 OFFCURVE",
"227 523 CURVE SMOOTH",
"236 563 OFFCURVE",
"284 595 OFFCURVE",
"373 595 CURVE SMOOTH",
"443 595 OFFCURVE",
"487 562 OFFCURVE",
"516 534 CURVE SMOOTH",
"534 517 OFFCURVE",
"567 525 OFFCURVE",
"587 545 CURVE SMOOTH",
"619 576 OFFCURVE",
"617 612 OFFCURVE",
"592 636 CURVE SMOOTH",
"552 676 OFFCURVE",
"488 710 OFFCURVE",
"397 710 CURVE SMOOTH",
"254 710 OFFCURVE",
"130 632 OFFCURVE",
"105 514 CURVE SMOOTH",
"74 367 OFFCURVE",
"227 337 OFFCURVE",
"343 303 CURVE SMOOTH",
"415 282 OFFCURVE",
"466 264 OFFCURVE",
"451 193 CURVE SMOOTH",
"441 145 OFFCURVE",
"371 108 OFFCURVE",
"288 108 CURVE SMOOTH",
"215 108 OFFCURVE",
"166 130 OFFCURVE",
"124 173 CURVE SMOOTH",
"105 192 OFFCURVE",
"71 189 OFFCURVE",
"46 166 CURVE SMOOTH",
"14 137 OFFCURVE",
"13 100 OFFCURVE",
"38 74 CURVE SMOOTH"
);
}
);
width = 640.89;
}
);
leftKerningGroup = S;
rightKerningGroup = S;
unicode = 0053;
},
{
glyphname = T;
lastChange = "2013-12-18 08:32:10 +0400";
layers = (
{
anchors = (
{
name = bottom;
position = "{234, 0}";
},
{
name = center;
position = "{309, 350}";
},
{
name = top;
position = "{383, 700}";
}
);
layerId = "4FD7A5AB-3C0B-49D1-A419-889C157412FC";
name = Bold;
paths = (
{
closed = 1;
nodes = (
"650 675 OFFCURVE",
"629 700 OFFCURVE",
"594 700 CURVE SMOOTH",
"170 700 LINE SMOOTH",
"135 700 OFFCURVE",
"104 675 OFFCURVE",
"96 641 CURVE SMOOTH",
"89 606 OFFCURVE",
"109 580 OFFCURVE",
"144 580 CURVE SMOOTH",
"291 580 LINE SMOOTH",
"294 580 OFFCURVE",
"296 578 OFFCURVE",
"295 575 CURVE SMOOTH",
"186 61 LINE SMOOTH",
"179 26 OFFCURVE",
"198 0 OFFCURVE",
"232 0 CURVE SMOOTH",
"267 0 OFFCURVE",
"299 26 OFFCURVE",
"306 61 CURVE SMOOTH",
"415 575 LINE SMOOTH",
"416 578 OFFCURVE",
"418 580 OFFCURVE",
"421 580 CURVE SMOOTH",
"568 580 LINE SMOOTH",
"603 580 OFFCURVE",
"635 605 OFFCURVE",
"642 640 CURVE SMOOTH"
);
}
);
width = 576.697;
}
);
leftKerningGroup = T;
rightKerningGroup = T;
unicode = 0054;
},
{
glyphname = U;
lastChange = "2013-12-18 08:32:10 +0400";
layers = (
{
anchors = (
{
name = ogonek;
position = "{591, 10}";
},
{
name = top;
position = "{454, 700}";
}
);
layerId = "4FD7A5AB-3C0B-49D1-A419-889C157412FC";
name = Bold;
paths = (
{
closed = 1;
nodes = (
"637 701 OFFCURVE",
"606 675 OFFCURVE",
"599 640 CURVE SMOOTH",
"522 278 LINE SMOOTH",
"504 191 OFFCURVE",
"418 120 OFFCURVE",
"332 120 CURVE SMOOTH",
"245 120 OFFCURVE",
"189 191 OFFCURVE",
"207 278 CURVE SMOOTH",
"284 640 LINE SMOOTH",
"291 675 OFFCURVE",
"272 701 OFFCURVE",
"238 701 CURVE SMOOTH",
"203 701 OFFCURVE",
"171 675 OFFCURVE",
"164 640 CURVE SMOOTH",
"87 278 LINE SMOOTH",
"54 124 OFFCURVE",
"152 0 OFFCURVE",
"306 0 CURVE SMOOTH",
"459 0 OFFCURVE",
"609 124 OFFCURVE",
"642 278 CURVE SMOOTH",
"719 640 LINE SMOOTH",
"726 675 OFFCURVE",
"707 701 OFFCURVE",
"672 701 CURVE SMOOTH"
);
}
);
width = 734.439;
}
);
leftKerningGroup = U;
rightKerningGroup = U;
unicode = 0055;
},
{
glyphname = V;
lastChange = "2013-12-18 08:32:10 +0400";
layers = (
{
layerId = "4FD7A5AB-3C0B-49D1-A419-889C157412FC";
name = Bold;
paths = (
{
closed = 1;
nodes = (
"324 215 LINE",
"218 664 LINE SMOOTH",
"210 697 OFFCURVE",
"181 711 OFFCURVE",
"147 698 CURVE SMOOTH",
"111 684 OFFCURVE",
"90 650 OFFCURVE",
"97 618 CURVE SMOOTH",
"231 38 LINE SMOOTH",
"237 14 OFFCURVE",
"255 1 OFFCURVE",
"277 0 CURVE SMOOTH",
"300 0 OFFCURVE",
"326 12 OFFCURVE",
"344 39 CURVE SMOOTH",
"724 617 LINE SMOOTH",
"746 650 OFFCURVE",
"739 684 OFFCURVE",
"710 697 CURVE SMOOTH",
"681 711 OFFCURVE",
"645 697 OFFCURVE",
"623 664 CURVE SMOOTH"
);
}
);
width = 658.928;
}
);
leftKerningGroup = V;
rightKerningGroup = V;
unicode = 0056;
},
{
glyphname = W;
lastChange = "2013-12-18 08:32:10 +0400";
layers = (
{
anchors = (
{
name = top;
position = "{603, 700}";
}
);
layerId = "4FD7A5AB-3C0B-49D1-A419-889C157412FC";
name = Bold;
paths = (
{
closed = 1;
nodes = (
"690 232 LINE SMOOTH",
"685 224 OFFCURVE",
"678 223 OFFCURVE",
"677 232 CURVE SMOOTH",
"613 524 LINE SMOOTH",
"608 548 OFFCURVE",
"590 563 OFFCURVE",
"565 562 CURVE",
"539 563 OFFCURVE",
"515 548 OFFCURVE",
"500 524 CURVE SMOOTH",
"312 232 LINE SMOOTH",
"307 223 OFFCURVE",
"300 224 OFFCURVE",
"299 232 CURVE SMOOTH",
"245 664 LINE SMOOTH",
"241 697 OFFCURVE",
"208 711 OFFCURVE",
"174 698 CURVE SMOOTH",
"138 684 OFFCURVE",
"120 650 OFFCURVE",
"124 618 CURVE SMOOTH",
"198 38 LINE SMOOTH",
"201 14 OFFCURVE",
"222 1 OFFCURVE",
"244 0 CURVE",
"267 0 OFFCURVE",
"293 13 OFFCURVE",
"311 39 CURVE SMOOTH",
"510 337 LINE SMOOTH",
"516 345 OFFCURVE",
"522 345 OFFCURVE",
"524 337 CURVE SMOOTH",
"596 39 LINE SMOOTH",
"602 13 OFFCURVE",
"624 0 OFFCURVE",
"647 0 CURVE",
"669 1 OFFCURVE",
"696 14 OFFCURVE",
"709 38 CURVE SMOOTH",
"1029 618 LINE SMOOTH",
"1047 650 OFFCURVE",
"1043 684 OFFCURVE",
"1013 698 CURVE SMOOTH",
"985 711 OFFCURVE",
"946 697 OFFCURVE",
"928 664 CURVE SMOOTH"
);
}
);
width = 980.786;
}
);
leftKerningGroup = W;
rightKerningGroup = W;
unicode = 0057;
},
{
glyphname = X;
lastChange = "2013-12-18 08:32:10 +0400";
layers = (
{
layerId = "4FD7A5AB-3C0B-49D1-A419-889C157412FC";
name = Bold;
paths = (
{
closed = 1;
nodes = (
"625 606 LINE SMOOTH",
"652 634 OFFCURVE",
"655 670 OFFCURVE",
"631 690 CURVE SMOOTH",
"608 711 OFFCURVE",
"570 705 OFFCURVE",
"544 677 CURVE SMOOTH",
"333 459 LINE SMOOTH",
"328 454 OFFCURVE",
"322 454 OFFCURVE",
"319 459 CURVE SMOOTH",
"201 677 LINE SMOOTH",
"185 705 OFFCURVE",
"152 711 OFFCURVE",
"119 691 CURVE SMOOTH",
"87 670 OFFCURVE",
"73 634 OFFCURVE",
"88 606 CURVE SMOOTH",
"224 358 LINE SMOOTH",
"226 353 OFFCURVE",
"225 349 OFFCURVE",
"221 344 CURVE SMOOTH",
"-20 95 LINE SMOOTH",
"-47 67 OFFCURVE",
"-50 31 OFFCURVE",
"-26 11 CURVE SMOOTH",
"-3 -10 OFFCURVE",
"35 -4 OFFCURVE",
"62 24 CURVE SMOOTH",
"273 242 LINE SMOOTH",
"278 247 OFFCURVE",
"284 247 OFFCURVE",
"287 242 CURVE SMOOTH",
"405 24 LINE SMOOTH",
"420 -4 OFFCURVE",
"453 -10 OFFCURVE",
"486 10 CURVE SMOOTH",
"518 31 OFFCURVE",
"532 67 OFFCURVE",
"517 95 CURVE SMOOTH",
"382 344 LINE SMOOTH",
"380 349 OFFCURVE",
"381 353 OFFCURVE",
"385 358 CURVE SMOOTH"
);
}
);
width = 600.274;
}
);
leftKerningGroup = X;
rightKerningGroup = X;
unicode = 0058;
},
{
glyphname = Y;
lastChange = "2013-12-18 08:32:10 +0400";
layers = (
{
anchors = (
{
name = top;
position = "{381, 700}";
}
);
layerId = "4FD7A5AB-3C0B-49D1-A419-889C157412FC";
name = Bold;
paths = (
{
closed = 1;
nodes = (
"337 449 LINE SMOOTH",
"332 443 OFFCURVE",
"326 443 OFFCURVE",
"323 449 CURVE SMOOTH",
"205 677 LINE SMOOTH",
"189 705 OFFCURVE",
"156 711 OFFCURVE",
"123 691 CURVE SMOOTH",
"90 671 OFFCURVE",
"78 635 OFFCURVE",
"92 606 CURVE SMOOTH",
"239 324 LINE SMOOTH",
"242 320 OFFCURVE",
"242 316 OFFCURVE",
"241 311 CURVE SMOOTH",
"188 61 LINE SMOOTH",
"180 26 OFFCURVE",
"200 0 OFFCURVE",
"235 0 CURVE SMOOTH",
"270 0 OFFCURVE",
"300 26 OFFCURVE",
"308 61 CURVE SMOOTH",
"361 312 LINE SMOOTH",
"362 316 OFFCURVE",
"364 320 OFFCURVE",
"367 324 CURVE SMOOTH",
"634 607 LINE SMOOTH",
"661 635 OFFCURVE",
"663 671 OFFCURVE",
"639 691 CURVE SMOOTH",
"615 711 OFFCURVE",
"578 705 OFFCURVE",
"552 677 CURVE SMOOTH"
);
}
);
width = 590.715;
}
);
leftKerningGroup = Y;
rightKerningGroup = Y;
unicode = 0059;
},
{
glyphname = Z;
lastChange = "2013-12-18 08:32:10 +0400";
layers = (
{
anchors = (
{
name = top;
position = "{420, 700}";
}
);
layerId = "4FD7A5AB-3C0B-49D1-A419-889C157412FC";
name = Bold;
paths = (
{
closed = 1;
nodes = (
"233 700 LINE SMOOTH",
"198 700 OFFCURVE",
"167 675 OFFCURVE",
"159 641 CURVE SMOOTH",
"152 606 OFFCURVE",
"172 580 OFFCURVE",
"207 580 CURVE SMOOTH",
"486 580 LINE SMOOTH",
"495 580 OFFCURVE",
"497 574 OFFCURVE",
"490 568 CURVE SMOOTH",
"15 97 LINE SMOOTH",
"-13 69 OFFCURVE",
"-16 33 OFFCURVE",
"8 13 CURVE",
"15 8 LINE",
"23 3 OFFCURVE",
"32 0 OFFCURVE",
"44 0 CURVE SMOOTH",
"483 0 LINE SMOOTH",
"518 0 OFFCURVE",
"550 25 OFFCURVE",
"557 59 CURVE SMOOTH",
"564 94 OFFCURVE",
"544 120 OFFCURVE",
"509 120 CURVE SMOOTH",
"201 120 LINE SMOOTH",
"192 120 OFFCURVE",
"190 126 OFFCURVE",
"197 132 CURVE SMOOTH",
"672 603 LINE SMOOTH",
"700 631 OFFCURVE",
"703 667 OFFCURVE",
"679 687 CURVE SMOOTH",
"672 694 OFFCURVE",
"663 698 OFFCURVE",
"653 699 CURVE",
"649 700 OFFCURVE",
"646 700 OFFCURVE",
"642 700 CURVE SMOOTH"
);
}
);
width = 676.18;
}
);
leftKerningGroup = Z;
rightKerningGroup = Z;
unicode = 005A;
},
{
glyphname = A.ss01;
lastChange = "2013-12-18 08:32:10 +0400";
layers = (
{
layerId = "4FD7A5AB-3C0B-49D1-A419-889C157412FC";
name = Bold;
paths = (
{
closed = 1;
nodes = (
"707 700 OFFCURVE",
"677 674 OFFCURVE",
"669 639 CURVE SMOOTH",
"667 628 LINE SMOOTH",
"666 624 OFFCURVE",
"663 623 OFFCURVE",
"661 626 CURVE SMOOTH",
"617 676 OFFCURVE",
"546 710 OFFCURVE",
"466 710 CURVE SMOOTH",
"279 710 OFFCURVE",
"92 549 OFFCURVE",
"50 350 CURVE SMOOTH",
"8 151 OFFCURVE",
"125 -10 OFFCURVE",
"312 -10 CURVE SMOOTH",
"392 -10 OFFCURVE",
"479 24 OFFCURVE",
"543 74 CURVE SMOOTH",
"547 77 OFFCURVE",
"550 76 OFFCURVE",
"549 72 CURVE SMOOTH",
"547 61 LINE SMOOTH",
"539 26 OFFCURVE",
"559 0 OFFCURVE",
"593 0 CURVE SMOOTH",
"628 0 OFFCURVE",
"659 26 OFFCURVE",
"667 61 CURVE SMOOTH",
"789 639 LINE SMOOTH",
"797 674 OFFCURVE",
"777 700 OFFCURVE",
"742 700 CURVE SMOOTH"
);
},
{
closed = 1;
nodes = (
"220 110 OFFCURVE",
"142 216 OFFCURVE",
"170 350 CURVE SMOOTH",
"198 484 OFFCURVE",
"322 590 OFFCURVE",
"450 590 CURVE SMOOTH",
"578 590 OFFCURVE",
"656 484 OFFCURVE",
"628 350 CURVE SMOOTH",
"600 216 OFFCURVE",
"476 110 OFFCURVE",
"348 110 CURVE SMOOTH"
);
}
);
width = 818;
}
);
},
{
glyphname = E.ss01;
lastChange = "2013-12-18 08:32:10 +0400";
layers = (
{
layerId = "4FD7A5AB-3C0B-49D1-A419-889C157412FC";
name = Bold;
paths = (
{
closed = 1;
nodes = (
"750 370 CURVE SMOOTH",
"795 582 OFFCURVE",
"651 710 OFFCURVE",
"475 710 CURVE SMOOTH",
"283 710 OFFCURVE",
"92 549 OFFCURVE",
"50 350 CURVE SMOOTH",
"8 151 OFFCURVE",
"132 -10 OFFCURVE",
"324 -10 CURVE SMOOTH",
"432 -10 OFFCURVE",
"518 12 OFFCURVE",
"609 79 CURVE SMOOTH",
"644 104 OFFCURVE",
"649 144 OFFCURVE",
"627 167 CURVE SMOOTH",
"608 188 OFFCURVE",
"576 188 OFFCURVE",
"545 168 CURVE SMOOTH",
"479 123 OFFCURVE",
"414 110 OFFCURVE",
"350 110 CURVE SMOOTH",
"243 110 OFFCURVE",
"165 189 OFFCURVE",
"165 296 CURVE",
"660 296 LINE SMOOTH",
"698 296 OFFCURVE",
"740 321 OFFCURVE"
);
},
{
closed = 1;
nodes = (
"193 416 LINE",
"241 517 OFFCURVE",
"346 590 OFFCURVE",
"449 590 CURVE SMOOTH",
"553 590 OFFCURVE",
"626 517 OFFCURVE",
"631 416 CURVE"
);
}
);
width = 806;
}
);
},
{
glyphname = M.ss01;
lastChange = "2013-12-18 08:32:10 +0400";
layers = (
{
layerId = "4FD7A5AB-3C0B-49D1-A419-889C157412FC";
name = Bold;
paths = (
{
closed = 1;
nodes = (
"270 639 LINE",
"278 674 OFFCURVE",
"258 700 OFFCURVE",
"223 700 CURVE SMOOTH",
"188 700 OFFCURVE",
"158 674 OFFCURVE",
"150 639 CURVE SMOOTH",
"28 61 LINE SMOOTH",
"20 26 OFFCURVE",
"40 0 OFFCURVE",
"75 0 CURVE SMOOTH",
"110 0 OFFCURVE",
"140 26 OFFCURVE",
"148 61 CURVE SMOOTH",
"224 422 LINE SMOOTH",
"243 509 OFFCURVE",
"326 590 OFFCURVE",
"432 590 CURVE SMOOTH",
"529 590 OFFCURVE",
"533 509 OFFCURVE",
"514 422 CURVE SMOOTH",
"438 61 LINE",
"437 59 LINE SMOOTH",
"431 25 OFFCURVE",
"450 0 OFFCURVE",
"484 0 CURVE SMOOTH",
"520 0 OFFCURVE",
"550 26 OFFCURVE",
"558 61 CURVE SMOOTH",
"634 422 LINE SMOOTH",
"653 509 OFFCURVE",
"736 590 OFFCURVE",
"842 590 CURVE SMOOTH",
"939 590 OFFCURVE",
"943 509 OFFCURVE",
"924 422 CURVE SMOOTH",
"848 61 LINE SMOOTH",
"840 26 OFFCURVE",
"860 0 OFFCURVE",
"894 0 CURVE SMOOTH",
"929 0 OFFCURVE",
"960 26 OFFCURVE",
"968 61 CURVE SMOOTH",
"1044 422 LINE SMOOTH",
"1079 586 OFFCURVE",
"1031 710 OFFCURVE",
"867 710 CURVE SMOOTH",
"804 710 OFFCURVE",
"715 675 OFFCURVE",
"638 601 CURVE SMOOTH",
"636 598 OFFCURVE",
"633 598 OFFCURVE",
"632 602 CURVE SMOOTH",
"609 668 OFFCURVE",
"552 710 OFFCURVE",
"457 710 CURVE SMOOTH",
"392 710 OFFCURVE",
"333 682 OFFCURVE",
"274 630 CURVE",
"271 627 OFFCURVE",
"268 628 OFFCURVE",
"269 632 CURVE"
);
}
);
width = 1110;
}
);
},
{
glyphname = N.ss01;
lastChange = "2013-12-18 08:32:10 +0400";
layers = (
{
layerId = "4FD7A5AB-3C0B-49D1-A419-889C157412FC";
name = Bold;
paths = (
{
closed = 1;
nodes = (
"224 422 LINE SMOOTH",
"243 509 OFFCURVE",
"331 590 OFFCURVE",
"437 590 CURVE SMOOTH",
"534 590 OFFCURVE",
"558 509 OFFCURVE",
"539 422 CURVE SMOOTH",
"463 61 LINE SMOOTH",
"455 26 OFFCURVE",
"475 0 OFFCURVE",
"509 0 CURVE SMOOTH",
"544 0 OFFCURVE",
"575 26 OFFCURVE",
"583 61 CURVE SMOOTH",
"659 422 LINE SMOOTH",
"694 586 OFFCURVE",
"626 710 OFFCURVE",
"462 710 CURVE SMOOTH",
"397 710 OFFCURVE",
"333 682 OFFCURVE",
"274 630 CURVE SMOOTH",
"271 627 OFFCURVE",
"268 628 OFFCURVE",
"269 632 CURVE SMOOTH",
"270 639 LINE SMOOTH",
"278 674 OFFCURVE",
"258 700 OFFCURVE",
"223 700 CURVE SMOOTH",
"188 700 OFFCURVE",
"158 674 OFFCURVE",
"150 639 CURVE SMOOTH",
"28 61 LINE SMOOTH",
"20 26 OFFCURVE",
"40 0 OFFCURVE",
"75 0 CURVE SMOOTH",
"110 0 OFFCURVE",
"140 26 OFFCURVE",
"148 61 CURVE SMOOTH"
);
}
);
width = 725;
}
);
},
{
glyphname = Q.ss01;
lastChange = "2013-12-18 08:32:10 +0400";
layers = (
{
layerId = "4FD7A5AB-3C0B-49D1-A419-889C157412FC";
name = Bold;
paths = (
{
closed = 1;
nodes = (
"766 543 OFFCURVE",
"651 700 OFFCURVE",
"469 700 CURVE SMOOTH",
"287 700 OFFCURVE",
"107 543 OFFCURVE",
"66 350 CURVE SMOOTH",
"30 180 OFFCURVE",
"114 39 OFFCURVE",
"258 7 CURVE SMOOTH",
"261 6 OFFCURVE",
"261 4 OFFCURVE",
"261 1 CURVE SMOOTH",
"242 -89 LINE SMOOTH",
"234 -124 OFFCURVE",
"254 -150 OFFCURVE",
"289 -150 CURVE SMOOTH",
"324 -150 OFFCURVE",
"354 -124 OFFCURVE",
"362 -89 CURVE SMOOTH",
"381 1 LINE SMOOTH",
"381 4 OFFCURVE",
"383 6 OFFCURVE",
"386 7 CURVE SMOOTH",
"545 39 OFFCURVE",
"689 180 OFFCURVE",
"725 350 CURVE SMOOTH"
);
},
{
closed = 1;
nodes = (
"233 120 OFFCURVE",
"159 221 OFFCURVE",
"186 350 CURVE SMOOTH",
"213 479 OFFCURVE",
"331 580 OFFCURVE",
"444 580 CURVE SMOOTH",
"557 580 OFFCURVE",
"632 478 OFFCURVE",
"605 350 CURVE SMOOTH",
"578 222 OFFCURVE",
"459 120 OFFCURVE",
"346 120 CURVE SMOOTH"
);
}
);
width = 759;
}
);
},
{
glyphname = R.ss01;
lastChange = "2013-12-18 08:32:10 +0400";
layers = (
{
layerId = "4FD7A5AB-3C0B-49D1-A419-889C157412FC";
name = Bold;
paths = (
{
closed = 1;
nodes = (
"270 639 LINE",
"278 674 OFFCURVE",
"258 700 OFFCURVE",
"224 700 CURVE SMOOTH",
"189 700 OFFCURVE",
"158 674 OFFCURVE",
"150 639 CURVE SMOOTH",
"28 61 LINE SMOOTH",
"20 26 OFFCURVE",
"40 0 OFFCURVE",
"74 0 CURVE SMOOTH",
"109 0 OFFCURVE",
"140 26 OFFCURVE",
"148 61 CURVE SMOOTH",
"195 282 LINE SMOOTH",
"233 462 OFFCURVE",
"343 551 OFFCURVE",
"475 581 CURVE SMOOTH",
"522 592 OFFCURVE",
"546 619 OFFCURVE",
"548 657 CURVE SMOOTH",
"550 695 OFFCURVE",
"519 719 OFFCURVE",
"469 706 CURVE SMOOTH",
"407 690 OFFCURVE",
"336 651 OFFCURVE",
"260 562 CURVE SMOOTH",
"257 559 OFFCURVE",
"254 560 OFFCURVE",
"254 564 CURVE SMOOTH"
);
}
);
width = 495.119;
}
);
},
{
glyphname = U.ss01;
lastChange = "2013-12-18 08:32:10 +0400";
layers = (
{
layerId = "4FD7A5AB-3C0B-49D1-A419-889C157412FC";
name = Bold;
paths = (
{
closed = 1;
nodes = (
"511 278 LINE SMOOTH",
"492 191 OFFCURVE",
"404 110 OFFCURVE",
"298 110 CURVE SMOOTH",
"201 110 OFFCURVE",
"177 191 OFFCURVE",
"196 278 CURVE SMOOTH",
"272 639 LINE SMOOTH",
"280 674 OFFCURVE",
"260 700 OFFCURVE",
"226 700 CURVE SMOOTH",
"191 700 OFFCURVE",
"160 674 OFFCURVE",
"152 639 CURVE SMOOTH",
"76 278 LINE SMOOTH",
"41 114 OFFCURVE",
"109 -10 OFFCURVE",
"273 -10 CURVE SMOOTH",
"338 -10 OFFCURVE",
"402 18 OFFCURVE",
"461 70 CURVE SMOOTH",
"464 73 OFFCURVE",
"467 72 OFFCURVE",
"466 68 CURVE SMOOTH",
"465 61 LINE SMOOTH",
"457 26 OFFCURVE",
"477 0 OFFCURVE",
"512 0 CURVE SMOOTH",
"547 0 OFFCURVE",
"577 26 OFFCURVE",
"585 61 CURVE SMOOTH",
"707 639 LINE SMOOTH",
"715 674 OFFCURVE",
"695 700 OFFCURVE",
"660 700 CURVE SMOOTH",
"625 700 OFFCURVE",
"595 674 OFFCURVE",
"587 639 CURVE SMOOTH"
);
}
);
width = 725;
}
);
},
{
glyphname = W.ss01;
lastChange = "2013-12-18 08:32:10 +0400";
layers = (
{
layerId = "4FD7A5AB-3C0B-49D1-A419-889C157412FC";
name = Bold;
paths = (
{
closed = 1;
nodes = (
"855 278 LINE SMOOTH",
"836 191 OFFCURVE",
"770 120 OFFCURVE",
"684 120 CURVE SMOOTH",
"597 120 OFFCURVE",
"561 191 OFFCURVE",
"580 278 CURVE SMOOTH",
"657 640 LINE",
"657 641 LINE SMOOTH",
"663 676 OFFCURVE",
"644 701 OFFCURVE",
"611 701 CURVE SMOOTH",
"575 701 OFFCURVE",
"544 675 OFFCURVE",
"537 640 CURVE SMOOTH",
"460 278 LINE SMOOTH",
"441 191 OFFCURVE",
"375 120 OFFCURVE",
"289 120 CURVE SMOOTH",
"202 120 OFFCURVE",
"166 191 OFFCURVE",
"185 278 CURVE SMOOTH",
"262 640 LINE SMOOTH",
"269 675 OFFCURVE",
"250 701 OFFCURVE",
"216 701 CURVE SMOOTH",
"181 701 OFFCURVE",
"149 675 OFFCURVE",
"142 640 CURVE SMOOTH",
"65 278 LINE SMOOTH",
"32 124 OFFCURVE",
"109 0 OFFCURVE",
"263 0 CURVE SMOOTH",
"343 0 OFFCURVE",
"430 44 OFFCURVE",
"479 100 CURVE SMOOTH",
"481 103 OFFCURVE",
"483 103 OFFCURVE",
"485 100 CURVE SMOOTH",
"511 44 OFFCURVE",
"577 0 OFFCURVE",
"658 0 CURVE SMOOTH",
"811 0 OFFCURVE",
"942 124 OFFCURVE",
"975 278 CURVE SMOOTH",
"1052 640 LINE SMOOTH",
"1059 675 OFFCURVE",
"1040 701 OFFCURVE",
"1005 701 CURVE SMOOTH",
"970 701 OFFCURVE",
"939 675 OFFCURVE",
"932 640 CURVE SMOOTH"
);
}
);
width = 1070;
}
);
},
{
glyphname = a;
lastChange = "2013-12-18 08:32:10 +0400";
layers = (
{
layerId = "4FD7A5AB-3C0B-49D1-A419-889C157412FC";
name = Bold;
paths = (
{
closed = 1;
nodes = (
"642 110 OFFCURVE",
"616 119 OFFCURVE",
"592 111 CURVE SMOOTH",
"558 101 OFFCURVE",
"539 119 OFFCURVE",
"554 193 CURVE SMOOTH",
"609 454 LINE SMOOTH",
"616 489 OFFCURVE",
"592 515 OFFCURVE",
"558 515 CURVE SMOOTH",
"520 515 OFFCURVE",
"498 493 OFFCURVE",
"489 456 CURVE SMOOTH",
"488 453 OFFCURVE",
"485 451 OFFCURVE",
"482 455 CURVE SMOOTH",
"449 501 OFFCURVE",
"400 525 OFFCURVE",
"327 525 CURVE SMOOTH",
"178 525 OFFCURVE",
"47 405 OFFCURVE",
"31 257 CURVE SMOOTH",
"16 109 OFFCURVE",
"121 -10 OFFCURVE",
"270 -10 CURVE SMOOTH",
"330 -10 OFFCURVE",
"387 12 OFFCURVE",
"426 64 CURVE SMOOTH",
"428 68 OFFCURVE",
"431 67 OFFCURVE",
"432 63 CURVE SMOOTH",
"455 9 OFFCURVE",
"502 -10 OFFCURVE",
"547 -10 CURVE SMOOTH",
"577 -10 OFFCURVE",
"600 -3 OFFCURVE",
"621 8 CURVE SMOOTH",
"653 25 OFFCURVE",
"665 51 OFFCURVE",
"653 82 CURVE SMOOTH"
);
},
{
closed = 1;
nodes = (
"202 110 OFFCURVE",
"143 174 OFFCURVE",
"151 257 CURVE SMOOTH",
"160 341 OFFCURVE",
"233 405 OFFCURVE",
"314 405 CURVE SMOOTH",
"395 405 OFFCURVE",
"454 341 OFFCURVE",
"445 257 CURVE SMOOTH",
"437 174 OFFCURVE",
"364 110 OFFCURVE",
"283 110 CURVE SMOOTH"
);
}
);
width = 712.985;
}
);
leftKerningGroup = a;
rightKerningGroup = a;
unicode = 0061;
},
{
glyphname = ae;
lastChange = "2013-12-18 08:32:10 +0400";
layers = (
{
anchors = (
{
name = bottom;
position = "{714, 15}";
},
{
name = ogonek;
position = "{944, 24}";
},
{
name = top;
position = "{818, 500}";
}
);
layerId = "4FD7A5AB-3C0B-49D1-A419-889C157412FC";
leftMetricsKey = a;
rightMetricsKey = e;
name = Bold;
paths = (
{
closed = 1;
nodes = (
"955 159 OFFCURVE",
"1006 302 OFFCURVE",
"1006 367 CURVE SMOOTH",
"1006 421 OFFCURVE",
"970 525 OFFCURVE",
"798 525 CURVE SMOOTH",
"727 525 OFFCURVE",
"664 498 OFFCURVE",
"618 452 CURVE SMOOTH",
"614 448 OFFCURVE",
"609 448 OFFCURVE",
"611 455 CURVE SMOOTH",
"621 489 OFFCURVE",
"592 515 OFFCURVE",
"558 515 CURVE SMOOTH",
"520 515 OFFCURVE",
"498 493 OFFCURVE",
"489 456 CURVE",
"488 453 OFFCURVE",
"485 451 OFFCURVE",
"482 455 CURVE SMOOTH",
"449 501 OFFCURVE",
"400 525 OFFCURVE",
"327 525 CURVE SMOOTH",
"178 525 OFFCURVE",
"47 405 OFFCURVE",
"31 257 CURVE SMOOTH",
"16 109 OFFCURVE",
"121 -10 OFFCURVE",
"270 -10 CURVE SMOOTH",
"318 -10 OFFCURVE",
"364 4 OFFCURVE",
"400 36 CURVE SMOOTH",
"403 38 OFFCURVE",
"405 37 OFFCURVE",
"406 34 CURVE SMOOTH",
"411 13 OFFCURVE",
"428 0 OFFCURVE",
"453 0 CURVE SMOOTH",
"488 0 OFFCURVE",
"519 26 OFFCURVE",
"526 61 CURVE",
"527 63 LINE",
"535 100 LINE SMOOTH",
"536 104 OFFCURVE",
"539 105 OFFCURVE",
"541 101 CURVE SMOOTH",
"584 22 OFFCURVE",
"670 -10 OFFCURVE",
"749 -10 CURVE SMOOTH",
"814 -10 OFFCURVE",
"869 12 OFFCURVE",
"907 36 CURVE SMOOTH",
"941 57 OFFCURVE",
"949 92 OFFCURVE",
"928 120 CURVE SMOOTH",
"911 142 OFFCURVE",
"875 145 OFFCURVE",
"844 126 CURVE SMOOTH",
"821 112 OFFCURVE",
"787 100 OFFCURVE",
"749 100 CURVE SMOOTH",
"701 100 OFFCURVE",
"654 119 OFFCURVE",
"634 169 CURVE",
"632 172 OFFCURVE",
"634 174 OFFCURVE",
"638 174 CURVE"
);
},
{
closed = 1;
nodes = (
"652 356 OFFCURVE",
"710 411 OFFCURVE",
"795 418 CURVE SMOOTH",
"845 422 OFFCURVE",
"896 404 OFFCURVE",
"896 363 CURVE SMOOTH",
"896 329 OFFCURVE",
"852 257 OFFCURVE",
"636 276 CURVE",
"632 277 OFFCURVE",
"631 279 OFFCURVE",
"632 282 CURVE"
);
},
{
closed = 1;
nodes = (
"437 174 OFFCURVE",
"364 110 OFFCURVE",
"283 110 CURVE SMOOTH",
"202 110 OFFCURVE",
"143 174 OFFCURVE",
"151 257 CURVE SMOOTH",
"160 341 OFFCURVE",
"233 405 OFFCURVE",
"314 405 CURVE SMOOTH",
"395 405 OFFCURVE",
"454 341 OFFCURVE",
"445 257 CURVE SMOOTH"
);
}
);
width = 1041;
}
);
leftMetricsKey = a;
rightMetricsKey = e;
unicode = 00E6;
},
{
glyphname = b;
lastChange = "2013-12-18 08:32:10 +0400";
layers = (
{
layerId = "4FD7A5AB-3C0B-49D1-A419-889C157412FC";
name = Bold;
paths = (
{
closed = 1;
nodes = (
"320 525 OFFCURVE",
"266 508 OFFCURVE",
"233 474 CURVE SMOOTH",
"229 470 OFFCURVE",
"226 470 OFFCURVE",
"227 475 CURVE SMOOTH",
"271 668 LINE SMOOTH",
"279 702 OFFCURVE",
"259 733 OFFCURVE",
"225 740 CURVE SMOOTH",
"191 747 OFFCURVE",
"161 727 OFFCURVE",
"154 693 CURVE SMOOTH",
"21 72 LINE SMOOTH",
"14 38 OFFCURVE",
"33 7 OFFCURVE",
"67 0 CURVE SMOOTH",
"101 -7 OFFCURVE",
"131 15 OFFCURVE",
"138 47 CURVE SMOOTH",
"141 55 LINE SMOOTH",
"141 60 OFFCURVE",
"144 60 OFFCURVE",
"147 57 CURVE SMOOTH",
"183 11 OFFCURVE",
"241 -10 OFFCURVE",
"303 -10 CURVE SMOOTH",
"452 -10 OFFCURVE",
"583 109 OFFCURVE",
"598 257 CURVE SMOOTH",
"614 405 OFFCURVE",
"509 525 OFFCURVE",
"360 525 CURVE SMOOTH"
);
},
{
closed = 1;
nodes = (
"470 174 OFFCURVE",
"397 110 OFFCURVE",
"316 110 CURVE SMOOTH",
"235 110 OFFCURVE",
"176 174 OFFCURVE",
"184 257 CURVE SMOOTH",
"193 341 OFFCURVE",
"266 405 OFFCURVE",
"347 405 CURVE SMOOTH",
"428 405 OFFCURVE",
"487 341 OFFCURVE",
"478 257 CURVE SMOOTH"
);
}
);
width = 629.61;
}
);
leftKerningGroup = b;
rightKerningGroup = b;
unicode = 0062;
},
{
glyphname = c;
lastChange = "2013-12-18 08:32:10 +0400";
layers = (
{
anchors = (
{
name = bottom;
position = "{140, 0}";
},
{
name = top;
position = "{286, 515}";
}
);
layerId = "4FD7A5AB-3C0B-49D1-A419-889C157412FC";
name = Bold;
paths = (
{
closed = 1;
nodes = (
"441 505 OFFCURVE",
"379 525 OFFCURVE",
"324 525 CURVE SMOOTH",
"182 525 OFFCURVE",
"48 413 OFFCURVE",
"31 257 CURVE SMOOTH",
"14 101 OFFCURVE",
"136 -10 OFFCURVE",
"258 -10 CURVE SMOOTH",
"327 -10 OFFCURVE",
"383 9 OFFCURVE",
"418 31 CURVE SMOOTH",
"448 50 OFFCURVE",
"461 85 OFFCURVE",
"439 116 CURVE SMOOTH",
"419 145 OFFCURVE",
"391 147 OFFCURVE",
"360 131 CURVE SMOOTH",
"339 120 OFFCURVE",
"322 110 OFFCURVE",
"282 110 CURVE SMOOTH",
"195 110 OFFCURVE",
"139 176 OFFCURVE",
"151 257 CURVE SMOOTH",
"165 348 OFFCURVE",
"237 405 OFFCURVE",
"320 405 CURVE SMOOTH",
"359 405 OFFCURVE",
"378 389 OFFCURVE",
"391 382 CURVE SMOOTH",
"422 365 OFFCURVE",
"459 366 OFFCURVE",
"481 395 CURVE SMOOTH",
"496 415 OFFCURVE",
"497 455 OFFCURVE",
"470 479 CURVE SMOOTH"
);
}
);
width = 511.476;
}
);
leftKerningGroup = c;
rightKerningGroup = c;
unicode = 0063;
},
{
glyphname = d;
lastChange = "2013-12-18 08:32:10 +0400";
layers = (
{
anchors = (
{
name = center;
position = "{324, 258}";
},
{
name = topright;
position = "{681, 515}";
}
);
layerId = "4FD7A5AB-3C0B-49D1-A419-889C157412FC";
name = Bold;
paths = (
{
closed = 1;
nodes = (
"642 110 OFFCURVE",
"616 119 OFFCURVE",
"592 111 CURVE SMOOTH",
"558 101 OFFCURVE",
"540 119 OFFCURVE",
"554 193 CURVE SMOOTH",
"657 679 LINE SMOOTH",
"664 714 OFFCURVE",
"640 740 OFFCURVE",
"606 740 CURVE SMOOTH",
"571 740 OFFCURVE",
"546 719 OFFCURVE",
"537 679 CURVE SMOOTH",
"489 456 LINE SMOOTH",
"488 452 OFFCURVE",
"485 451 OFFCURVE",
"482 455 CURVE SMOOTH",
"449 501 OFFCURVE",
"400 525 OFFCURVE",
"327 525 CURVE SMOOTH",
"178 525 OFFCURVE",
"47 405 OFFCURVE",
"31 257 CURVE SMOOTH",
"16 109 OFFCURVE",
"121 -10 OFFCURVE",
"270 -10 CURVE SMOOTH",
"330 -10 OFFCURVE",
"387 12 OFFCURVE",
"426 64 CURVE SMOOTH",
"428 68 OFFCURVE",
"431 67 OFFCURVE",
"432 63 CURVE SMOOTH",
"455 9 OFFCURVE",
"492 -10 OFFCURVE",
"547 -10 CURVE SMOOTH",
"577 -10 OFFCURVE",
"600 -3 OFFCURVE",
"621 8 CURVE SMOOTH",
"653 25 OFFCURVE",
"665 51 OFFCURVE",
"653 82 CURVE SMOOTH"
);
},
{
closed = 1;
nodes = (
"202 110 OFFCURVE",
"143 174 OFFCURVE",
"151 257 CURVE SMOOTH",
"160 341 OFFCURVE",
"233 405 OFFCURVE",
"314 405 CURVE SMOOTH",
"395 405 OFFCURVE",
"454 341 OFFCURVE",
"445 257 CURVE SMOOTH",
"437 174 OFFCURVE",
"364 110 OFFCURVE",
"283 110 CURVE SMOOTH"
);
}
);
width = 693.638;
}
);
leftKerningGroup = c;
rightKerningGroup = d;
unicode = 0064;
},
{
glyphname = eth;
lastChange = "2013-12-18 08:32:10 +0400";
layers = (
{
layerId = "4FD7A5AB-3C0B-49D1-A419-889C157412FC";
name = Bold;
paths = (
{
closed = 1;
nodes = (
"469 553 LINE SMOOTH",
"498 563 OFFCURVE",
"513 591 OFFCURVE",
"506 618 CURVE SMOOTH",
"500 645 OFFCURVE",
"473 657 OFFCURVE",
"444 646 CURVE SMOOTH",
"390 626 LINE SMOOTH",
"387 625 OFFCURVE",
"385 626 OFFCURVE",
"384 627 CURVE SMOOTH",
"350 657 OFFCURVE",
"308 682 OFFCURVE",
"255 698 CURVE SMOOTH",
"215 710 OFFCURVE",
"177 689 OFFCURVE",
"168 655 CURVE",
"168 654 LINE",
"159 620 OFFCURVE",
"177 594 OFFCURVE",
"211 583 CURVE SMOOTH",
"219 581 OFFCURVE",
"226 578 OFFCURVE",
"233 574 CURVE SMOOTH",
"237 573 OFFCURVE",
"236 569 OFFCURVE",
"232 568 CURVE SMOOTH",
"203 557 LINE SMOOTH",
"175 547 OFFCURVE",
"159 519 OFFCURVE",
"166 492 CURVE SMOOTH",
"173 465 OFFCURVE",
"199 453 OFFCURVE",
"229 464 CURVE SMOOTH",
"324 499 LINE SMOOTH",
"327 500 OFFCURVE",
"329 500 OFFCURVE",
"331 498 CURVE SMOOTH",
"356 467 OFFCURVE",
"375 432 OFFCURVE",
"385 398 CURVE SMOOTH",
"388 391 OFFCURVE",
"381 386 OFFCURVE",
"377 392 CURVE",
"359 413 OFFCURVE",
"331 434 OFFCURVE",
"274 434 CURVE SMOOTH",
"174 434 OFFCURVE",
"55 335 OFFCURVE",
"40 212 CURVE SMOOTH",
"24 89 OFFCURVE",
"112 -10 OFFCURVE",
"235 -10 CURVE SMOOTH",
"358 -10 OFFCURVE",
"457 89 OFFCURVE",
"486 212 CURVE SMOOTH",
"498 265 OFFCURVE",
"514 416 OFFCURVE",
"450 540 CURVE SMOOTH",
"448 543 OFFCURVE",
"450 546 OFFCURVE",
"453 547 CURVE SMOOTH"
);
},
{
closed = 1;
nodes = (
"193 110 OFFCURVE",
"153 155 OFFCURVE",
"160 212 CURVE SMOOTH",
"167 269 OFFCURVE",
"218 314 OFFCURVE",
"275 314 CURVE SMOOTH",
"333 314 OFFCURVE",
"373 269 OFFCURVE",
"366 212 CURVE SMOOTH",
"359 155 OFFCURVE",
"308 110 OFFCURVE",
"250 110 CURVE SMOOTH"
);
}
);
width = 538;
}
);
unicode = 00F0;
},
{
glyphname = dcroat;
lastChange = "2013-12-18 08:32:10 +0400";
layers = (
{
anchors = (
{
name = _top;
position = "{476, 485}";
},
{
name = center;
position = "{324, 258}";
},
{
name = topright;
position = "{681, 515}";
}
);
layerId = "4FD7A5AB-3C0B-49D1-A419-889C157412FC";
name = Bold;
paths = (
{
closed = 1;
nodes = (
"659 659 LINE SMOOTH",
"655 659 OFFCURVE",
"653 661 OFFCURVE",
"654 664 CURVE SMOOTH",
"657 679 LINE SMOOTH",
"664 714 OFFCURVE",
"640 740 OFFCURVE",
"606 740 CURVE SMOOTH",
"571 740 OFFCURVE",
"546 719 OFFCURVE",
"537 679 CURVE SMOOTH",
"534 663 LINE SMOOTH",
"533 660 OFFCURVE",
"531 659 OFFCURVE",
"528 659 CURVE SMOOTH",
"433 659 LINE SMOOTH",
"401 659 OFFCURVE",
"383 643 OFFCURVE",
"383 615 CURVE SMOOTH",
"383 586 OFFCURVE",
"401 570 OFFCURVE",
"433 570 CURVE SMOOTH",
"508 570 LINE SMOOTH",
"511 570 OFFCURVE",
"513 568 OFFCURVE",
"512 565 CURVE SMOOTH",
"489 456 LINE SMOOTH",
"488 452 OFFCURVE",
"485 451 OFFCURVE",
"482 455 CURVE SMOOTH",
"449 501 OFFCURVE",
"400 525 OFFCURVE",
"327 525 CURVE SMOOTH",
"178 525 OFFCURVE",
"47 405 OFFCURVE",
"31 257 CURVE SMOOTH",
"16 109 OFFCURVE",
"121 -10 OFFCURVE",
"270 -10 CURVE SMOOTH",
"330 -10 OFFCURVE",
"387 12 OFFCURVE",
"426 64 CURVE",
"428 68 OFFCURVE",
"431 67 OFFCURVE",
"432 63 CURVE",
"455 9 OFFCURVE",
"492 -10 OFFCURVE",
"547 -10 CURVE SMOOTH",
"577 -10 OFFCURVE",
"600 -3 OFFCURVE",
"621 8 CURVE SMOOTH",
"653 25 OFFCURVE",
"665 51 OFFCURVE",
"653 82 CURVE SMOOTH",
"642 110 OFFCURVE",
"616 119 OFFCURVE",
"592 111 CURVE",
"558 101 OFFCURVE",
"540 119 OFFCURVE",
"554 193 CURVE SMOOTH",
"633 566 LINE SMOOTH",
"634 569 OFFCURVE",
"635 570 OFFCURVE",
"638 570 CURVE SMOOTH",
"675 570 LINE SMOOTH",
"708 570 OFFCURVE",
"725 586 OFFCURVE",
"725 615 CURVE SMOOTH",
"725 643 OFFCURVE",
"707 659 OFFCURVE",
"675 659 CURVE SMOOTH"
);
},
{
closed = 1;
nodes = (
"437 174 OFFCURVE",
"364 110 OFFCURVE",
"283 110 CURVE SMOOTH",
"202 110 OFFCURVE",
"143 174 OFFCURVE",
"151 257 CURVE SMOOTH",
"160 341 OFFCURVE",
"233 405 OFFCURVE",
"314 405 CURVE SMOOTH",
"395 405 OFFCURVE",
"454 341 OFFCURVE",
"445 257 CURVE SMOOTH"
);
}
);
width = 760;
}
);
unicode = 0111;
},
{
glyphname = e;
lastChange = "2013-12-18 08:32:10 +0400";
layers = (
{
anchors = (
{
name = bottom;
position = "{227, 15}";
},
{
name = ogonek;
position = "{457, 24}";
},
{
name = top;
position = "{331, 500}";
}
);
layerId = "4FD7A5AB-3C0B-49D1-A419-889C157412FC";
name = Bold;
paths = (
{
closed = 1;
nodes = (
"519 421 OFFCURVE",
"483 525 OFFCURVE",
"311 525 CURVE SMOOTH",
"152 525 OFFCURVE",
"32 394 OFFCURVE",
"27 234 CURVE SMOOTH",
"19 57 OFFCURVE",
"148 -10 OFFCURVE",
"262 -10 CURVE SMOOTH",
"327 -10 OFFCURVE",
"382 12 OFFCURVE",
"420 36 CURVE SMOOTH",
"454 57 OFFCURVE",
"462 92 OFFCURVE",
"441 120 CURVE SMOOTH",
"424 142 OFFCURVE",
"388 145 OFFCURVE",
"357 126 CURVE SMOOTH",
"334 112 OFFCURVE",
"300 100 OFFCURVE",
"262 100 CURVE SMOOTH",
"214 100 OFFCURVE",
"167 119 OFFCURVE",
"147 169 CURVE SMOOTH",
"145 172 OFFCURVE",
"147 174 OFFCURVE",
"151 174 CURVE SMOOTH",
"468 159 OFFCURVE",
"519 302 OFFCURVE",
"519 367 CURVE SMOOTH"
);
},
{
closed = 1;
nodes = (
"358 422 OFFCURVE",
"409 404 OFFCURVE",
"409 363 CURVE SMOOTH",
"409 329 OFFCURVE",
"365 257 OFFCURVE",
"149 276 CURVE SMOOTH",
"145 277 OFFCURVE",
"144 279 OFFCURVE",
"145 282 CURVE SMOOTH",
"165 356 OFFCURVE",
"223 411 OFFCURVE",
"308 418 CURVE SMOOTH"
);
}
);
width = 554;
}
);
leftKerningGroup = c;
rightKerningGroup = e;
unicode = 0065;
},
{
glyphname = f;
lastChange = "2013-12-18 08:32:10 +0400";
layers = (
{
layerId = "4FD7A5AB-3C0B-49D1-A419-889C157412FC";
name = Bold;
paths = (
{
closed = 1;
nodes = (
"49 3 OFFCURVE",
"70 102 OFFCURVE",
"135 400 CURVE",
"122 400 LINE SMOOTH",
"84 400 OFFCURVE",
"54 433 OFFCURVE",
"66 472 CURVE",
"73 500 OFFCURVE",
"93 515 OFFCURVE",
"122 515 CURVE SMOOTH",
"160 515 LINE",
"191 648 OFFCURVE",
"242 728 OFFCURVE",
"358 728 CURVE SMOOTH",
"386 728 OFFCURVE",
"409 721 OFFCURVE",
"427 713 CURVE SMOOTH",
"465 696 OFFCURVE",
"473 665 OFFCURVE",
"460 635 CURVE SMOOTH",
"446 601 OFFCURVE",
"414 596 OFFCURVE",
"384 605 CURVE SMOOTH",
"370 609 OFFCURVE",
"353 615 OFFCURVE",
"346 615 CURVE",
"311 621 OFFCURVE",
"294 578 OFFCURVE",
"277 515 CURVE",
"325 515 LINE SMOOTH",
"364 515 OFFCURVE",
"393 478 OFFCURVE",
"382 440 CURVE",
"376 415 OFFCURVE",
"341 400 OFFCURVE",
"325 400 CURVE SMOOTH",
"250 400 LINE",
"191 111 OFFCURVE",
"165 -4 OFFCURVE",
"146 -58 CURVE SMOOTH",
"118 -147 OFFCURVE",
"69 -200 OFFCURVE",
"-35 -200 CURVE SMOOTH",
"-56 -200 OFFCURVE",
"-102 -190 OFFCURVE",
"-101 -141 CURVE SMOOTH",
"-100 -92 OFFCURVE",
"-57 -81 OFFCURVE",
"-35 -81 CURVE SMOOTH",
"8 -81 OFFCURVE",
"25 -62 OFFCURVE",
"37 -32 CURVE"
);
}
);
width = 435.802;
}
);
leftKerningGroup = f;
rightKerningGroup = f;
unicode = 0066;
},
{
glyphname = g;
lastChange = "2013-12-18 08:32:10 +0400";
layers = (
{
anchors = (
{
name = top;
position = "{377, 515}";
}
);
layerId = "4FD7A5AB-3C0B-49D1-A419-889C157412FC";
name = Bold;
paths = (
{
closed = 1;
nodes = (
"405 59 LINE",
"399 33 LINE SMOOTH",
"384 -38 OFFCURVE",
"317 -80 OFFCURVE",
"238 -80 CURVE SMOOTH",
"192 -80 OFFCURVE",
"160 -72 OFFCURVE",
"140 -64 CURVE SMOOTH",
"110 -52 OFFCURVE",
"71 -52 OFFCURVE",
"52 -90 CURVE SMOOTH",
"32 -130 OFFCURVE",
"51 -163 OFFCURVE",
"86 -179 CURVE SMOOTH",
"117 -193 OFFCURVE",
"181 -200 OFFCURVE",
"213 -200 CURVE SMOOTH",
"336 -200 OFFCURVE",
"486 -125 OFFCURVE",
"523 49 CURVE SMOOTH",
"609 454 LINE SMOOTH",
"616 489 OFFCURVE",
"597 515 OFFCURVE",
"562 515 CURVE SMOOTH",
"527 515 OFFCURVE",
"496 489 OFFCURVE",
"489 454 CURVE"
);
},
{
closed = 1;
nodes = (
"437 174 OFFCURVE",
"364 110 OFFCURVE",
"283 110 CURVE",
"202 110 OFFCURVE",
"143 174 OFFCURVE",
"151 257 CURVE",
"160 341 OFFCURVE",
"233 405 OFFCURVE",
"314 405 CURVE",
"395 405 OFFCURVE",
"454 341 OFFCURVE",
"445 257 CURVE"
);
},
{
closed = 1;
nodes = (
"581 405 OFFCURVE",
"476 525 OFFCURVE",
"327 525 CURVE",
"178 525 OFFCURVE",
"47 405 OFFCURVE",
"31 257 CURVE",
"16 109 OFFCURVE",
"121 -10 OFFCURVE",
"270 -10 CURVE",
"419 -10 OFFCURVE",
"550 109 OFFCURVE",
"565 257 CURVE"
);
}
);
width = 635.859;
}
);
leftKerningGroup = g;
rightKerningGroup = g;
unicode = 0067;
},
{
glyphname = h;
lastChange = "2013-12-18 08:32:10 +0400";
layers = (
{
anchors = (
{
name = center;
position = "{284, 258}";
},
{
name = top;
position = "{338, 515}";
}
);
layerId = "4FD7A5AB-3C0B-49D1-A419-889C157412FC";
name = Bold;
paths = (
{
closed = 1;
nodes = (
"583 110 OFFCURVE",
"557 119 OFFCURVE",
"533 111 CURVE SMOOTH",
"490 98 OFFCURVE",
"468 102 OFFCURVE",
"500 193 CURVE SMOOTH",
"512 227 OFFCURVE",
"527 286 OFFCURVE",
"530 295 CURVE",
"559 418 OFFCURVE",
"535 525 OFFCURVE",
"402 525 CURVE SMOOTH",
"314 525 OFFCURVE",
"240 459 OFFCURVE",
"233 449 CURVE SMOOTH",
"227 441 OFFCURVE",
"223 442 OFFCURVE",
"225 450 CURVE",
"273 679 LINE SMOOTH",
"280 714 OFFCURVE",
"261 740 OFFCURVE",
"226 740 CURVE SMOOTH",
"191 740 OFFCURVE",
"160 714 OFFCURVE",
"153 679 CURVE SMOOTH",
"22 61 LINE SMOOTH",
"15 26 OFFCURVE",
"34 0 OFFCURVE",
"69 0 CURVE SMOOTH",
"104 0 OFFCURVE",
"135 26 OFFCURVE",
"142 61 CURVE SMOOTH",
"186 267 LINE SMOOTH",
"203 344 OFFCURVE",
"257 405 OFFCURVE",
"334 405 CURVE SMOOTH",
"404 405 OFFCURVE",
"418 353 OFFCURVE",
"406 286 CURVE SMOOTH",
"400 251 OFFCURVE",
"382 208 OFFCURVE",
"371 149 CURVE SMOOTH",
"355 61 OFFCURVE",
"394 -10 OFFCURVE",
"478 -10 CURVE SMOOTH",
"508 -10 OFFCURVE",
"541 -3 OFFCURVE",
"562 8 CURVE SMOOTH",
"594 25 OFFCURVE",
"606 51 OFFCURVE",
"594 82 CURVE SMOOTH"
);
}
);
width = 628.565;
}
);
leftKerningGroup = b;
rightKerningGroup = h;
unicode = 0068;
},
{
glyphname = hbar;
lastChange = "2013-12-18 08:32:10 +0400";
layers = (
{
anchors = (
{
name = center;
position = "{300, 258}";
},
{
name = top;
position = "{300, 515}";
}
);
layerId = "4FD7A5AB-3C0B-49D1-A419-889C157412FC";
name = Bold;
paths = (
{
closed = 1;
nodes = (
"583 110 OFFCURVE",
"557 119 OFFCURVE",
"533 111 CURVE SMOOTH",
"490 98 OFFCURVE",
"468 102 OFFCURVE",
"500 193 CURVE SMOOTH",
"512 227 OFFCURVE",
"527 286 OFFCURVE",
"530 295 CURVE",
"559 418 OFFCURVE",
"535 525 OFFCURVE",
"402 525 CURVE SMOOTH",
"314 525 OFFCURVE",
"240 459 OFFCURVE",
"233 449 CURVE SMOOTH",
"227 441 OFFCURVE",
"223 442 OFFCURVE",
"225 450 CURVE",
"246 553 LINE SMOOTH",
"247 556 OFFCURVE",
"249 557 OFFCURVE",
"252 557 CURVE SMOOTH",
"335 557 LINE SMOOTH",
"365 557 OFFCURVE",
"386 578 OFFCURVE",
"386 606 CURVE SMOOTH",
"386 636 OFFCURVE",
"365 657 OFFCURVE",
"335 657 CURVE SMOOTH",
"274 657 LINE SMOOTH",
"270 657 OFFCURVE",
"269 659 OFFCURVE",
"270 662 CURVE SMOOTH",
"273 679 LINE SMOOTH",
"280 714 OFFCURVE",
"261 740 OFFCURVE",
"226 740 CURVE SMOOTH",
"191 740 OFFCURVE",
"160 714 OFFCURVE",
"153 679 CURVE SMOOTH",
"149 661 LINE SMOOTH",
"149 658 OFFCURVE",
"147 657 OFFCURVE",
"144 657 CURVE SMOOTH",
"109 657 LINE SMOOTH",
"79 657 OFFCURVE",
"58 636 OFFCURVE",
"58 608 CURVE SMOOTH",
"58 578 OFFCURVE",
"79 557 OFFCURVE",
"109 557 CURVE SMOOTH",
"122 557 LINE SMOOTH",
"125 557 OFFCURVE",
"127 555 OFFCURVE",
"126 552 CURVE SMOOTH",
"22 61 LINE SMOOTH",
"15 26 OFFCURVE",
"34 0 OFFCURVE",
"69 0 CURVE SMOOTH",
"104 0 OFFCURVE",
"135 26 OFFCURVE",
"142 61 CURVE SMOOTH",
"186 267 LINE SMOOTH",
"203 344 OFFCURVE",
"257 405 OFFCURVE",
"334 405 CURVE SMOOTH",
"404 405 OFFCURVE",
"418 353 OFFCURVE",
"406 286 CURVE SMOOTH",
"400 251 OFFCURVE",
"382 208 OFFCURVE",
"371 149 CURVE SMOOTH",
"355 61 OFFCURVE",
"394 -10 OFFCURVE",
"478 -10 CURVE SMOOTH",
"508 -10 OFFCURVE",
"541 -3 OFFCURVE",
"562 8 CURVE SMOOTH",
"594 25 OFFCURVE",
"606 51 OFFCURVE",
"594 82 CURVE SMOOTH"
);
}
);
width = 596;
}
);
unicode = 0127;
},
{
glyphname = i;
lastChange = "2013-12-18 08:32:10 +0400";
layers = (
{
components = (
{
name = dotlessi;
transform = "{1, 0, 0, 1, 0, 0}";
}
);
layerId = "4FD7A5AB-3C0B-49D1-A419-889C157412FC";
name = Bold;
paths = (
{
closed = 1;
nodes = (
"140 650 LINE SMOOTH",
"133 617 OFFCURVE",
"147 600 OFFCURVE",
"180 600 CURVE SMOOTH",
"206 600 LINE SMOOTH",
"239 600 OFFCURVE",
"260 618 OFFCURVE",
"266 650 CURVE SMOOTH",
"270 669 LINE SMOOTH",
"277 702 OFFCURVE",
"264 719 OFFCURVE",
"231 719 CURVE SMOOTH",
"205 719 LINE SMOOTH",
"173 719 OFFCURVE",
"151 701 OFFCURVE",
"144 669 CURVE SMOOTH"
);
}
);
width = 291.837;
}
);
leftKerningGroup = i;
rightKerningGroup = i;
unicode = 0069;
},
{
glyphname = dotlessi;
lastChange = "2013-12-18 08:32:10 +0400";
layers = (
{
layerId = "4FD7A5AB-3C0B-49D1-A419-889C157412FC";
name = Bold;
paths = (
{
closed = 1;
nodes = (
"251 110 OFFCURVE",
"225 119 OFFCURVE",
"201 111 CURVE SMOOTH",
"167 101 OFFCURVE",
"146 113 OFFCURVE",
"163 193 CURVE SMOOTH",
"220 454 LINE SMOOTH",
"228 489 OFFCURVE",
"203 515 OFFCURVE",
"169 515 CURVE SMOOTH",
"134 515 OFFCURVE",
"109 494 OFFCURVE",
"100 454 CURVE SMOOTH",
"34 149 LINE SMOOTH",
"15 61 OFFCURVE",
"62 -10 OFFCURVE",
"146 -10 CURVE SMOOTH",
"176 -10 OFFCURVE",
"209 -3 OFFCURVE",
"230 8 CURVE SMOOTH",
"262 25 OFFCURVE",
"274 51 OFFCURVE",
"262 82 CURVE SMOOTH"
);
}
);
width = 291.837;
}
);
unicode = 0131;
},
{
glyphname = j;
lastChange = "2013-12-18 08:32:10 +0400";
layers = (
{
components = (
{
name = dotlessj;
transform = "{1, 0, 0, 1, 0, 0}";
}
);
layerId = "4FD7A5AB-3C0B-49D1-A419-889C157412FC";
name = Bold;
paths = (
{
closed = 1;
nodes = (
"220 650 LINE SMOOTH",
"213 617 OFFCURVE",
"227 600 OFFCURVE",
"260 600 CURVE SMOOTH",
"286 600 LINE SMOOTH",
"319 600 OFFCURVE",
"340 618 OFFCURVE",
"346 650 CURVE SMOOTH",
"350 669 LINE SMOOTH",
"357 702 OFFCURVE",
"344 719 OFFCURVE",
"311 719 CURVE SMOOTH",
"285 719 LINE SMOOTH",
"253 719 OFFCURVE",
"231 701 OFFCURVE",
"224 669 CURVE SMOOTH"
);
}
);
width = 356.837;
}
);
leftKerningGroup = j;
rightKerningGroup = j;
unicode = 006A;
},
{
glyphname = dotlessj;
lastChange = "2013-12-18 08:32:10 +0400";
layers = (
{
layerId = "4FD7A5AB-3C0B-49D1-A419-889C157412FC";
name = Bold;
paths = (
{
closed = 1;
nodes = (
"93 -184 OFFCURVE",
"176 -143 OFFCURVE",
"204 -10 CURVE SMOOTH",
"303 454 LINE SMOOTH",
"310 489 OFFCURVE",
"291 515 OFFCURVE",
"256 515 CURVE SMOOTH",
"221 515 OFFCURVE",
"190 489 OFFCURVE",
"183 454 CURVE SMOOTH",
"91 25 LINE SMOOTH",
"82 -20 OFFCURVE",
"72 -59 OFFCURVE",
"21 -74 CURVE SMOOTH",
"-10 -83 OFFCURVE",
"-35 -100 OFFCURVE",
"-41 -129 CURVE SMOOTH",
"-44 -140 LINE SMOOTH",
"-51 -174 OFFCURVE",
"-29 -201 OFFCURVE",
"10 -196 CURVE SMOOTH"
);
}
);
width = 356.837;
}
);
unicode = 0237;
},
{
glyphname = k;
lastChange = "2013-12-18 08:32:10 +0400";
layers = (
{
anchors = (
{
name = bottom;
position = "{199, 0}";
}
);
layerId = "4FD7A5AB-3C0B-49D1-A419-889C157412FC";
name = Bold;
paths = (
{
closed = 1;
nodes = (
"342 277 LINE SMOOTH",
"339 282 OFFCURVE",
"340 287 OFFCURVE",
"346 291 CURVE SMOOTH",
"505 408 LINE SMOOTH",
"541 434 OFFCURVE",
"550 471 OFFCURVE",
"529 497 CURVE SMOOTH",
"510 521 OFFCURVE",
"478 522 OFFCURVE",
"448 500 CURVE SMOOTH",
"208 323 LINE SMOOTH",
"201 318 OFFCURVE",
"196 320 OFFCURVE",
"198 329 CURVE SMOOTH",
"272 679 LINE SMOOTH",
"279 714 OFFCURVE",
"260 740 OFFCURVE",
"225 740 CURVE SMOOTH",
"190 740 OFFCURVE",
"159 714 OFFCURVE",
"152 679 CURVE SMOOTH",
"21 61 LINE SMOOTH",
"13 26 OFFCURVE",
"33 0 OFFCURVE",
"68 0 CURVE SMOOTH",
"103 0 OFFCURVE",
"133 26 OFFCURVE",
"141 61 CURVE SMOOTH",
"159 146 LINE SMOOTH",
"160 152 OFFCURVE",
"163 155 OFFCURVE",
"168 159 CURVE SMOOTH",
"220 199 LINE SMOOTH",
"226 203 OFFCURVE",
"231 203 OFFCURVE",
"235 198 CURVE SMOOTH",
"361 21 LINE SMOOTH",
"377 -2 OFFCURVE",
"411 -6 OFFCURVE",
"441 15 CURVE",
"446 18 LINE",
"476 40 OFFCURVE",
"485 77 OFFCURVE",
"465 105 CURVE SMOOTH"
);
}
);
width = 540.157;
}
);
leftKerningGroup = b;
rightKerningGroup = k;
unicode = 006B;
},
{
glyphname = l;
lastChange = "2013-12-18 08:32:10 +0400";
layers = (
{
anchors = (
{
name = bottom;
position = "{61, 0}";
},
{
name = top;
position = "{170, 515}";
},
{
name = topright;
position = "{291, 515}";
}
);
layerId = "4FD7A5AB-3C0B-49D1-A419-889C157412FC";
name = Bold;
paths = (
{
closed = 1;
nodes = (
"250 110 OFFCURVE",
"224 119 OFFCURVE",
"200 111 CURVE SMOOTH",
"166 101 OFFCURVE",
"147 113 OFFCURVE",
"162 193 CURVE SMOOTH",
"265 679 LINE SMOOTH",
"272 714 OFFCURVE",
"248 740 OFFCURVE",
"214 740 CURVE SMOOTH",
"179 740 OFFCURVE",
"153 719 OFFCURVE",
"145 679 CURVE SMOOTH",
"33 149 LINE SMOOTH",
"17 61 OFFCURVE",
"61 -10 OFFCURVE",
"145 -10 CURVE SMOOTH",
"175 -10 OFFCURVE",
"208 -3 OFFCURVE",
"229 8 CURVE SMOOTH",
"261 25 OFFCURVE",
"273 51 OFFCURVE",
"261 82 CURVE SMOOTH"
);
}
);
width = 301.218;
}
);
leftKerningGroup = b;
rightKerningGroup = l;
unicode = 006C;
},
{
glyphname = lslash;
lastChange = "2013-12-18 08:32:10 +0400";
layers = (
{
anchors = (
{
name = bottom;
position = "{61, 0}";
},
{
name = top;
position = "{170, 515}";
},
{
name = topright;
position = "{291, 515}";
}
);
layerId = "4FD7A5AB-3C0B-49D1-A419-889C157412FC";
name = Bold;
paths = (
{
closed = 1;
nodes = (
"324 486 OFFCURVE",
"295 496 OFFCURVE",
"269 484 CURVE SMOOTH",
"226 465 LINE SMOOTH",
"221.991 462.992 OFFCURVE",
"220 465 OFFCURVE",
"220 469 CURVE SMOOTH",
"265 679 LINE SMOOTH",
"272 714 OFFCURVE",
"248 740 OFFCURVE",
"214 740 CURVE SMOOTH",
"179 740 OFFCURVE",
"153 719 OFFCURVE",
"145 679 CURVE SMOOTH",
"87 406 LINE SMOOTH",
"87 404 OFFCURVE",
"86 402 OFFCURVE",
"83 401 CURVE SMOOTH",
"-4 362 LINE SMOOTH",
"-30 350 OFFCURVE",
"-42 322 OFFCURVE",
"-30 296 CURVE SMOOTH",
"-18 269 OFFCURVE",
"11 259 OFFCURVE",
"37 271 CURVE SMOOTH",
"54 279 LINE SMOOTH",
"58 280 OFFCURVE",
"60 278 OFFCURVE",
"59 274 CURVE SMOOTH",
"33 149 LINE SMOOTH",
"17 61 OFFCURVE",
"61 -10 OFFCURVE",
"145 -10 CURVE SMOOTH",
"175 -10 OFFCURVE",
"208 -3 OFFCURVE",
"229 8 CURVE SMOOTH",
"261 25 OFFCURVE",
"273 51 OFFCURVE",
"261 82 CURVE SMOOTH",
"250 110 OFFCURVE",
"224 119 OFFCURVE",
"200 111 CURVE",
"166 101 OFFCURVE",
"147 113 OFFCURVE",
"162 193 CURVE SMOOTH",
"193 337 LINE SMOOTH",
"193 340 OFFCURVE",
"194 341 OFFCURVE",
"197 342 CURVE SMOOTH",
"310 393 LINE SMOOTH",
"336 405 OFFCURVE",
"348 433 OFFCURVE",
"336 459 CURVE SMOOTH"
);
}
);
width = 280;
}
);
unicode = 0142;
},
{
glyphname = m;
lastChange = "2013-12-18 08:32:10 +0400";
layers = (
{
layerId = "4FD7A5AB-3C0B-49D1-A419-889C157412FC";
name = Bold;
paths = (
{
closed = 1;
nodes = (
"968 110 OFFCURVE",
"942 119 OFFCURVE",
"918 111 CURVE SMOOTH",
"875 98 OFFCURVE",
"853 102 OFFCURVE",
"885 193 CURVE SMOOTH",
"897 227 OFFCURVE",
"912 286 OFFCURVE",
"915 295 CURVE",
"944 418 OFFCURVE",
"920 525 OFFCURVE",
"787 525 CURVE SMOOTH",
"692 525 OFFCURVE",
"625 473 OFFCURVE",
"590 429 CURVE",
"588 426 OFFCURVE",
"586 427 OFFCURVE",
"585 431 CURVE SMOOTH",
"570 487 OFFCURVE",
"527 525 OFFCURVE",
"448 525 CURVE SMOOTH",
"349 525 OFFCURVE",
"281 468 OFFCURVE",
"251 428 CURVE SMOOTH",
"245 420 OFFCURVE",
"242 421 OFFCURVE",
"242 429 CURVE",
"245 490 OFFCURVE",
"193 525 OFFCURVE",
"144 525 CURVE SMOOTH",
"110 525 OFFCURVE",
"87 518 OFFCURVE",
"66 507 CURVE SMOOTH",
"34 490 OFFCURVE",
"22 464 OFFCURVE",
"34 433 CURVE SMOOTH",
"45 405 OFFCURVE",
"71 397 OFFCURVE",
"96 404 CURVE SMOOTH",
"136 415 OFFCURVE",
"135 380 OFFCURVE",
"123 322 CURVE SMOOTH",
"68 61 LINE SMOOTH",
"61 26 OFFCURVE",
"80 0 OFFCURVE",
"115 0 CURVE SMOOTH",
"150 0 OFFCURVE",
"181 26 OFFCURVE",
"188 61 CURVE SMOOTH",
"232 267 LINE SMOOTH",
"249 344 OFFCURVE",
"303 405 OFFCURVE",
"380 405 CURVE SMOOTH",
"451 405 OFFCURVE",
"466 353 OFFCURVE",
"454 285 CURVE SMOOTH",
"407 61 LINE SMOOTH",
"400 26 OFFCURVE",
"419 0 OFFCURVE",
"454 0 CURVE SMOOTH",
"489 0 OFFCURVE",
"520 26 OFFCURVE",
"527 61 CURVE SMOOTH",
"571 267 LINE SMOOTH",
"588 344 OFFCURVE",
"642 405 OFFCURVE",
"719 405 CURVE SMOOTH",
"789 405 OFFCURVE",
"803 353 OFFCURVE",
"791 286 CURVE SMOOTH",
"785 251 OFFCURVE",
"767 208 OFFCURVE",
"756 149 CURVE SMOOTH",
"740 61 OFFCURVE",
"779 -10 OFFCURVE",
"863 -10 CURVE SMOOTH",
"893 -10 OFFCURVE",
"926 -3 OFFCURVE",
"947 8 CURVE SMOOTH",
"979 25 OFFCURVE",
"991 51 OFFCURVE",
"979 82 CURVE SMOOTH"
);
}
);
width = 1013.57;
}
);
leftKerningGroup = m;
rightKerningGroup = h;
unicode = 006D;
},
{
glyphname = n;
lastChange = "2013-12-18 08:32:10 +0400";
layers = (
{
anchors = (
{
name = bottom;
position = "{281, 0}";
},
{
name = top;
position = "{391, 515}";
}
);
layerId = "4FD7A5AB-3C0B-49D1-A419-889C157412FC";
name = Bold;
paths = (
{
closed = 1;
nodes = (
"630 110 OFFCURVE",
"604 119 OFFCURVE",
"580 111 CURVE SMOOTH",
"537 98 OFFCURVE",
"515 102 OFFCURVE",
"547 193 CURVE SMOOTH",
"559 227 OFFCURVE",
"574 286 OFFCURVE",
"577 295 CURVE SMOOTH",
"606 418 OFFCURVE",
"582 525 OFFCURVE",
"449 525 CURVE SMOOTH",
"349 525 OFFCURVE",
"282 468 OFFCURVE",
"252 428 CURVE SMOOTH",
"246 420 OFFCURVE",
"243 421 OFFCURVE",
"243 429 CURVE SMOOTH",
"246 490 OFFCURVE",
"207 525 OFFCURVE",
"148 525 CURVE SMOOTH",
"114 525 OFFCURVE",
"88 518 OFFCURVE",
"67 507 CURVE SMOOTH",
"35 490 OFFCURVE",
"23 464 OFFCURVE",
"35 433 CURVE SMOOTH",
"46 405 OFFCURVE",
"72 396 OFFCURVE",
"96 404 CURVE SMOOTH",
"122 412 OFFCURVE",
"141 400 OFFCURVE",
"124 322 CURVE SMOOTH",
"69 61 LINE SMOOTH",
"62 26 OFFCURVE",
"81 0 OFFCURVE",
"116 0 CURVE SMOOTH",
"151 0 OFFCURVE",
"182 26 OFFCURVE",
"189 61 CURVE SMOOTH",
"233 267 LINE SMOOTH",
"250 344 OFFCURVE",
"304 405 OFFCURVE",
"381 405 CURVE SMOOTH",
"451 405 OFFCURVE",
"465 353 OFFCURVE",
"453 286 CURVE SMOOTH",
"447 251 OFFCURVE",
"429 208 OFFCURVE",
"418 149 CURVE SMOOTH",
"402 61 OFFCURVE",
"441 -10 OFFCURVE",
"525 -10 CURVE SMOOTH",
"555 -10 OFFCURVE",
"588 -3 OFFCURVE",
"609 8 CURVE SMOOTH",
"641 25 OFFCURVE",
"653 51 OFFCURVE",
"641 82 CURVE SMOOTH"
);
}
);
width = 675.575;
}
);
leftKerningGroup = m;
rightKerningGroup = h;
unicode = 006E;
},
{
glyphname = eng;
lastChange = "2013-12-18 08:32:10 +0400";
layers = (
{
anchors = (
{
name = bottom;
position = "{281, 0}";
},
{
name = top;
position = "{391, 515}";
}
);
layerId = "4FD7A5AB-3C0B-49D1-A419-889C157412FC";
name = Bold;
paths = (
{
closed = 1;
nodes = (
"630 110 OFFCURVE",
"604 119 OFFCURVE",
"580 111 CURVE SMOOTH",
"537 98 OFFCURVE",
"515 102 OFFCURVE",
"547 193 CURVE SMOOTH",
"559 227 OFFCURVE",
"574 286 OFFCURVE",
"577 295 CURVE",
"606 418 OFFCURVE",
"582 525 OFFCURVE",
"449 525 CURVE SMOOTH",
"349 525 OFFCURVE",
"282 468 OFFCURVE",
"252 428 CURVE SMOOTH",
"246 420 OFFCURVE",
"243 421 OFFCURVE",
"243 429 CURVE",
"246 490 OFFCURVE",
"207 525 OFFCURVE",
"148 525 CURVE SMOOTH",
"114 525 OFFCURVE",
"88 518 OFFCURVE",
"67 507 CURVE SMOOTH",
"35 490 OFFCURVE",
"23 464 OFFCURVE",
"35 433 CURVE SMOOTH",
"46 405 OFFCURVE",
"72 396 OFFCURVE",
"96 404 CURVE SMOOTH",
"122 412 OFFCURVE",
"141 400 OFFCURVE",
"124 322 CURVE SMOOTH",
"69 61 LINE SMOOTH",
"62 26 OFFCURVE",
"81 0 OFFCURVE",
"116 0 CURVE SMOOTH",
"151 0 OFFCURVE",
"182 26 OFFCURVE",
"189 61 CURVE SMOOTH",
"233 267 LINE SMOOTH",
"250 344 OFFCURVE",
"304 405 OFFCURVE",
"381 405 CURVE SMOOTH",
"451 405 OFFCURVE",
"465 353 OFFCURVE",
"453 286 CURVE SMOOTH",
"449 261 OFFCURVE",
"430 195 OFFCURVE",
"420 154 CURVE SMOOTH",
"405 92 OFFCURVE",
"389 25 OFFCURVE",
"379 -14 CURVE SMOOTH",
"366 -65 OFFCURVE",
"317 -89 OFFCURVE",
"274 -90 CURVE SMOOTH",
"240 -91 OFFCURVE",
"211 -107 OFFCURVE",
"204 -139 CURVE SMOOTH",
"197 -171 OFFCURVE",
"220 -200 OFFCURVE",
"257 -200 CURVE SMOOTH",
"344 -201 OFFCURVE",
"457 -166 OFFCURVE",
"498 -14 CURVE SMOOTH",
"500 -8 LINE",
"508 -9 OFFCURVE",
"516 -10 OFFCURVE",
"525 -10 CURVE SMOOTH",
"555 -10 OFFCURVE",
"588 -3 OFFCURVE",
"609 8 CURVE SMOOTH",
"641 25 OFFCURVE",
"653 51 OFFCURVE",
"641 82 CURVE SMOOTH"
);
}
);
width = 606;
}
);
leftMetricsKey = n;
rightMetricsKey = n;
unicode = 014B;
},
{
glyphname = o;
lastChange = "2013-12-18 08:32:10 +0400";
layers = (
{
anchors = (
{
name = top;
position = "{399, 515}";
}
);
layerId = "4FD7A5AB-3C0B-49D1-A419-889C157412FC";
name = Bold;
paths = (
{
closed = 1;
nodes = (
"437 174 OFFCURVE",
"364 110 OFFCURVE",
"283 110 CURVE",
"202 110 OFFCURVE",
"143 174 OFFCURVE",
"151 257 CURVE",
"160 341 OFFCURVE",
"233 405 OFFCURVE",
"314 405 CURVE",
"395 405 OFFCURVE",
"454 341 OFFCURVE",
"445 257 CURVE"
);
},
{
closed = 1;
nodes = (
"581 405 OFFCURVE",
"476 525 OFFCURVE",
"327 525 CURVE",
"178 525 OFFCURVE",
"47 405 OFFCURVE",
"31 257 CURVE",
"16 109 OFFCURVE",
"121 -10 OFFCURVE",
"270 -10 CURVE",
"419 -10 OFFCURVE",
"550 109 OFFCURVE",
"565 257 CURVE"
);
}
);
width = 597.03;
}
);
leftKerningGroup = c;
rightKerningGroup = b;
unicode = 006F;
},
{
glyphname = oslash;
lastChange = "2013-12-18 08:32:10 +0400";
layers = (
{
anchors = (
{
name = top;
position = "{312, 515}";
}
);
layerId = "4FD7A5AB-3C0B-49D1-A419-889C157412FC";
name = Bold;
paths = (
{
closed = 1;
nodes = (
"554 464 LINE SMOOTH",
"573 486 OFFCURVE",
"571 516 OFFCURVE",
"550 534 CURVE SMOOTH",
"527 554 OFFCURVE",
"497 551 OFFCURVE",
"478 529 CURVE SMOOTH",
"448 493 LINE SMOOTH",
"446 491 OFFCURVE",
"443 491 OFFCURVE",
"441 492 CURVE SMOOTH",
"403 513 OFFCURVE",
"359 525 OFFCURVE",
"312 525 CURVE SMOOTH",
"163 525 OFFCURVE",
"45 405 OFFCURVE",
"45 257 CURVE SMOOTH",
"45 195 OFFCURVE",
"66 138 OFFCURVE",
"101 93 CURVE SMOOTH",
"102 90 OFFCURVE",
"102 88 OFFCURVE",
"100 86 CURVE SMOOTH",
"70 50 LINE SMOOTH",
"51 28 OFFCURVE",
"53 -2 OFFCURVE",
"74 -20 CURVE SMOOTH",
"97 -40 OFFCURVE",
"127 -37 OFFCURVE",
"146 -15 CURVE SMOOTH",
"176 21 LINE SMOOTH",
"178 23 OFFCURVE",
"181 23 OFFCURVE",
"183 22 CURVE SMOOTH",
"221 1 OFFCURVE",
"265 -11 OFFCURVE",
"312 -11 CURVE SMOOTH",
"461 -11 OFFCURVE",
"579 109 OFFCURVE",
"579 257 CURVE SMOOTH",
"579 319 OFFCURVE",
"558 376 OFFCURVE",
"523 421 CURVE SMOOTH",
"522 424 OFFCURVE",
"522 426 OFFCURVE",
"524 428 CURVE SMOOTH"
);
},
{
closed = 1;
nodes = (
"165 341 OFFCURVE",
"231 405 OFFCURVE",
"312 405 CURVE SMOOTH",
"328 405 OFFCURVE",
"344 402 OFFCURVE",
"359 398 CURVE SMOOTH",
"362 396 OFFCURVE",
"363 394 OFFCURVE",
"360 391 CURVE SMOOTH",
"188 189 LINE SMOOTH",
"186 186 OFFCURVE",
"183 186 OFFCURVE",
"181 189 CURVE SMOOTH",
"171 209 OFFCURVE",
"165 232 OFFCURVE",
"165 257 CURVE"
);
},
{
closed = 1;
nodes = (
"296 110 OFFCURVE",
"280 113 OFFCURVE",
"266 117 CURVE SMOOTH",
"262 118 OFFCURVE",
"262 121 OFFCURVE",
"264 124 CURVE SMOOTH",
"436 326 LINE SMOOTH",
"439 329 OFFCURVE",
"441 328 OFFCURVE",
"443 325 CURVE SMOOTH",
"453 305 OFFCURVE",
"459 282 OFFCURVE",
"459 257 CURVE SMOOTH",
"459 174 OFFCURVE",
"393 110 OFFCURVE",
"312 110 CURVE SMOOTH"
);
}
);
width = 624;
}
);
leftMetricsKey = o;
rightMetricsKey = o;
unicode = 00F8;
},
{
glyphname = oe;
lastChange = "2013-12-18 08:32:10 +0400";
layers = (
{
anchors = (
{
name = bottom;
position = "{824, 15}";
},
{
name = ogonek;
position = "{1054, 24}";
},
{
name = top;
position = "{399, 515}";
}
);
layerId = "4FD7A5AB-3C0B-49D1-A419-889C157412FC";
leftMetricsKey = o;
rightMetricsKey = e;
name = Bold;
paths = (
{
closed = 1;
nodes = (
"917 159 OFFCURVE",
"968 302 OFFCURVE",
"968 367 CURVE SMOOTH",
"968 421 OFFCURVE",
"932 525 OFFCURVE",
"760 525 CURVE SMOOTH",
"668 525 OFFCURVE",
"590 481 OFFCURVE",
"539 414 CURVE SMOOTH",
"536 411 OFFCURVE",
"534 411 OFFCURVE",
"532 414 CURVE SMOOTH",
"491 481 OFFCURVE",
"417 525 OFFCURVE",
"327 525 CURVE SMOOTH",
"178 525 OFFCURVE",
"46.9999 405 OFFCURVE",
"30.9999 257 CURVE SMOOTH",
"15.9999 109 OFFCURVE",
"121 -10 OFFCURVE",
"270 -10 CURVE SMOOTH",
"359 -10 OFFCURVE",
"442 33 OFFCURVE",
"497 99 CURVE SMOOTH",
"500 102 OFFCURVE",
"503 102 OFFCURVE",
"504 98 CURVE SMOOTH",
"548 21 OFFCURVE",
"633 -10 OFFCURVE",
"711 -10 CURVE SMOOTH",
"776 -10 OFFCURVE",
"831 12 OFFCURVE",
"869 36 CURVE SMOOTH",
"903 57 OFFCURVE",
"911 92 OFFCURVE",
"890 120 CURVE SMOOTH",
"873 142 OFFCURVE",
"837 145 OFFCURVE",
"806 126 CURVE SMOOTH",
"783 112 OFFCURVE",
"749 100 OFFCURVE",
"711 100 CURVE SMOOTH",
"663 100 OFFCURVE",
"616 119 OFFCURVE",
"596 169 CURVE",
"594 172 OFFCURVE",
"596 174 OFFCURVE",
"600 174 CURVE"
);
},
{
closed = 1;
nodes = (
"614 356 OFFCURVE",
"672 411 OFFCURVE",
"757 418 CURVE SMOOTH",
"807 422 OFFCURVE",
"858 404 OFFCURVE",
"858 363 CURVE SMOOTH",
"858 329 OFFCURVE",
"814 257 OFFCURVE",
"598 276 CURVE",
"594 277 OFFCURVE",
"593 279 OFFCURVE",
"594 282 CURVE"
);
},
{
closed = 1;
nodes = (
"437 174 OFFCURVE",
"364 110 OFFCURVE",
"283 110 CURVE SMOOTH",
"202 110 OFFCURVE",
"143 174 OFFCURVE",
"151 257 CURVE SMOOTH",
"160 341 OFFCURVE",
"233 405 OFFCURVE",
"314 405 CURVE SMOOTH",
"395 405 OFFCURVE",
"454 341 OFFCURVE",
"445 257 CURVE SMOOTH"
);
}
);
width = 1003;
}
);
leftMetricsKey = o;
rightMetricsKey = e;
unicode = 0153;
},
{
glyphname = p;
lastChange = "2013-12-18 08:32:10 +0400";
layers = (
{
layerId = "4FD7A5AB-3C0B-49D1-A419-889C157412FC";
name = Bold;
paths = (
{
closed = 1;
nodes = (
"41 405 OFFCURVE",
"67 396 OFFCURVE",
"91 404 CURVE SMOOTH",
"120 414 OFFCURVE",
"135 396 OFFCURVE",
"119 322 CURVE SMOOTH",
"21 -139 LINE SMOOTH",
"14 -174 OFFCURVE",
"38 -200 OFFCURVE",
"72 -200 CURVE SMOOTH",
"105 -200 OFFCURVE",
"131 -180 OFFCURVE",
"138 -149 CURVE SMOOTH",
"184 59 LINE SMOOTH",
"185 63 OFFCURVE",
"188 64 OFFCURVE",
"191 60 CURVE SMOOTH",
"224 14 OFFCURVE",
"273 -10 OFFCURVE",
"346 -10 CURVE SMOOTH",
"495 -10 OFFCURVE",
"626 110 OFFCURVE",
"642 258 CURVE SMOOTH",
"657 406 OFFCURVE",
"552 525 OFFCURVE",
"403 525 CURVE SMOOTH",
"343 525 OFFCURVE",
"286 503 OFFCURVE",
"247 451 CURVE SMOOTH",
"245 447 OFFCURVE",
"241 448 OFFCURVE",
"240 452 CURVE SMOOTH",
"226 504 OFFCURVE",
"195 525 OFFCURVE",
"136 525 CURVE SMOOTH",
"116 525 OFFCURVE",
"83 518 OFFCURVE",
"62 507 CURVE SMOOTH",
"30 490 OFFCURVE",
"18 464 OFFCURVE",
"30 433 CURVE SMOOTH"
);
},
{
closed = 1;
nodes = (
"471 405 OFFCURVE",
"530 341 OFFCURVE",
"522 258 CURVE SMOOTH",
"513 174 OFFCURVE",
"440 110 OFFCURVE",
"359 110 CURVE SMOOTH",
"278 110 OFFCURVE",
"219 174 OFFCURVE",
"228 258 CURVE SMOOTH",
"236 341 OFFCURVE",
"309 405 OFFCURVE",
"390 405 CURVE SMOOTH"
);
}
);
width = 673.645;
}
);
leftKerningGroup = p;
rightKerningGroup = b;
unicode = 0070;
},
{
glyphname = thorn;
lastChange = "2013-12-18 08:32:10 +0400";
layers = (
{
anchors = (
{
name = bottom;
position = "{60, -5}";
},
{
name = top;
position = "{170, 510}";
},
{
name = topright;
position = "{291, 510}";
}
);
layerId = "4FD7A5AB-3C0B-49D1-A419-889C157412FC";
name = Bold;
paths = (
{
closed = 1;
nodes = (
"339 613 OFFCURVE",
"292 600 OFFCURVE",
"250 576 CURVE SMOOTH",
"245 574 OFFCURVE",
"244 576 OFFCURVE",
"245 580 CURVE SMOOTH",
"266 679 LINE SMOOTH",
"273 714 OFFCURVE",
"254 740 OFFCURVE",
"220 740 CURVE SMOOTH",
"185 740 OFFCURVE",
"153 714 OFFCURVE",
"146 679 CURVE SMOOTH",
"14 61 LINE SMOOTH",
"7 26 OFFCURVE",
"26 0 OFFCURVE",
"60 0 CURVE SMOOTH",
"95 0 OFFCURVE",
"127 26 OFFCURVE",
"134 61 CURVE SMOOTH",
"156 161 LINE SMOOTH",
"156 165 OFFCURVE",
"160 166 OFFCURVE",
"162 164 CURVE SMOOTH",
"194 141 OFFCURVE",
"236 128 OFFCURVE",
"283 128 CURVE SMOOTH",
"418 128 OFFCURVE",
"548 236 OFFCURVE",
"576 370 CURVE SMOOTH",
"604 504 OFFCURVE",
"521 613 OFFCURVE",
"386 613 CURVE SMOOTH"
);
},
{
closed = 1;
nodes = (
"233 237 OFFCURVE",
"185 295 OFFCURVE",
"201 370 CURVE SMOOTH",
"217 446 OFFCURVE",
"289 504 OFFCURVE",
"362 504 CURVE SMOOTH",
"435 504 OFFCURVE",
"483 446 OFFCURVE",
"467 370 CURVE SMOOTH",
"451 295 OFFCURVE",
"379 237 OFFCURVE",
"306 237 CURVE SMOOTH"
);
}
);
width = 611;
}
);
unicode = 00FE;
},
{
glyphname = q;
lastChange = "2013-12-18 08:32:10 +0400";
layers = (
{
layerId = "4FD7A5AB-3C0B-49D1-A419-889C157412FC";
name = Bold;
paths = (
{
closed = 1;
nodes = (
"311 -10 OFFCURVE",
"364 7 OFFCURVE",
"397 41 CURVE SMOOTH",
"401 45 OFFCURVE",
"404 45 OFFCURVE",
"403 40 CURVE SMOOTH",
"365 -128 LINE SMOOTH",
"357 -162 OFFCURVE",
"377 -193 OFFCURVE",
"411 -200 CURVE SMOOTH",
"445 -207 OFFCURVE",
"474 -187 OFFCURVE",
"482 -153 CURVE SMOOTH",
"609 443 LINE SMOOTH",
"616 477 OFFCURVE",
"597 508 OFFCURVE",
"563 515 CURVE SMOOTH",
"529 522 OFFCURVE",
"500 500 OFFCURVE",
"492 468 CURVE SMOOTH",
"490 460 LINE SMOOTH",
"489 455 OFFCURVE",
"486 455 OFFCURVE",
"483 458 CURVE SMOOTH",
"448 504 OFFCURVE",
"389 525 OFFCURVE",
"327 525 CURVE SMOOTH",
"178 525 OFFCURVE",
"47 406 OFFCURVE",
"32 258 CURVE SMOOTH",
"16 110 OFFCURVE",
"121 -10 OFFCURVE",
"270 -10 CURVE SMOOTH"
);
},
{
closed = 1;
nodes = (
"160 341 OFFCURVE",
"233 405 OFFCURVE",
"314 405 CURVE SMOOTH",
"395 405 OFFCURVE",
"454 341 OFFCURVE",
"446 258 CURVE SMOOTH",
"437 174 OFFCURVE",
"364 110 OFFCURVE",
"283 110 CURVE SMOOTH",
"202 110 OFFCURVE",
"143 174 OFFCURVE",
"152 258 CURVE SMOOTH"
);
}
);
width = 635.052;
}
);
leftKerningGroup = c;
rightKerningGroup = q;
unicode = 0071;
},
{
glyphname = r;
lastChange = "2013-12-18 08:32:10 +0400";
layers = (
{
anchors = (
{
name = bottom;
position = "{173, 0}";
},
{
name = top;
position = "{282, 515}";
}
);
layerId = "4FD7A5AB-3C0B-49D1-A419-889C157412FC";
name = Bold;
paths = (
{
closed = 1;
nodes = (
"498 497 OFFCURVE",
"464 525 OFFCURVE",
"411 525 CURVE SMOOTH",
"335 525 OFFCURVE",
"264 457 OFFCURVE",
"238 412 CURVE",
"236 408 OFFCURVE",
"232 410 OFFCURVE",
"232 415 CURVE SMOOTH",
"232 428 LINE",
"236 492 OFFCURVE",
"199 525 OFFCURVE",
"138 525 CURVE SMOOTH",
"104 525 OFFCURVE",
"78 518 OFFCURVE",
"57 507 CURVE SMOOTH",
"25 490 OFFCURVE",
"13 464 OFFCURVE",
"25 433 CURVE SMOOTH",
"36 405 OFFCURVE",
"61 396 OFFCURVE",
"86 404 CURVE SMOOTH",
"107 411 OFFCURVE",
"132 406 OFFCURVE",
"113 322 CURVE",
"57 61 LINE SMOOTH",
"50 26 OFFCURVE",
"70 0 OFFCURVE",
"105 0 CURVE SMOOTH",
"140 0 OFFCURVE",
"170 26 OFFCURVE",
"177 61 CURVE SMOOTH",
"213 229 LINE SMOOTH",
"237 340 OFFCURVE",
"345 378 OFFCURVE",
"411 380 CURVE SMOOTH",
"466 382 OFFCURVE",
"503 408 OFFCURVE",
"500 456 CURVE SMOOTH"
);
}
);
width = 514.74;
}
);
leftKerningGroup = m;
rightKerningGroup = r;
unicode = 0072;
},
{
glyphname = s;
lastChange = "2013-12-18 08:32:10 +0400";
layers = (
{
anchors = (
{
name = bottom;
position = "{221, 0}";
},
{
name = top;
position = "{331, 515}";
}
);
layerId = "4FD7A5AB-3C0B-49D1-A419-889C157412FC";
name = Bold;
paths = (
{
closed = 1;
nodes = (
"55 14 OFFCURVE",
"151 -10 OFFCURVE",
"221 -10 CURVE SMOOTH",
"315 -10 OFFCURVE",
"408 15 OFFCURVE",
"434 123 CURVE SMOOTH",
"455 210 OFFCURVE",
"403 263 OFFCURVE",
"297 303 CURVE SMOOTH",
"241 324 OFFCURVE",
"192 342 OFFCURVE",
"201 384 CURVE SMOOTH",
"206 406 OFFCURVE",
"229 423 OFFCURVE",
"277 423 CURVE SMOOTH",
"316 423 OFFCURVE",
"345 409 OFFCURVE",
"368 386 CURVE SMOOTH",
"383 371 OFFCURVE",
"414 371 OFFCURVE",
"437 388 CURVE SMOOTH",
"468 412 OFFCURVE",
"466 443 OFFCURVE",
"453 462 CURVE SMOOTH",
"421 507 OFFCURVE",
"357 525 OFFCURVE",
"279 525 CURVE SMOOTH",
"193 525 OFFCURVE",
"95 494 OFFCURVE",
"73 392 CURVE SMOOTH",
"51 288 OFFCURVE",
"149 238 OFFCURVE",
"224 210 CURVE SMOOTH",
"304 180 OFFCURVE",
"322 164 OFFCURVE",
"317 139 CURVE SMOOTH",
"311 108 OFFCURVE",
"276 96 OFFCURVE",
"233 96 CURVE SMOOTH",
"177 96 OFFCURVE",
"135 125 OFFCURVE",
"116 146 CURVE SMOOTH",
"98 167 OFFCURVE",
"71 165 OFFCURVE",
"49 151 CURVE SMOOTH",
"10 127 OFFCURVE",
"10 94 OFFCURVE",
"21 76 CURVE SMOOTH"
);
}
);
width = 487.239;
}
);
leftKerningGroup = s;
rightKerningGroup = s;
unicode = 0073;
},
{
glyphname = germandbls;
lastChange = "2013-12-18 08:32:10 +0400";
layers = (
{
layerId = "4FD7A5AB-3C0B-49D1-A419-889C157412FC";
name = Bold;
paths = (
{
closed = 1;
nodes = (
"310 18 OFFCURVE",
"338 -4 OFFCURVE",
"375 0 CURVE SMOOTH",
"505 14 OFFCURVE",
"585 84 OFFCURVE",
"585 196 CURVE SMOOTH",
"585 198 LINE SMOOTH",
"585 295 OFFCURVE",
"516 347 OFFCURVE",
"441 373 CURVE SMOOTH",
"436 375 OFFCURVE",
"436 378 OFFCURVE",
"440 380 CURVE SMOOTH",
"495 412 OFFCURVE",
"543 461 OFFCURVE",
"543 547 CURVE SMOOTH",
"543 549 LINE SMOOTH",
"543 654 OFFCURVE",
"464 737 OFFCURVE",
"328 737 CURVE SMOOTH",
"182 737 OFFCURVE",
"90 647 OFFCURVE",
"90 502 CURVE SMOOTH",
"90 61 LINE SMOOTH",
"90 26 OFFCURVE",
"115 0 OFFCURVE",
"150 0 CURVE SMOOTH",
"185 0 OFFCURVE",
"210 26 OFFCURVE",
"210 61 CURVE SMOOTH",
"210 506 LINE SMOOTH",
"210 584 OFFCURVE",
"256 634 OFFCURVE",
"322 634 CURVE SMOOTH",
"383 634 OFFCURVE",
"423 596 OFFCURVE",
"423 538 CURVE SMOOTH",
"423 536 LINE SMOOTH",
"423 480 OFFCURVE",
"388 441 OFFCURVE",
"338 412 CURVE SMOOTH",
"321 402 OFFCURVE",
"310 385 OFFCURVE",
"310 365 CURVE SMOOTH",
"310 356 LINE SMOOTH",
"310 331 OFFCURVE",
"329 314 OFFCURVE",
"357 306 CURVE SMOOTH",
"422 289 OFFCURVE",
"464 254 OFFCURVE",
"464 201 CURVE SMOOTH",
"464 199 LINE SMOOTH",
"464 145 OFFCURVE",
"427 110 OFFCURVE",
"363 97 CURVE SMOOTH",
"332 90 OFFCURVE",
"310 72 OFFCURVE",
"310 45 CURVE SMOOTH"
);
}
);
width = 630;
}
);
unicode = 00DF;
},
{
glyphname = t;
lastChange = "2013-12-18 08:32:10 +0400";
layers = (
{
anchors = (
{
name = bottom;
position = "{107, 0}";
},
{
name = center;
position = "{162, 258}";
}
);
layerId = "4FD7A5AB-3C0B-49D1-A419-889C157412FC";
name = Bold;
paths = (
{
closed = 1;
nodes = (
"281 515 LINE SMOOTH",
"275 515 OFFCURVE",
"272 519 OFFCURVE",
"273 525 CURVE",
"287 589 LINE SMOOTH",
"294 624 OFFCURVE",
"275 650 OFFCURVE",
"241 650 CURVE SMOOTH",
"206 650 OFFCURVE",
"174 624 OFFCURVE",
"167 589 CURVE SMOOTH",
"153 525 LINE",
"152 519 OFFCURVE",
"147 515 OFFCURVE",
"141 515 CURVE SMOOTH",
"110 515 LINE SMOOTH",
"75 515 OFFCURVE",
"44 490 OFFCURVE",
"37 456 CURVE SMOOTH",
"29 421 OFFCURVE",
"50 395 OFFCURVE",
"85 395 CURVE SMOOTH",
"116 395 LINE SMOOTH",
"123 395 OFFCURVE",
"125 391 OFFCURVE",
"124 385 CURVE",
"74 149 LINE SMOOTH",
"58 61 OFFCURVE",
"102 -10 OFFCURVE",
"186 -10 CURVE SMOOTH",
"216 -10 OFFCURVE",
"249 -3 OFFCURVE",
"270 8 CURVE SMOOTH",
"302 25 OFFCURVE",
"314 51 OFFCURVE",
"302 82 CURVE SMOOTH",
"291 110 OFFCURVE",
"265 119 OFFCURVE",
"241 111 CURVE",
"208 101 OFFCURVE",
"189 112 OFFCURVE",
"202 185 CURVE",
"244 385 LINE",
"245 392 OFFCURVE",
"249 395 OFFCURVE",
"256 395 CURVE SMOOTH",
"292 395 LINE SMOOTH",
"327 395 OFFCURVE",
"358 420 OFFCURVE",
"365 454 CURVE SMOOTH",
"373 489 OFFCURVE",
"352 515 OFFCURVE",
"317 515 CURVE SMOOTH"
);
}
);
width = 371.697;
}
);
leftKerningGroup = t;
rightKerningGroup = t;
unicode = 0074;
},
{
glyphname = tbar;
lastChange = "2013-12-18 08:32:10 +0400";
layers = (
{
anchors = (
{
name = _top;
position = "{175, 135}";
},
{
name = bottom;
position = "{107, 0}";
},
{
name = center;
position = "{162, 258}";
}
);
layerId = "4FD7A5AB-3C0B-49D1-A419-889C157412FC";
name = Bold;
paths = (
{
closed = 1;
nodes = (
"277 515 LINE SMOOTH",
"274 515 OFFCURVE",
"272 517 OFFCURVE",
"273 520 CURVE SMOOTH",
"287 589 LINE SMOOTH",
"294 624 OFFCURVE",
"275 650 OFFCURVE",
"241 650 CURVE SMOOTH",
"206 650 OFFCURVE",
"174 624 OFFCURVE",
"167 589 CURVE SMOOTH",
"152 519 LINE SMOOTH",
"152 516 OFFCURVE",
"150 515 OFFCURVE",
"147 515 CURVE SMOOTH",
"109 515 LINE SMOOTH",
"74 515 OFFCURVE",
"43 490 OFFCURVE",
"36 456 CURVE SMOOTH",
"28 421 OFFCURVE",
"49 395 OFFCURVE",
"84 395 CURVE SMOOTH",
"120 395 LINE SMOOTH",
"124 395 OFFCURVE",
"126 393 OFFCURVE",
"125 390 CURVE SMOOTH",
"111 324 LINE SMOOTH",
"110 321 OFFCURVE",
"109 320 OFFCURVE",
"106 320 CURVE SMOOTH",
"72 320 LINE SMOOTH",
"42 320 OFFCURVE",
"15 294 OFFCURVE",
"9 266 CURVE SMOOTH",
"3 236 OFFCURVE",
"19 210 OFFCURVE",
"49 210 CURVE SMOOTH",
"81 210 LINE SMOOTH",
"85 210 OFFCURVE",
"86 208 OFFCURVE",
"86 205 CURVE SMOOTH",
"74 149 LINE SMOOTH",
"58 61 OFFCURVE",
"102 -10 OFFCURVE",
"186 -10 CURVE SMOOTH",
"216 -10 OFFCURVE",
"249 -3 OFFCURVE",
"270 8 CURVE SMOOTH",
"302 25 OFFCURVE",
"314 51 OFFCURVE",
"302 82 CURVE SMOOTH",
"291 110 OFFCURVE",
"265 119 OFFCURVE",
"241 111 CURVE SMOOTH",
"208 101 OFFCURVE",
"189 112 OFFCURVE",
"202 185 CURVE SMOOTH",
"206 206 LINE SMOOTH",
"207 209 OFFCURVE",
"209 210 OFFCURVE",
"212 210 CURVE SMOOTH",
"249 210 LINE SMOOTH",
"279 210 OFFCURVE",
"305 236 OFFCURVE",
"311 265 CURVE SMOOTH",
"317 294 OFFCURVE",
"302 320 OFFCURVE",
"272 320 CURVE SMOOTH",
"236 320 LINE SMOOTH",
"232 320 OFFCURVE",
"231 322 OFFCURVE",
"232 325 CURVE SMOOTH",
"245 391 LINE SMOOTH",
"246 394 OFFCURVE",
"248 395 OFFCURVE",
"251 395 CURVE SMOOTH",
"291 395 LINE SMOOTH",
"326 395 OFFCURVE",
"357 420 OFFCURVE",
"364 454 CURVE SMOOTH",
"372 489 OFFCURVE",
"351 515 OFFCURVE",
"316 515 CURVE SMOOTH"
);
}
);
width = 354;
}
);
unicode = 0167;
},
{
glyphname = u;
lastChange = "2013-12-18 08:32:10 +0400";
layers = (
{
anchors = (
{
name = ogonek;
position = "{478, 10}";
},
{
name = top;
position = "{344, 515}";
}
);
layerId = "4FD7A5AB-3C0B-49D1-A419-889C157412FC";
name = Bold;
paths = (
{
closed = 1;
nodes = (
"51 405 OFFCURVE",
"77 396 OFFCURVE",
"101 404 CURVE SMOOTH",
"144 417 OFFCURVE",
"166 413 OFFCURVE",
"134 322 CURVE SMOOTH",
"122 288 OFFCURVE",
"107 229 OFFCURVE",
"104 220 CURVE SMOOTH",
"75 97 OFFCURVE",
"99 -10 OFFCURVE",
"232 -10 CURVE SMOOTH",
"332 -10 OFFCURVE",
"399 47 OFFCURVE",
"429 87 CURVE SMOOTH",
"435 95 OFFCURVE",
"438 94 OFFCURVE",
"438 86 CURVE SMOOTH",
"435 25 OFFCURVE",
"474 -10 OFFCURVE",
"533 -10 CURVE SMOOTH",
"567 -10 OFFCURVE",
"593 -3 OFFCURVE",
"614 8 CURVE SMOOTH",
"646 25 OFFCURVE",
"658 51 OFFCURVE",
"646 82 CURVE SMOOTH",
"635 110 OFFCURVE",
"609 119 OFFCURVE",
"585 111 CURVE SMOOTH",
"559 103 OFFCURVE",
"540 115 OFFCURVE",
"557 193 CURVE SMOOTH",
"612 454 LINE SMOOTH",
"619 489 OFFCURVE",
"600 515 OFFCURVE",
"565 515 CURVE SMOOTH",
"530 515 OFFCURVE",
"499 489 OFFCURVE",
"492 454 CURVE SMOOTH",
"448 248 LINE SMOOTH",
"431 171 OFFCURVE",
"377 110 OFFCURVE",
"300 110 CURVE SMOOTH",
"230 110 OFFCURVE",
"216 162 OFFCURVE",
"228 229 CURVE SMOOTH",
"234 264 OFFCURVE",
"252 307 OFFCURVE",
"263 366 CURVE SMOOTH",
"279 454 OFFCURVE",
"240 525 OFFCURVE",
"156 525 CURVE SMOOTH",
"126 525 OFFCURVE",
"93 518 OFFCURVE",
"72 507 CURVE SMOOTH",
"40 490 OFFCURVE",
"28 464 OFFCURVE",
"40 433 CURVE SMOOTH"
);
}
);
width = 700.565;
}
);
leftKerningGroup = u;
rightKerningGroup = u;
unicode = 0075;
},
{
glyphname = v;
lastChange = "2013-12-18 08:32:10 +0400";
layers = (
{
layerId = "4FD7A5AB-3C0B-49D1-A419-889C157412FC";
name = Bold;
paths = (
{
closed = 1;
nodes = (
"53 405 OFFCURVE",
"79 396 OFFCURVE",
"103 404 CURVE SMOOTH",
"126 411 OFFCURVE",
"148 404 OFFCURVE",
"131 322 CURVE SMOOTH",
"101 178 LINE SMOOTH",
"71 35 OFFCURVE",
"169 0 OFFCURVE",
"272 0 CURVE SMOOTH",
"339 0 OFFCURVE",
"472 19 OFFCURVE",
"539 167 CURVE SMOOTH",
"569 233 OFFCURVE",
"586 326 OFFCURVE",
"577 454 CURVE SMOOTH",
"575 489 OFFCURVE",
"552 515 OFFCURVE",
"517 515 CURVE SMOOTH",
"482 515 OFFCURVE",
"455 489 OFFCURVE",
"457 454 CURVE SMOOTH",
"464 349 OFFCURVE",
"449 263 OFFCURVE",
"419 203 CURVE SMOOTH",
"389 144 OFFCURVE",
"345 110 OFFCURVE",
"293 110 CURVE SMOOTH",
"243 110 OFFCURVE",
"211 142 OFFCURVE",
"225 198 CURVE",
"233 223 OFFCURVE",
"251 322 OFFCURVE",
"260 366 CURVE SMOOTH",
"278 462 OFFCURVE",
"227 525 OFFCURVE",
"153 525 CURVE SMOOTH",
"123 525 OFFCURVE",
"95 518 OFFCURVE",
"74 507 CURVE SMOOTH",
"42 490 OFFCURVE",
"30 464 OFFCURVE",
"42 433 CURVE SMOOTH"
);
}
);
width = 608.979;
}
);
leftKerningGroup = v;
rightKerningGroup = v;
unicode = 0076;
},
{
glyphname = w;
lastChange = "2013-12-18 08:32:10 +0400";
layers = (
{
anchors = (
{
name = top;
position = "{439, 515}";
}
);
layerId = "4FD7A5AB-3C0B-49D1-A419-889C157412FC";
name = Bold;
paths = (
{
closed = 1;
nodes = (
"901 489 OFFCURVE",
"878 515 OFFCURVE",
"843 515 CURVE SMOOTH",
"808 515 OFFCURVE",
"781 489 OFFCURVE",
"783 454 CURVE SMOOTH",
"790 349 OFFCURVE",
"775 263 OFFCURVE",
"745 203 CURVE SMOOTH",
"715 144 OFFCURVE",
"671 110 OFFCURVE",
"619 110 CURVE SMOOTH",
"559 110 OFFCURVE",
"536 154 OFFCURVE",
"557 215 CURVE",
"575 276 OFFCURVE",
"584 354 OFFCURVE",
"577 454 CURVE SMOOTH",
"575 489 OFFCURVE",
"552 515 OFFCURVE",
"517 515 CURVE SMOOTH",
"482 515 OFFCURVE",
"455 489 OFFCURVE",
"457 454 CURVE SMOOTH",
"464 349 OFFCURVE",
"449 263 OFFCURVE",
"419 203 CURVE SMOOTH",
"389 144 OFFCURVE",
"345 110 OFFCURVE",
"293 110 CURVE SMOOTH",
"243 110 OFFCURVE",
"212 142 OFFCURVE",
"225 198 CURVE",
"231 223 OFFCURVE",
"250 322 OFFCURVE",
"260 366 CURVE SMOOTH",
"274 432 OFFCURVE",
"252 525 OFFCURVE",
"148 525 CURVE SMOOTH",
"118 525 OFFCURVE",
"95 518 OFFCURVE",
"74 507 CURVE SMOOTH",
"42 490 OFFCURVE",
"30 464 OFFCURVE",
"42 433 CURVE SMOOTH",
"53 405 OFFCURVE",
"79 396 OFFCURVE",
"103 404 CURVE SMOOTH",
"126 411 OFFCURVE",
"148 404 OFFCURVE",
"131 322 CURVE SMOOTH",
"101 178 LINE SMOOTH",
"71 35 OFFCURVE",
"169 0 OFFCURVE",
"272 0 CURVE SMOOTH",
"315 0 OFFCURVE",
"384 8 OFFCURVE",
"446 52 CURVE",
"478 12 OFFCURVE",
"537 0 OFFCURVE",
"598 0 CURVE SMOOTH",
"665 0 OFFCURVE",
"798 19 OFFCURVE",
"865 167 CURVE SMOOTH",
"895 233 OFFCURVE",
"912 326 OFFCURVE",
"903 454 CURVE SMOOTH"
);
}
);
width = 934.979;
}
);
leftKerningGroup = w;
rightKerningGroup = w;
unicode = 0077;
},
{
glyphname = x;
lastChange = "2013-12-18 08:32:10 +0400";
layers = (
{
layerId = "4FD7A5AB-3C0B-49D1-A419-889C157412FC";
name = Bold;
paths = (
{
closed = 1;
nodes = (
"526 520 OFFCURVE",
"488 524 OFFCURVE",
"464 503 CURVE",
"318 368 LINE",
"307 391 OFFCURVE",
"299 408 OFFCURVE",
"292 422 CURVE SMOOTH",
"276 455 OFFCURVE",
"253 525 OFFCURVE",
"166 525 CURVE",
"154 525 OFFCURVE",
"138 523 OFFCURVE",
"125 519 CURVE",
"92 509 OFFCURVE",
"63 476 OFFCURVE",
"77 441 CURVE",
"94 401 OFFCURVE",
"134 406 OFFCURVE",
"153 413 CURVE",
"172 423 OFFCURVE",
"187 380 OFFCURVE",
"200 352 CURVE SMOOTH",
"209 334 OFFCURVE",
"220 310 OFFCURVE",
"231 281 CURVE",
"34 96 LINE",
"10 74 OFFCURVE",
"8 38 OFFCURVE",
"31 15 CURVE",
"50 -5 OFFCURVE",
"88 -9 OFFCURVE",
"112 13 CURVE",
"275 166 LINE",
"285 139 OFFCURVE",
"294 116 OFFCURVE",
"301 98 CURVE SMOOTH",
"323 50 OFFCURVE",
"338 -10 OFFCURVE",
"431 -10 CURVE",
"446 -11 OFFCURVE",
"462 -7 OFFCURVE",
"475 -3 CURVE",
"507 7 OFFCURVE",
"535 40 OFFCURVE",
"522 75 CURVE",
"504 117 OFFCURVE",
"463 108 OFFCURVE",
"447 103 CURVE",
"422 96 OFFCURVE",
"412 128 OFFCURVE",
"401 154 CURVE SMOOTH",
"391 178 OFFCURVE",
"377 213 OFFCURVE",
"363 252 CURVE",
"542 419 LINE",
"562 438 OFFCURVE",
"567 478 OFFCURVE",
"545 501 CURVE"
);
}
);
width = 574.402;
}
);
leftKerningGroup = x;
rightKerningGroup = x;
unicode = 0078;
},
{
glyphname = y;
lastChange = "2013-12-18 08:32:10 +0400";
layers = (
{
anchors = (
{
name = top;
position = "{396, 515}";
}
);
layerId = "4FD7A5AB-3C0B-49D1-A419-889C157412FC";
name = Bold;
paths = (
{
closed = 1;
nodes = (
"526 515 OFFCURVE",
"495 489 OFFCURVE",
"488 454 CURVE SMOOTH",
"442 240 LINE",
"423 167 OFFCURVE",
"370 110 OFFCURVE",
"296 110 CURVE SMOOTH",
"219 110 OFFCURVE",
"200 172 OFFCURVE",
"228 248 CURVE",
"236 273 OFFCURVE",
"255 322 OFFCURVE",
"263 366 CURVE SMOOTH",
"279 454 OFFCURVE",
"235 525 OFFCURVE",
"151 525 CURVE SMOOTH",
"121 525 OFFCURVE",
"88 518 OFFCURVE",
"67 507 CURVE SMOOTH",
"35 490 OFFCURVE",
"23 464 OFFCURVE",
"35 433 CURVE SMOOTH",
"46 405 OFFCURVE",
"72 396 OFFCURVE",
"96 404 CURVE SMOOTH",
"130 414 OFFCURVE",
"162 402 OFFCURVE",
"134 322 CURVE SMOOTH",
"108 248 LINE SMOOTH",
"60 112 OFFCURVE",
"85 -10 OFFCURVE",
"228 -10 CURVE SMOOTH",
"307 -10 OFFCURVE",
"366 26 OFFCURVE",
"402 61 CURVE",
"370 -38 OFFCURVE",
"324 -83 OFFCURVE",
"212 -83 CURVE SMOOTH",
"179 -83 OFFCURVE",
"142 -71 OFFCURVE",
"124 -63 CURVE SMOOTH",
"100 -52 OFFCURVE",
"68 -63 OFFCURVE",
"54 -99 CURVE SMOOTH",
"39 -138 OFFCURVE",
"65 -168 OFFCURVE",
"90 -179 CURVE SMOOTH",
"122 -193 OFFCURVE",
"163 -200 OFFCURVE",
"212 -200 CURVE SMOOTH",
"473 -200 OFFCURVE",
"514 -13 OFFCURVE",
"556 208 CURVE SMOOTH",
"608 454 LINE SMOOTH",
"615 489 OFFCURVE",
"596 515 OFFCURVE",
"561 515 CURVE SMOOTH"
);
}
);
width = 634.009;
}
);
leftKerningGroup = y;
rightKerningGroup = y;
unicode = 0079;
},
{
glyphname = z;
lastChange = "2013-12-18 08:32:10 +0400";
layers = (
{
anchors = (
{
name = top;
position = "{310, 515}";
}
);
layerId = "4FD7A5AB-3C0B-49D1-A419-889C157412FC";
name = Bold;
paths = (
{
closed = 1;
nodes = (
"453 137 OFFCURVE",
"426 136 OFFCURVE",
"403 119 CURVE SMOOTH",
"391 110 OFFCURVE",
"373 103 OFFCURVE",
"349 103 CURVE SMOOTH",
"298 103 OFFCURVE",
"273 108 OFFCURVE",
"217 115 CURVE SMOOTH",
"214 115 OFFCURVE",
"213 119 OFFCURVE",
"216 122 CURVE SMOOTH",
"493 414 LINE SMOOTH",
"517 440 OFFCURVE",
"517 476 OFFCURVE",
"492 500 CURVE SMOOTH",
"466.111 523.898 OFFCURVE",
"430.306 523.008 OFFCURVE",
"406.307 497.33 CURVE SMOOTH",
"378.422 468.463 OFFCURVE",
"278 515 OFFCURVE",
"187 515 CURVE SMOOTH",
"114 515 OFFCURVE",
"75 482 OFFCURVE",
"60 465 CURVE SMOOTH",
"41 443 OFFCURVE",
"31 411 OFFCURVE",
"53 389 CURVE SMOOTH",
"72 370 OFFCURVE",
"104 371 OFFCURVE",
"122 387 CURVE SMOOTH",
"133 397 OFFCURVE",
"163 417 OFFCURVE",
"196 418 CURVE SMOOTH",
"251 420 OFFCURVE",
"280 408 OFFCURVE",
"312 406 CURVE SMOOTH",
"316 406 OFFCURVE",
"316 402 OFFCURVE",
"314 400 CURVE SMOOTH",
"32 103 LINE SMOOTH",
"7 76.9999 OFFCURVE",
"8 40.9999 OFFCURVE",
"33 16.9999 CURVE SMOOTH",
"56.6543 -7 OFFCURVE",
"90.1563 -7 OFFCURVE",
"114.024 15.0192 CURVE",
"152.03 45.9766 OFFCURVE",
"265 0 OFFCURVE",
"357 0 CURVE SMOOTH",
"405 0 OFFCURVE",
"432 9 OFFCURVE",
"463 30 CURVE SMOOTH",
"499 54 OFFCURVE",
"502 96 OFFCURVE",
"475 119 CURVE SMOOTH"
);
}
);
width = 520;
}
);
leftKerningGroup = z;
rightKerningGroup = z;
unicode = 007A;
},
{
glyphname = fi;
lastChange = "2013-12-18 08:32:10 +0400";
layers = (
{
layerId = "4FD7A5AB-3C0B-49D1-A419-889C157412FC";
name = Bold;
paths = (
{
closed = 1;
nodes = (
"624 110 OFFCURVE",
"598 119 OFFCURVE",
"574 111 CURVE",
"540 101 OFFCURVE",
"519 113 OFFCURVE",
"536 193 CURVE SMOOTH",
"590 439 LINE",
"592 449 LINE",
"593 454 LINE SMOOTH",
"601 489 OFFCURVE",
"576 515 OFFCURVE",
"542 515 CURVE SMOOTH",
"537 515 LINE",
"277 515 LINE",
"306 615 OFFCURVE",
"368 631 OFFCURVE",
"433 616 CURVE SMOOTH",
"481 605 OFFCURVE",
"499 592 OFFCURVE",
"521 581 CURVE SMOOTH",
"554 565 OFFCURVE",
"601 573 OFFCURVE",
"616 605 CURVE SMOOTH",
"633 642 OFFCURVE",
"625 676 OFFCURVE",
"584 698 CURVE SMOOTH",
"567 707 OFFCURVE",
"498 728 OFFCURVE",
"406 728 CURVE SMOOTH",
"290 728 OFFCURVE",
"191 648 OFFCURVE",
"160 515 CURVE",
"122 515 LINE SMOOTH",
"93 515 OFFCURVE",
"73 500 OFFCURVE",
"66 472 CURVE",
"54 433 OFFCURVE",
"84 400 OFFCURVE",
"122 400 CURVE SMOOTH",
"135 400 LINE",
"70 102 OFFCURVE",
"49 3 OFFCURVE",
"37 -32 CURVE",
"25 -62 OFFCURVE",
"8 -81 OFFCURVE",
"-35 -81 CURVE SMOOTH",
"-57 -81 OFFCURVE",
"-100 -92 OFFCURVE",
"-101 -141 CURVE SMOOTH",
"-102 -190 OFFCURVE",
"-56 -200 OFFCURVE",
"-35 -200 CURVE SMOOTH",
"69 -200 OFFCURVE",
"118 -147 OFFCURVE",
"146 -58 CURVE SMOOTH",
"165 -4 OFFCURVE",
"191 111 OFFCURVE",
"250 400 CURVE",
"461 400 LINE",
"407 149 LINE SMOOTH",
"388 61 OFFCURVE",
"435 -10 OFFCURVE",
"519 -10 CURVE SMOOTH",
"549 -10 OFFCURVE",
"582 -3 OFFCURVE",
"603 8 CURVE SMOOTH",
"635 25 OFFCURVE",
"647 51 OFFCURVE",
"635 82 CURVE SMOOTH"
);
}
);
width = 728;
}
);
leftMetricsKey = f;
rightMetricsKey = i;
unicode = FB01;
},
{
glyphname = fl;
lastChange = "2013-12-18 08:32:10 +0400";
layers = (
{
anchors = (
{
name = bottom;
position = "{467, 0}";
},
{
name = top;
position = "{576, 515}";
},
{
name = topright;
position = "{697, 515}";
}
);
layerId = "4FD7A5AB-3C0B-49D1-A419-889C157412FC";
leftMetricsKey = f;
rightMetricsKey = l;
name = Bold;
paths = (
{
closed = 1;
nodes = (
"572 101 OFFCURVE",
"553 113 OFFCURVE",
"568 193 CURVE SMOOTH",
"671 679 LINE SMOOTH",
"678 714 OFFCURVE",
"654 740 OFFCURVE",
"620 740 CURVE SMOOTH",
"594 740 OFFCURVE",
"573 729 OFFCURVE",
"561 707 CURVE",
"530 716 OFFCURVE",
"474 728 OFFCURVE",
"406 728 CURVE SMOOTH",
"290 728 OFFCURVE",
"191 648 OFFCURVE",
"160 515 CURVE",
"122 515 LINE SMOOTH",
"93 515 OFFCURVE",
"73 500 OFFCURVE",
"66 472 CURVE",
"54 433 OFFCURVE",
"84 400 OFFCURVE",
"122 400 CURVE SMOOTH",
"135 400 LINE",
"70 102 OFFCURVE",
"49 3 OFFCURVE",
"37 -32 CURVE",
"25 -62 OFFCURVE",
"8 -81 OFFCURVE",
"-35 -81 CURVE SMOOTH",
"-57 -81 OFFCURVE",
"-100 -92 OFFCURVE",
"-101 -141 CURVE SMOOTH",
"-102 -190 OFFCURVE",
"-56 -200 OFFCURVE",
"-35 -200 CURVE SMOOTH",
"69 -200 OFFCURVE",
"118 -147 OFFCURVE",
"146 -58 CURVE SMOOTH",
"165 -4 OFFCURVE",
"191 111 OFFCURVE",
"250 400 CURVE",
"325 400 LINE SMOOTH",
"341 400 OFFCURVE",
"376 415 OFFCURVE",
"382 440 CURVE",
"393 478 OFFCURVE",
"364 515 OFFCURVE",
"325 515 CURVE SMOOTH",
"277 515 LINE",
"306 615 OFFCURVE",
"368 631 OFFCURVE",
"433 616 CURVE SMOOTH",
"481 605 OFFCURVE",
"499 592 OFFCURVE",
"530 577 CURVE",
"439 149 LINE SMOOTH",
"423 61 OFFCURVE",
"467 -10 OFFCURVE",
"551 -10 CURVE SMOOTH",
"581 -10 OFFCURVE",
"614 -3 OFFCURVE",
"635 8 CURVE SMOOTH",
"667 25 OFFCURVE",
"679 51 OFFCURVE",
"667 82 CURVE SMOOTH",
"656 110 OFFCURVE",
"630 119 OFFCURVE",
"606 111 CURVE"
);
}
);
width = 707.218;
}
);
leftMetricsKey = f;
rightMetricsKey = l;
unicode = FB02;
},
{
glyphname = ordfeminine;
lastChange = "2013-12-18 08:32:10 +0400";
layers = (
{
anchors = (
{
name = ogonek;
position = "{517, 10}";
},
{
name = top;
position = "{321, 515}";
}
);
layerId = "4FD7A5AB-3C0B-49D1-A419-889C157412FC";
name = Bold;
paths = (
{
closed = 1;
nodes = (
"435 700 OFFCURVE",
"418 686 OFFCURVE",
"415 663 CURVE SMOOTH",
"414 660 OFFCURVE",
"412 659 OFFCURVE",
"412 662 CURVE SMOOTH",
"403 683 OFFCURVE",
"370 710 OFFCURVE",
"324 710 CURVE SMOOTH",
"226 710 OFFCURVE",
"148 638 OFFCURVE",
"135 534 CURVE SMOOTH",
"122 431 OFFCURVE",
"184 360 OFFCURVE",
"282 360 CURVE SMOOTH",
"328 360 OFFCURVE",
"367 386 OFFCURVE",
"380 407 CURVE SMOOTH",
"382 410 OFFCURVE",
"384 409 OFFCURVE",
"383 406 CURVE SMOOTH",
"380 383 OFFCURVE",
"395 370 OFFCURVE",
"418 370 CURVE SMOOTH",
"441 370 OFFCURVE",
"459 383 OFFCURVE",
"462 406 CURVE SMOOTH",
"494 663 LINE SMOOTH",
"497 686 OFFCURVE",
"481 700 OFFCURVE",
"458 700 CURVE SMOOTH"
);
},
{
closed = 1;
nodes = (
"239 438 OFFCURVE",
"204 480 OFFCURVE",
"211 534 CURVE SMOOTH",
"218 589 OFFCURVE",
"263 631 OFFCURVE",
"321 631 CURVE SMOOTH",
"381 631 OFFCURVE",
"416 589 OFFCURVE",
"409 534 CURVE SMOOTH",
"402 480 OFFCURVE",
"357 438 OFFCURVE",
"297 438 CURVE SMOOTH"
);
}
);
width = 648;
}
);
unicode = 00AA;
},
{
glyphname = ordmasculine;
lastChange = "2013-12-18 08:32:10 +0400";
layers = (
{
anchors = (
{
name = top;
position = "{310, 515}";
}
);
layerId = "4FD7A5AB-3C0B-49D1-A419-889C157412FC";
name = Bold;
paths = (
{
closed = 1;
nodes = (
"401 480 OFFCURVE",
"353 438 OFFCURVE",
"300 438 CURVE",
"247 438 OFFCURVE",
"209 480 OFFCURVE",
"216 534 CURVE",
"223 589 OFFCURVE",
"271 631 OFFCURVE",
"324 631 CURVE",
"377 631 OFFCURVE",
"415 589 OFFCURVE",
"408 534 CURVE"
);
},
{
closed = 1;
nodes = (
"499 631 OFFCURVE",
"430 710 OFFCURVE",
"333 710 CURVE",
"236 710 OFFCURVE",
"149 631 OFFCURVE",
"137 534 CURVE",
"125 437 OFFCURVE",
"194 360 OFFCURVE",
"291 360 CURVE",
"388 360 OFFCURVE",
"475 437 OFFCURVE",
"487 534 CURVE"
);
}
);
width = 624;
}
);
unicode = 00BA;
},
{
glyphname = pi;
lastChange = "2013-12-18 08:32:10 +0400";
layers = (
{
layerId = "4FD7A5AB-3C0B-49D1-A419-889C157412FC";
name = Bold;
paths = (
{
closed = 1;
nodes = (
"546 418 LINE SMOOTH",
"574 418 OFFCURVE",
"599 438 OFFCURVE",
"605 466 CURVE SMOOTH",
"611 494 OFFCURVE",
"595 515 OFFCURVE",
"567 515 CURVE SMOOTH",
"129 515 LINE SMOOTH",
"101 515 OFFCURVE",
"75 495 OFFCURVE",
"70 467 CURVE SMOOTH",
"64 439 OFFCURVE",
"80 418 OFFCURVE",
"108 418 CURVE SMOOTH",
"124 418 LINE SMOOTH",
"127 418 OFFCURVE",
"129 416 OFFCURVE",
"128 413 CURVE SMOOTH",
"51 49 LINE SMOOTH",
"45 21 OFFCURVE",
"60 0 OFFCURVE",
"88 0 CURVE SMOOTH",
"116 0 OFFCURVE",
"142 21 OFFCURVE",
"148 49 CURVE SMOOTH",
"225 413 LINE SMOOTH",
"226 416 OFFCURVE",
"228 418 OFFCURVE",
"231 418 CURVE SMOOTH",
"423 418 LINE SMOOTH",
"426 418 OFFCURVE",
"428 416 OFFCURVE",
"427 413 CURVE SMOOTH",
"350 49 LINE SMOOTH",
"344 21 OFFCURVE",
"359 0 OFFCURVE",
"387 0 CURVE SMOOTH",
"415 0 OFFCURVE",
"441 21 OFFCURVE",
"447 49 CURVE SMOOTH",
"524 413 LINE SMOOTH",
"525 416 OFFCURVE",
"527 418 OFFCURVE",
"530 418 CURVE SMOOTH"
);
}
);
width = 600;
}
);
unicode = 03C0;
},
{
glyphname = zero;
lastChange = "2013-12-18 08:32:10 +0400";
layers = (
{
layerId = "4FD7A5AB-3C0B-49D1-A419-889C157412FC";
name = Bold;
paths = (
{
closed = 1;
nodes = (
"191 110 OFFCURVE",
"152 189 OFFCURVE",
"186 350 CURVE",
"220 511 OFFCURVE",
"293 590 OFFCURVE",
"379 590 CURVE",
"465 590 OFFCURVE",
"504 511 OFFCURVE",
"470 350 CURVE",
"436 189 OFFCURVE",
"363 110 OFFCURVE",
"277 110 CURVE"
);
},
{
closed = 1;
nodes = (
"420 -10 OFFCURVE",
"544 137 OFFCURVE",
"590 350 CURVE",
"635 563 OFFCURVE",
"573 710 OFFCURVE",
"404 710 CURVE",
"235 710 OFFCURVE",
"111 563 OFFCURVE",
"66 350 CURVE",
"20 137 OFFCURVE",
"82 -10 OFFCURVE",
"251 -10 CURVE"
);
}
);
width = 636.194;
}
);
unicode = 0030;
},
{
glyphname = one;
lastChange = "2013-12-18 08:32:10 +0400";
layers = (
{
layerId = "4FD7A5AB-3C0B-49D1-A419-889C157412FC";
name = Bold;
paths = (
{
closed = 1;
nodes = (
"281 700 OFFCURVE",
"269 697 OFFCURVE",
"259 691 CURVE SMOOTH",
"89 601 LINE SMOOTH",
"56 584 OFFCURVE",
"37 548 OFFCURVE",
"49 518 CURVE SMOOTH",
"61 488 OFFCURVE",
"95 480 OFFCURVE",
"128 497 CURVE SMOOTH",
"184 527 LINE SMOOTH",
"192 531 OFFCURVE",
"196 528 OFFCURVE",
"195 520 CURVE SMOOTH",
"97 61 LINE SMOOTH",
"90 26 OFFCURVE",
"109 0 OFFCURVE",
"143 0 CURVE SMOOTH",
"178 0 OFFCURVE",
"210 26 OFFCURVE",
"217 61 CURVE SMOOTH",
"340 639 LINE SMOOTH",
"347 674 OFFCURVE",
"328 700 OFFCURVE",
"294 700 CURVE SMOOTH"
);
}
);
width = 449.441;
}
);
unicode = 0031;
},
{
glyphname = two;
lastChange = "2013-12-18 08:32:10 +0400";
layers = (
{
layerId = "4FD7A5AB-3C0B-49D1-A419-889C157412FC";
name = Bold;
paths = (
{
closed = 1;
nodes = (
"254 120 LINE SMOOTH",
"245 120 OFFCURVE",
"244 126 OFFCURVE",
"251 132 CURVE SMOOTH",
"381 245 LINE SMOOTH",
"515 360 OFFCURVE",
"606 511 OFFCURVE",
"534 625 CURVE SMOOTH",
"474 722 OFFCURVE",
"325 735 OFFCURVE",
"172 631 CURVE SMOOTH",
"127 600 OFFCURVE",
"107 559 OFFCURVE",
"125 532 CURVE SMOOTH",
"143 507 OFFCURVE",
"176 502 OFFCURVE",
"207 526 CURVE SMOOTH",
"306 603 OFFCURVE",
"390 597 OFFCURVE",
"423 546 CURVE SMOOTH",
"458 493 OFFCURVE",
"405 409 OFFCURVE",
"319 334 CURVE SMOOTH",
"52 101 LINE SMOOTH",
"25 77 OFFCURVE",
"15 44 OFFCURVE",
"31 21 CURVE SMOOTH",
"41 5 OFFCURVE",
"59 -2 OFFCURVE",
"78 0 CURVE",
"393 0 LINE SMOOTH",
"428 0 OFFCURVE",
"459 25 OFFCURVE",
"467 59 CURVE SMOOTH",
"474 94 OFFCURVE",
"454 120 OFFCURVE",
"419 120 CURVE SMOOTH"
);
}
);
width = 606.335;
}
);
unicode = 0032;
},
{
glyphname = three;
lastChange = "2013-12-18 08:32:10 +0400";
layers = (
{
layerId = "4FD7A5AB-3C0B-49D1-A419-889C157412FC";
name = Bold;
paths = (
{
closed = 1;
nodes = (
"254 348 OFFCURVE",
"315 354 OFFCURVE",
"351 310 CURVE SMOOTH",
"382 271 OFFCURVE",
"362 187 OFFCURVE",
"300 141 CURVE SMOOTH",
"240 96 OFFCURVE",
"171 102 OFFCURVE",
"120 134 CURVE SMOOTH",
"97 148 OFFCURVE",
"71 149 OFFCURVE",
"46 129 CURVE SMOOTH",
"45 128 LINE SMOOTH",
"11 100 OFFCURVE",
"0 54 OFFCURVE",
"30 35 CURVE SMOOTH",
"128 -27 OFFCURVE",
"262 -17 OFFCURVE",
"376 75 CURVE SMOOTH",
"474 155 OFFCURVE",
"517 317 OFFCURVE",
"453 399 CURVE",
"376 495 OFFCURVE",
"244 474 OFFCURVE",
"155 435 CURVE SMOOTH",
"118 419 OFFCURVE",
"107 370 OFFCURVE",
"130 343 CURVE SMOOTH",
"146 324 OFFCURVE",
"173 328 OFFCURVE",
"204 336 CURVE SMOOTH"
);
},
{
closed = 1;
nodes = (
"173 700 LINE SMOOTH",
"138 700 OFFCURVE",
"106 675 OFFCURVE",
"99 641 CURVE SMOOTH",
"92 606 OFFCURVE",
"112 580 OFFCURVE",
"147 580 CURVE SMOOTH",
"468 580 LINE SMOOTH",
"503 580 OFFCURVE",
"535 605 OFFCURVE",
"542 639 CURVE SMOOTH",
"549 674 OFFCURVE",
"529 700 OFFCURVE",
"494 700 CURVE SMOOTH"
);
},
{
closed = 1;
nodes = (
"156 441 LINE SMOOTH",
"124 416 OFFCURVE",
"109 386 OFFCURVE",
"123 358 CURVE SMOOTH",
"138 329 OFFCURVE",
"175 320 OFFCURVE",
"206 345 CURVE SMOOTH",
"506 590 LINE SMOOTH",
"538 615 OFFCURVE",
"553 645 OFFCURVE",
"539 673 CURVE SMOOTH",
"524 702 OFFCURVE",
"487 711 OFFCURVE",
"456 686 CURVE SMOOTH"
);
}
);
width = 588.252;
}
);
unicode = 0033;
},
{
glyphname = four;
lastChange = "2013-12-18 08:32:10 +0400";
layers = (
{
layerId = "4FD7A5AB-3C0B-49D1-A419-889C157412FC";
name = Bold;
paths = (
{
closed = 1;
nodes = (
"514 260 LINE SMOOTH",
"507 260 OFFCURVE",
"505 263 OFFCURVE",
"506 270 CURVE SMOOTH",
"585 639 LINE SMOOTH",
"592 674 OFFCURVE",
"572 700 OFFCURVE",
"538 700 CURVE SMOOTH",
"525 700 OFFCURVE",
"513 696 OFFCURVE",
"501 689 CURVE SMOOTH",
"495 686 OFFCURVE",
"489 681 OFFCURVE",
"483 676 CURVE SMOOTH",
"34 239 LINE SMOOTH",
"7 212 OFFCURVE",
"2 175 OFFCURVE",
"24 154 CURVE SMOOTH",
"35 145 OFFCURVE",
"46 140 OFFCURVE",
"58 140 CURVE SMOOTH",
"62 140 LINE",
"348 140 LINE SMOOTH",
"354 140 OFFCURVE",
"358 136 OFFCURVE",
"356 130 CURVE SMOOTH",
"342 61 LINE SMOOTH",
"334 26 OFFCURVE",
"354 0 OFFCURVE",
"388 0 CURVE SMOOTH",
"423 0 OFFCURVE",
"454 26 OFFCURVE",
"462 61 CURVE SMOOTH",
"476 130 LINE SMOOTH",
"478 136 OFFCURVE",
"481 140 OFFCURVE",
"488 140 CURVE SMOOTH",
"515 140 LINE SMOOTH",
"550 140 OFFCURVE",
"582 165 OFFCURVE",
"589 199 CURVE SMOOTH",
"596 234 OFFCURVE",
"576 260 OFFCURVE",
"541 260 CURVE SMOOTH"
);
},
{
closed = 1;
nodes = (
"227 260 LINE SMOOTH",
"219 260 OFFCURVE",
"217 266 OFFCURVE",
"223 272 CURVE SMOOTH",
"414 456 LINE SMOOTH",
"421 464 OFFCURVE",
"427 461 OFFCURVE",
"425 452 CURVE SMOOTH",
"386 270 LINE SMOOTH",
"385 263 OFFCURVE",
"380 260 OFFCURVE",
"374 260 CURVE SMOOTH"
);
}
);
width = 636.389;
}
);
unicode = 0034;
},
{
glyphname = five;
lastChange = "2013-12-18 08:32:10 +0400";
layers = (
{
layerId = "4FD7A5AB-3C0B-49D1-A419-889C157412FC";
name = Bold;
paths = (
{
closed = 1;
nodes = (
"418 496 OFFCURVE",
"334 520 OFFCURVE",
"246 507 CURVE SMOOTH",
"239 506 OFFCURVE",
"237 510 OFFCURVE",
"240 517 CURVE SMOOTH",
"258 571 LINE SMOOTH",
"260 577 OFFCURVE",
"265 580 OFFCURVE",
"271 580 CURVE SMOOTH",
"506 580 LINE SMOOTH",
"541 580 OFFCURVE",
"572 605 OFFCURVE",
"579 639 CURVE SMOOTH",
"587 674 OFFCURVE",
"566 700 OFFCURVE",
"531 700 CURVE SMOOTH",
"237 700 LINE SMOOTH",
"206 700 OFFCURVE",
"178 680 OFFCURVE",
"167 652 CURVE",
"164 648 OFFCURVE",
"163 644 OFFCURVE",
"161 639 CURVE SMOOTH",
"85 424 LINE SMOOTH",
"72 389 OFFCURVE",
"89 360 OFFCURVE",
"122 356 CURVE",
"132 356 LINE",
"144 356 OFFCURVE",
"158 360 OFFCURVE",
"172 367 CURVE SMOOTH",
"244 404 OFFCURVE",
"324 401 OFFCURVE",
"367 346 CURVE SMOOTH",
"403 301 OFFCURVE",
"384 215 OFFCURVE",
"329 169 CURVE SMOOTH",
"327 168 LINE SMOOTH",
"262 114 OFFCURVE",
"179 104 OFFCURVE",
"122 138 CURVE SMOOTH",
"99 152 OFFCURVE",
"72 153 OFFCURVE",
"48 133 CURVE SMOOTH",
"47 132 LINE SMOOTH",
"13 104 OFFCURVE",
"4 61 OFFCURVE",
"33 40 CURVE SMOOTH",
"129 -27 OFFCURVE",
"278 -13 OFFCURVE",
"394 83 CURVE SMOOTH",
"508 176 OFFCURVE",
"543 339 OFFCURVE",
"469 431 CURVE SMOOTH"
);
}
);
width = 597.697;
}
);
unicode = 0035;
},
{
glyphname = six;
lastChange = "2013-12-18 08:32:10 +0400";
layers = (
{
layerId = "4FD7A5AB-3C0B-49D1-A419-889C157412FC";
name = Bold;
paths = (
{
closed = 1;
nodes = (
"274 434 OFFCURVE",
"239 413 OFFCURVE",
"214 392 CURVE SMOOTH",
"208 386 OFFCURVE",
"203 391 OFFCURVE",
"207 398 CURVE SMOOTH",
"258 476 OFFCURVE",
"352 558 OFFCURVE",
"444 585 CURVE SMOOTH",
"481 596 OFFCURVE",
"509 622 OFFCURVE",
"511 656 CURVE",
"511 657 LINE",
"514 691 OFFCURVE",
"483 712 OFFCURVE",
"439 700 CURVE SMOOTH",
"133 617 OFFCURVE",
"53 294 OFFCURVE",
"45 212 CURVE SMOOTH",
"32 89 OFFCURVE",
"98 -10 OFFCURVE",
"221 -10 CURVE SMOOTH",
"344 -10 OFFCURVE",
"465 89 OFFCURVE",
"491 212 CURVE SMOOTH",
"517 335 OFFCURVE",
"431 434 OFFCURVE",
"331 434 CURVE SMOOTH"
);
},
{
closed = 1;
nodes = (
"188 110 OFFCURVE",
"153 155 OFFCURVE",
"165 212 CURVE SMOOTH",
"177 269 OFFCURVE",
"232 314 OFFCURVE",
"290 314 CURVE SMOOTH",
"347 314 OFFCURVE",
"383 269 OFFCURVE",
"371 212 CURVE SMOOTH",
"359 155 OFFCURVE",
"303 110 OFFCURVE",
"246 110 CURVE SMOOTH"
);
}
);
width = 566.201;
}
);
unicode = 0036;
},
{
glyphname = seven;
lastChange = "2013-12-18 08:32:10 +0400";
layers = (
{
layerId = "4FD7A5AB-3C0B-49D1-A419-889C157412FC";
name = Bold;
paths = (
{
closed = 1;
nodes = (
"551 697 LINE",
"545 699 OFFCURVE",
"538 700 OFFCURVE",
"531 700 CURVE SMOOTH",
"218 700 LINE SMOOTH",
"183 700 OFFCURVE",
"152 675 OFFCURVE",
"144 641 CURVE SMOOTH",
"137 606 OFFCURVE",
"157 580 OFFCURVE",
"192 580 CURVE SMOOTH",
"406 580 LINE SMOOTH",
"414 580 OFFCURVE",
"416 575 OFFCURVE",
"412 568 CURVE SMOOTH",
"105 84 LINE SMOOTH",
"84 51 OFFCURVE",
"90 17 OFFCURVE",
"119 4 CURVE SMOOTH",
"148 -10 OFFCURVE",
"185 4 OFFCURVE",
"206 37 CURVE SMOOTH",
"572 614 LINE SMOOTH",
"593 648 OFFCURVE",
"587 681 OFFCURVE",
"558 694 CURVE SMOOTH"
);
}
);
width = 578.496;
}
);
unicode = 0037;
},
{
glyphname = eight;
lastChange = "2013-12-18 08:32:10 +0400";
layers = (
{
layerId = "4FD7A5AB-3C0B-49D1-A419-889C157412FC";
name = Bold;
paths = (
{
closed = 1;
nodes = (
"460 418 OFFCURVE",
"494 453 OFFCURVE",
"507 514 CURVE SMOOTH",
"529 617 OFFCURVE",
"464 700 OFFCURVE",
"361 700 CURVE SMOOTH",
"258 700 OFFCURVE",
"156 617 OFFCURVE",
"134 514 CURVE SMOOTH",
"123 462 OFFCURVE",
"142 420 OFFCURVE",
"162 401 CURVE SMOOTH",
"167 397 OFFCURVE",
"167 393 OFFCURVE",
"159 389 CURVE SMOOTH",
"99 356 OFFCURVE",
"51 298 OFFCURVE",
"35 224 CURVE SMOOTH",
"9 100 OFFCURVE",
"88 0 OFFCURVE",
"212 0 CURVE SMOOTH",
"336 0 OFFCURVE",
"457 100 OFFCURVE",
"483 224 CURVE SMOOTH",
"499 298 OFFCURVE",
"475 356 OFFCURVE",
"430 390 CURVE SMOOTH",
"424 394 OFFCURVE",
"424 398 OFFCURVE",
"432 402 CURVE SMOOTH"
);
},
{
closed = 1;
nodes = (
"262 551 OFFCURVE",
"297 580 OFFCURVE",
"335 580 CURVE SMOOTH",
"372 580 OFFCURVE",
"395 551 OFFCURVE",
"387 514 CURVE SMOOTH",
"379 477 OFFCURVE",
"344 448 OFFCURVE",
"307 448 CURVE SMOOTH",
"269 448 OFFCURVE",
"246 477 OFFCURVE",
"254 514 CURVE"
);
},
{
closed = 1;
nodes = (
"179 120 OFFCURVE",
"143 166 OFFCURVE",
"155 224 CURVE SMOOTH",
"168 282 OFFCURVE",
"223 328 OFFCURVE",
"281 328 CURVE SMOOTH",
"339 328 OFFCURVE",
"376 282 OFFCURVE",
"363 224 CURVE SMOOTH",
"351 166 OFFCURVE",
"295 120 OFFCURVE",
"237 120 CURVE SMOOTH"
);
}
);
width = 548.277;
}
);
unicode = 0038;
},
{
glyphname = nine;
lastChange = "2013-12-18 08:32:10 +0400";
layers = (
{
layerId = "4FD7A5AB-3C0B-49D1-A419-889C157412FC";
name = Bold;
paths = (
{
closed = 1;
nodes = (
"312 259 OFFCURVE",
"347 280 OFFCURVE",
"371 301 CURVE SMOOTH",
"378 307 OFFCURVE",
"383 302 OFFCURVE",
"378 295 CURVE SMOOTH",
"328 217 OFFCURVE",
"233 135 OFFCURVE",
"141 108 CURVE SMOOTH",
"104 97 OFFCURVE",
"77 71 OFFCURVE",
"74 37 CURVE",
"74 36 LINE",
"72 2 OFFCURVE",
"102 -19 OFFCURVE",
"147 -7 CURVE SMOOTH",
"453 76 OFFCURVE",
"532 399 OFFCURVE",
"541 481 CURVE SMOOTH",
"554 604 OFFCURVE",
"488 703 OFFCURVE",
"365 703 CURVE SMOOTH",
"242 703 OFFCURVE",
"121 604 OFFCURVE",
"95 481 CURVE SMOOTH",
"69 358 OFFCURVE",
"155 259 OFFCURVE",
"255 259 CURVE SMOOTH"
);
},
{
closed = 1;
nodes = (
"397 583 OFFCURVE",
"433 538 OFFCURVE",
"421 481 CURVE SMOOTH",
"409 424 OFFCURVE",
"354 379 OFFCURVE",
"296 379 CURVE SMOOTH",
"239 379 OFFCURVE",
"203 424 OFFCURVE",
"215 481 CURVE SMOOTH",
"227 538 OFFCURVE",
"282 583 OFFCURVE",
"339 583 CURVE SMOOTH"
);
}
);
width = 565.617;
}
);
unicode = 0039;
},
{
glyphname = fraction;
lastChange = "2013-12-18 08:32:10 +0400";
layers = (
{
layerId = "4FD7A5AB-3C0B-49D1-A419-889C157412FC";
name = Bold;
paths = (
{
closed = 1;
nodes = (
"634 623 LINE SMOOTH",
"655 647 OFFCURVE",
"658 677 OFFCURVE",
"637 692 CURVE SMOOTH",
"616 709 OFFCURVE",
"585 703 OFFCURVE",
"563 678 CURVE SMOOTH",
"37 77 LINE SMOOTH",
"16 53 OFFCURVE",
"14 23 OFFCURVE",
"35 8 CURVE SMOOTH",
"56 -9 OFFCURVE",
"86 -3 OFFCURVE",
"108 22 CURVE SMOOTH"
);
}
);
width = 671.33;
}
);
unicode = 2044;
},
{
glyphname = onehalf;
lastChange = "2013-12-18 08:32:10 +0400";
layers = (
{
layerId = "4FD7A5AB-3C0B-49D1-A419-889C157412FC";
leftMetricsKey = one;
rightMetricsKey = two;
name = Bold;
paths = (
{
closed = 1;
nodes = (
"211 701 OFFCURVE",
"203 699 OFFCURVE",
"196 696 CURVE SMOOTH",
"189 693 LINE",
"81 638 LINE SMOOTH",
"53 624 OFFCURVE",
"39 594 OFFCURVE",
"49 569 CURVE SMOOTH",
"58 544 OFFCURVE",
"86 538 OFFCURVE",
"114 552 CURVE SMOOTH",
"134 562 LINE SMOOTH",
"137 564 OFFCURVE",
"140 563 OFFCURVE",
"139 559 CURVE SMOOTH",
"96 354 LINE SMOOTH",
"89 324 OFFCURVE",
"106 303 OFFCURVE",
"135 303 CURVE SMOOTH",
"164 303 OFFCURVE",
"189 324 OFFCURVE",
"196 354 CURVE SMOOTH",
"259 650 LINE SMOOTH",
"265 680 OFFCURVE",
"249 701 OFFCURVE",
"220 701 CURVE SMOOTH"
);
},
{
closed = 1;
nodes = (
"677 623 LINE SMOOTH",
"698 647 OFFCURVE",
"701 677 OFFCURVE",
"680 692 CURVE SMOOTH",
"658 709 OFFCURVE",
"628 703 OFFCURVE",
"606 678 CURVE SMOOTH",
"80 77 LINE SMOOTH",
"59 53 OFFCURVE",
"56 23 OFFCURVE",
"77 8 CURVE SMOOTH",
"99 -9 OFFCURVE",
"129 -3 OFFCURVE",
"151 22 CURVE SMOOTH"
);
},
{
closed = 1;
nodes = (
"645 90 LINE SMOOTH",
"641 90 OFFCURVE",
"640 93 OFFCURVE",
"644 96 CURVE SMOOTH",
"709 154 OFFCURVE",
"777 220 OFFCURVE",
"790 280 CURVE SMOOTH",
"801 331 OFFCURVE",
"779 403 OFFCURVE",
"687 403 CURVE SMOOTH",
"647 403 OFFCURVE",
"600 383 OFFCURVE",
"574 365 CURVE SMOOTH",
"547 347 OFFCURVE",
"531 317 OFFCURVE",
"544 294 CURVE SMOOTH",
"553 277 OFFCURVE",
"587 273 OFFCURVE",
"607 288 CURVE SMOOTH",
"636 310 OFFCURVE",
"666 314 OFFCURVE",
"683 295 CURVE SMOOTH",
"714 258 OFFCURVE",
"585 146 OFFCURVE",
"505 84 CURVE",
"499 79 LINE",
"488 70 OFFCURVE",
"481 59 OFFCURVE",
"478 45 CURVE SMOOTH",
"473 19 OFFCURVE",
"488 0 OFFCURVE",
"515 0 CURVE",
"687 0 LINE",
"714 0 OFFCURVE",
"737 19 OFFCURVE",
"742 45 CURVE SMOOTH",
"748 71 OFFCURVE",
"733 90 OFFCURVE",
"706 90 CURVE SMOOTH"
);
}
);
width = 839.203;
}
);
leftMetricsKey = one.numr;
rightMetricsKey = one.numr;
unicode = 00BD;
},
{
glyphname = onequarter;
lastChange = "2013-12-18 08:32:10 +0400";
layers = (
{
layerId = "4FD7A5AB-3C0B-49D1-A419-889C157412FC";
leftMetricsKey = one;
rightMetricsKey = four;
name = Bold;
paths = (
{
closed = 1;
nodes = (
"211 701 OFFCURVE",
"203 699 OFFCURVE",
"195 696 CURVE SMOOTH",
"189 693 LINE",
"81 638 LINE SMOOTH",
"53 624 OFFCURVE",
"38 594 OFFCURVE",
"48 569 CURVE SMOOTH",
"58 544 OFFCURVE",
"86 538 OFFCURVE",
"114 552 CURVE SMOOTH",
"134 562 LINE SMOOTH",
"137 564 OFFCURVE",
"140 563 OFFCURVE",
"139 559 CURVE SMOOTH",
"95 354 LINE SMOOTH",
"89 324 OFFCURVE",
"106 303 OFFCURVE",
"135 303 CURVE SMOOTH",
"164 303 OFFCURVE",
"189 324 OFFCURVE",
"195 354 CURVE SMOOTH",
"258 650 LINE SMOOTH",
"265 680 OFFCURVE",
"248 701 OFFCURVE",
"219 701 CURVE SMOOTH"
);
},
{
closed = 1;
nodes = (
"677 623 LINE SMOOTH",
"698 647 OFFCURVE",
"700 677 OFFCURVE",
"679 692 CURVE SMOOTH",
"658 709 OFFCURVE",
"628 703 OFFCURVE",
"605 678 CURVE SMOOTH",
"80 77 LINE SMOOTH",
"58 53 OFFCURVE",
"56 23 OFFCURVE",
"77 8 CURVE SMOOTH",
"98 -9 OFFCURVE",
"129 -3 OFFCURVE",
"151 22 CURVE SMOOTH"
);
},
{
closed = 1;
nodes = (
"667 165 LINE SMOOTH",
"664 165 OFFCURVE",
"663 167 OFFCURVE",
"663 170 CURVE SMOOTH",
"702 350 LINE SMOOTH",
"708 380 OFFCURVE",
"691 401 OFFCURVE",
"662 401 CURVE SMOOTH",
"659 401 OFFCURVE",
"655 401 OFFCURVE",
"652 400 CURVE",
"638 399 OFFCURVE",
"624 392 OFFCURVE",
"613 380 CURVE SMOOTH",
"389 148 LINE SMOOTH",
"367 125 OFFCURVE",
"362 95 OFFCURVE",
"381 77 CURVE",
"387 72 LINE",
"394 67 OFFCURVE",
"403 65 OFFCURVE",
"413 65 CURVE SMOOTH",
"536 65 LINE SMOOTH",
"539 65 OFFCURVE",
"541 63 OFFCURVE",
"540 60 CURVE SMOOTH",
"538 51 LINE SMOOTH",
"532 21 OFFCURVE",
"548 0 OFFCURVE",
"577 0 CURVE SMOOTH",
"606 0 OFFCURVE",
"632 21 OFFCURVE",
"638 51 CURVE SMOOTH",
"640 60 LINE SMOOTH",
"641 63 OFFCURVE",
"643 65 OFFCURVE",
"646 65 CURVE SMOOTH",
"657 65 LINE SMOOTH",
"687 65 OFFCURVE",
"712 86 OFFCURVE",
"719 115 CURVE SMOOTH",
"725 144 OFFCURVE",
"708 165 OFFCURVE",
"678 165 CURVE SMOOTH"
);
},
{
closed = 1;
nodes = (
"538 165 LINE SMOOTH",
"534 165 OFFCURVE",
"533 168 OFFCURVE",
"537 171 CURVE SMOOTH",
"564 199 LINE SMOOTH",
"567 203 OFFCURVE",
"570 202 OFFCURVE",
"569 197 CURVE SMOOTH",
"563 170 LINE SMOOTH",
"563 167 OFFCURVE",
"560 165 OFFCURVE",
"557 165 CURVE SMOOTH"
);
}
);
width = 766.198;
}
);
leftMetricsKey = one.numr;
rightMetricsKey = one.numr;
unicode = 00BC;
},
{
glyphname = threequarters;
lastChange = "2013-12-18 08:32:10 +0400";
layers = (
{
layerId = "4FD7A5AB-3C0B-49D1-A419-889C157412FC";
leftMetricsKey = three;
rightMetricsKey = four;
name = Bold;
paths = (
{
closed = 1;
nodes = (
"277 494 OFFCURVE",
"256 538 OFFCURVE",
"209 555 CURVE SMOOTH",
"207 556 OFFCURVE",
"206 559 OFFCURVE",
"210 562 CURVE SMOOTH",
"276 622 LINE",
"286 630 OFFCURVE",
"293 641 OFFCURVE",
"296 654 CURVE SMOOTH",
"301 681 OFFCURVE",
"286 700 OFFCURVE",
"259 700 CURVE SMOOTH",
"112 700 LINE SMOOTH",
"85 700 OFFCURVE",
"62 682 OFFCURVE",
"57 656 CURVE SMOOTH",
"51 629 OFFCURVE",
"66 610 OFFCURVE",
"93 610 CURVE SMOOTH",
"134 610 LINE SMOOTH",
"139 610 OFFCURVE",
"140 607 OFFCURVE",
"136 604 CURVE SMOOTH",
"70 544 LINE SMOOTH",
"50 525 OFFCURVE",
"43 498 OFFCURVE",
"59 481 CURVE SMOOTH",
"70 468 OFFCURVE",
"87 465 OFFCURVE",
"104 471 CURVE",
"109 473 LINE",
"135 485 OFFCURVE",
"183 484 OFFCURVE",
"176 438 CURVE SMOOTH",
"170 409 OFFCURVE",
"144 386 OFFCURVE",
"114 386 CURVE SMOOTH",
"103 386 OFFCURVE",
"88 390 OFFCURVE",
"78 395 CURVE SMOOTH",
"65 402 OFFCURVE",
"42 399 OFFCURVE",
"26 381 CURVE SMOOTH",
"8 360 OFFCURVE",
"8 333 OFFCURVE",
"26 318 CURVE SMOOTH",
"41 306 OFFCURVE",
"65 300 OFFCURVE",
"92 300 CURVE SMOOTH",
"161 300 OFFCURVE",
"249 351 OFFCURVE",
"266 438 CURVE SMOOTH"
);
},
{
closed = 1;
nodes = (
"668 623 LINE SMOOTH",
"689 647 OFFCURVE",
"691 677 OFFCURVE",
"671 692 CURVE SMOOTH",
"649 709 OFFCURVE",
"619 703 OFFCURVE",
"597 678 CURVE SMOOTH",
"71 77 LINE SMOOTH",
"50 53 OFFCURVE",
"47 23 OFFCURVE",
"68 8 CURVE SMOOTH",
"90 -9 OFFCURVE",
"120 -3 OFFCURVE",
"142 22 CURVE SMOOTH"
);
},
{
closed = 1;
nodes = (
"661 165 LINE SMOOTH",
"658 165 OFFCURVE",
"656 167 OFFCURVE",
"657 170 CURVE SMOOTH",
"695 350 LINE SMOOTH",
"701 380 OFFCURVE",
"685 401 OFFCURVE",
"656 401 CURVE SMOOTH",
"652 401 OFFCURVE",
"649 401 OFFCURVE",
"645 400 CURVE",
"632 399 OFFCURVE",
"618 392 OFFCURVE",
"606 380 CURVE SMOOTH",
"382 148 LINE SMOOTH",
"360 125 OFFCURVE",
"356 95 OFFCURVE",
"374 77 CURVE",
"381 72 LINE",
"387 67 OFFCURVE",
"396 65 OFFCURVE",
"406 65 CURVE SMOOTH",
"529 65 LINE SMOOTH",
"532 65 OFFCURVE",
"534 63 OFFCURVE",
"533 60 CURVE SMOOTH",
"531 51 LINE SMOOTH",
"525 21 OFFCURVE",
"542 0 OFFCURVE",
"571 0 CURVE SMOOTH",
"600 0 OFFCURVE",
"625 21 OFFCURVE",
"631 51 CURVE SMOOTH",
"633 60 LINE SMOOTH",
"634 63 OFFCURVE",
"636 65 OFFCURVE",
"639 65 CURVE SMOOTH",
"650 65 LINE SMOOTH",
"680 65 OFFCURVE",
"706 86 OFFCURVE",
"712 115 CURVE SMOOTH",
"718 144 OFFCURVE",
"702 165 OFFCURVE",
"672 165 CURVE SMOOTH"
);
},
{
closed = 1;
nodes = (
"532 165 LINE SMOOTH",
"528 165 OFFCURVE",
"526 168 OFFCURVE",
"530 171 CURVE SMOOTH",
"557 199 LINE SMOOTH",
"561 203 OFFCURVE",
"563 202 OFFCURVE",
"562 197 CURVE SMOOTH",
"557 170 LINE SMOOTH",
"556 167 OFFCURVE",
"554 165 OFFCURVE",
"551 165 CURVE SMOOTH"
);
}
);
width = 759.249;
}
);
leftMetricsKey = three.numr;
rightMetricsKey = three.numr;
unicode = 00BE;
},
{
glyphname = onesuperior;
lastChange = "2013-12-18 08:32:10 +0400";
layers = (
{
layerId = "4FD7A5AB-3C0B-49D1-A419-889C157412FC";
name = Bold;
paths = (
{
closed = 1;
nodes = (
"224 701 OFFCURVE",
"216 699 OFFCURVE",
"208 696 CURVE SMOOTH",
"202 693 LINE",
"94 638 LINE SMOOTH",
"66 624 OFFCURVE",
"52 594 OFFCURVE",
"61 569 CURVE SMOOTH",
"71 544 OFFCURVE",
"99 538 OFFCURVE",
"127 552 CURVE SMOOTH",
"147 562 LINE SMOOTH",
"150 564 OFFCURVE",
"153 563 OFFCURVE",
"152 559 CURVE SMOOTH",
"109 354 LINE SMOOTH",
"102 324 OFFCURVE",
"119 303 OFFCURVE",
"148 303 CURVE SMOOTH",
"177 303 OFFCURVE",
"202 324 OFFCURVE",
"209 354 CURVE SMOOTH",
"272 650 LINE SMOOTH",
"278 680 OFFCURVE",
"261 701 OFFCURVE",
"232 701 CURVE SMOOTH"
);
}
);
width = 330;
}
);
unicode = 00B9;
},
{
glyphname = twosuperior;
lastChange = "2013-12-18 08:32:10 +0400";
layers = (
{
layerId = "4FD7A5AB-3C0B-49D1-A419-889C157412FC";
name = Bold;
paths = (
{
closed = 1;
nodes = (
"183 389 LINE SMOOTH",
"179 389 OFFCURVE",
"179 392 OFFCURVE",
"183 395 CURVE SMOOTH",
"248 453 OFFCURVE",
"316 519 OFFCURVE",
"329 579 CURVE SMOOTH",
"340 630 OFFCURVE",
"318 702 OFFCURVE",
"226 702 CURVE SMOOTH",
"186 702 OFFCURVE",
"139 682 OFFCURVE",
"113 664 CURVE SMOOTH",
"86 646 OFFCURVE",
"70 616 OFFCURVE",
"83 593 CURVE SMOOTH",
"92 576 OFFCURVE",
"125 572 OFFCURVE",
"145 587 CURVE SMOOTH",
"175 609 OFFCURVE",
"205 613 OFFCURVE",
"222 594 CURVE SMOOTH",
"253 557 OFFCURVE",
"123 445 OFFCURVE",
"44 383 CURVE",
"38 378 LINE",
"27 369 OFFCURVE",
"20 358 OFFCURVE",
"17 344 CURVE SMOOTH",
"11 318 OFFCURVE",
"26 299 OFFCURVE",
"53 299 CURVE",
"225 299 LINE",
"252 299 OFFCURVE",
"275 318 OFFCURVE",
"281 344 CURVE SMOOTH",
"286 370 OFFCURVE",
"271 389 OFFCURVE",
"244 389 CURVE SMOOTH"
);
}
);
width = 384;
}
);
leftMetricsKey = two;
unicode = 00B2;
},
{
glyphname = threesuperior;
lastChange = "2013-12-18 08:32:10 +0400";
layers = (
{
layerId = "4FD7A5AB-3C0B-49D1-A419-889C157412FC";
rightMetricsKey = three;
name = Bold;
paths = (
{
closed = 1;
nodes = (
"293 494 OFFCURVE",
"272 538 OFFCURVE",
"226 555 CURVE SMOOTH",
"223 556 OFFCURVE",
"223 559 OFFCURVE",
"226 562 CURVE SMOOTH",
"292 622 LINE",
"302 630 OFFCURVE",
"309 641 OFFCURVE",
"312 654 CURVE SMOOTH",
"317 681 OFFCURVE",
"303 700 OFFCURVE",
"276 700 CURVE SMOOTH",
"129 700 LINE SMOOTH",
"102 700 OFFCURVE",
"79 682 OFFCURVE",
"73 656 CURVE SMOOTH",
"67 629 OFFCURVE",
"82 610 OFFCURVE",
"109 610 CURVE SMOOTH",
"150 610 LINE SMOOTH",
"155 610 OFFCURVE",
"156 607 OFFCURVE",
"152 604 CURVE SMOOTH",
"86 544 LINE SMOOTH",
"66 525 OFFCURVE",
"60 498 OFFCURVE",
"75 481 CURVE SMOOTH",
"86 468 OFFCURVE",
"103 465 OFFCURVE",
"120 471 CURVE",
"125 473 LINE",
"151 485 OFFCURVE",
"200 484 OFFCURVE",
"192 438 CURVE SMOOTH",
"187 409 OFFCURVE",
"160 386 OFFCURVE",
"130 386 CURVE SMOOTH",
"119 386 OFFCURVE",
"105 390 OFFCURVE",
"95 395 CURVE SMOOTH",
"81 402 OFFCURVE",
"59 399 OFFCURVE",
"43 381 CURVE SMOOTH",
"24 360 OFFCURVE",
"25 333 OFFCURVE",
"42 318 CURVE SMOOTH",
"57 306 OFFCURVE",
"81 300 OFFCURVE",
"108 300 CURVE SMOOTH",
"177 300 OFFCURVE",
"265 351 OFFCURVE",
"282 438 CURVE SMOOTH"
);
}
);
width = 339.038;
}
);
leftMetricsKey = three;
rightMetricsKey = three;
unicode = 00B3;
},
{
glyphname = asterisk;
lastChange = "2013-12-18 08:32:10 +0400";
layers = (
{
layerId = "4FD7A5AB-3C0B-49D1-A419-889C157412FC";
name = Bold;
paths = (
{
closed = 1;
nodes = (
"202 417 LINE SMOOTH",
"196 397 OFFCURVE",
"206 382 OFFCURVE",
"225 382 CURVE SMOOTH",
"245 382 OFFCURVE",
"262 397 OFFCURVE",
"264 417 CURVE SMOOTH",
"272 496 LINE SMOOTH",
"272 500 OFFCURVE",
"275 502 OFFCURVE",
"278 499 CURVE SMOOTH",
"333 451 LINE SMOOTH",
"347 440 OFFCURVE",
"368 444 OFFCURVE",
"381 461 CURVE SMOOTH",
"395 478 OFFCURVE",
"393 498 OFFCURVE",
"376 506 CURVE SMOOTH",
"310 539 LINE SMOOTH",
"306 540 OFFCURVE",
"307 544 OFFCURVE",
"311 545 CURVE SMOOTH",
"391 578 LINE SMOOTH",
"410 585 OFFCURVE",
"423 602 OFFCURVE",
"416 623 CURVE SMOOTH",
"409 640 OFFCURVE",
"390 644 OFFCURVE",
"372 632 CURVE SMOOTH",
"297 585 LINE SMOOTH",
"292 582 OFFCURVE",
"289 584 OFFCURVE",
"291 588 CURVE SMOOTH",
"317 667 LINE SMOOTH",
"323 687 OFFCURVE",
"314 702 OFFCURVE",
"295 702 CURVE SMOOTH",
"275 702 OFFCURVE",
"257 687 OFFCURVE",
"255 667 CURVE SMOOTH",
"247 588 LINE SMOOTH",
"247 584 OFFCURVE",
"244 582 OFFCURVE",
"241 585 CURVE SMOOTH",
"186 633 LINE SMOOTH",
"172 644 OFFCURVE",
"151 640 OFFCURVE",
"138 623 CURVE SMOOTH",
"124 606 OFFCURVE",
"126 586 OFFCURVE",
"143 578 CURVE SMOOTH",
"209 545 LINE SMOOTH",
"213 544 OFFCURVE",
"212 540 OFFCURVE",
"208 539 CURVE SMOOTH",
"128 506 LINE SMOOTH",
"109 499 OFFCURVE",
"96 482 OFFCURVE",
"103 461 CURVE SMOOTH",
"110 444 OFFCURVE",
"129 440 OFFCURVE",
"147 452 CURVE SMOOTH",
"222 499 LINE SMOOTH",
"227 502 OFFCURVE",
"230 500 OFFCURVE",
"228 496 CURVE SMOOTH"
);
}
);
width = 434.921;
}
);
unicode = 002A;
},
{
glyphname = backslash;
lastChange = "2013-12-18 08:32:10 +0400";
layers = (
{
layerId = "4FD7A5AB-3C0B-49D1-A419-889C157412FC";
name = Bold;
paths = (
{
closed = 1;
nodes = (
"144 782 OFFCURVE",
"128 754 OFFCURVE",
"135 727 CURVE SMOOTH",
"364 -104 LINE SMOOTH",
"371 -131 OFFCURVE",
"398 -141 OFFCURVE",
"426 -128 CURVE SMOOTH",
"455 -115 OFFCURVE",
"471 -87 OFFCURVE",
"464 -60 CURVE SMOOTH",
"235 771 LINE SMOOTH",
"228 798 OFFCURVE",
"202 808 OFFCURVE",
"173 795 CURVE SMOOTH"
);
},
{
closed = 1;
nodes = (
"144 782 OFFCURVE",
"128 754 OFFCURVE",
"135 727 CURVE SMOOTH",
"364 -104 LINE SMOOTH",
"371 -131 OFFCURVE",
"398 -141 OFFCURVE",
"426 -128 CURVE SMOOTH",
"455 -115 OFFCURVE",
"471 -87 OFFCURVE",
"464 -60 CURVE SMOOTH",
"235 771 LINE SMOOTH",
"228 798 OFFCURVE",
"202 808 OFFCURVE",
"173 795 CURVE SMOOTH"
);
}
);
width = 597.635;
}
);
unicode = 005C;
},
{
glyphname = bullet;
lastChange = "2013-12-18 08:32:10 +0400";
layers = (
{
layerId = "4FD7A5AB-3C0B-49D1-A419-889C157412FC";
name = Bold;
paths = (
{
closed = 1;
nodes = (
"280 211 OFFCURVE",
"344 273 OFFCURVE",
"344 351 CURVE SMOOTH",
"344 353 LINE SMOOTH",
"344 431 OFFCURVE",
"279 493 OFFCURVE",
"202 493 CURVE SMOOTH",
"126 493 OFFCURVE",
"61 431 OFFCURVE",
"61 353 CURVE SMOOTH",
"61 351 LINE SMOOTH",
"61 273 OFFCURVE",
"125 211 OFFCURVE",
"202 211 CURVE SMOOTH"
);
}
);
width = 389;
}
);
unicode = 2022;
},
{
glyphname = colon;
lastChange = "2013-12-18 08:32:10 +0400";
layers = (
{
layerId = "4FD7A5AB-3C0B-49D1-A419-889C157412FC";
name = Bold;
paths = (
{
closed = 1;
nodes = (
"121 451 LINE SMOOTH",
"113 412 OFFCURVE",
"129 391 OFFCURVE",
"168 391 CURVE SMOOTH",
"181 391 LINE SMOOTH",
"220 391 OFFCURVE",
"246 412 OFFCURVE",
"254 451 CURVE SMOOTH",
"258 468 LINE SMOOTH",
"266 507 OFFCURVE",
"249 528 OFFCURVE",
"210 528 CURVE SMOOTH",
"197 528 LINE SMOOTH",
"158 528 OFFCURVE",
"133 507 OFFCURVE",
"125 468 CURVE SMOOTH"
);
},
{
closed = 1;
nodes = (
"38 60 LINE SMOOTH",
"30 21 OFFCURVE",
"46 0 OFFCURVE",
"85 0 CURVE SMOOTH",
"98 0 LINE SMOOTH",
"137 0 OFFCURVE",
"163 21 OFFCURVE",
"171 60 CURVE SMOOTH",
"175 77 LINE SMOOTH",
"183 116 OFFCURVE",
"166 137 OFFCURVE",
"127 137 CURVE SMOOTH",
"114 137 LINE SMOOTH",
"75 137 OFFCURVE",
"50 116 OFFCURVE",
"42 77 CURVE SMOOTH"
);
}
);
width = 305.932;
}
);
unicode = 003A;
},
{
glyphname = comma;
lastChange = "2013-12-18 08:32:10 +0400";
layers = (
{
layerId = "4FD7A5AB-3C0B-49D1-A419-889C157412FC";
name = Bold;
paths = (
{
closed = 1;
nodes = (
"-15 -135 OFFCURVE",
"9 -145 OFFCURVE",
"42 -135 CURVE SMOOTH",
"112 -115 OFFCURVE",
"156 -68 OFFCURVE",
"175 21 CURVE SMOOTH",
"186 76 LINE SMOOTH",
"194 111 OFFCURVE",
"173 137 OFFCURVE",
"138 137 CURVE SMOOTH",
"127 137 LINE SMOOTH",
"92 137 OFFCURVE",
"61 111 OFFCURVE",
"53 76 CURVE SMOOTH",
"50 61 LINE SMOOTH",
"43 26 OFFCURVE",
"58 0 OFFCURVE",
"88 0 CURVE",
"84 -35 OFFCURVE",
"66 -60 OFFCURVE",
"35 -77 CURVE SMOOTH",
"5 -93 OFFCURVE",
"-16 -104 OFFCURVE",
"-15 -120 CURVE SMOOTH"
);
}
);
width = 287.696;
}
);
unicode = 002C;
},
{
glyphname = ellipsis;
lastChange = "2013-12-18 08:32:10 +0400";
layers = (
{
layerId = "4FD7A5AB-3C0B-49D1-A419-889C157412FC";
name = Bold;
paths = (
{
closed = 1;
nodes = (
"543 60 LINE SMOOTH",
"535 21 OFFCURVE",
"551 0 OFFCURVE",
"590 0 CURVE SMOOTH",
"600 0 LINE SMOOTH",
"639 0 OFFCURVE",
"665 21 OFFCURVE",
"673 60 CURVE SMOOTH",
"676 74 LINE SMOOTH",
"684 113 OFFCURVE",
"668 134 OFFCURVE",
"629 134 CURVE SMOOTH",
"619 134 LINE SMOOTH",
"580 134 OFFCURVE",
"554 113 OFFCURVE",
"546 74 CURVE SMOOTH"
);
},
{
closed = 1;
nodes = (
"280 60 LINE SMOOTH",
"272 21 OFFCURVE",
"288 0 OFFCURVE",
"327 0 CURVE SMOOTH",
"337 0 LINE SMOOTH",
"376 0 OFFCURVE",
"402 21 OFFCURVE",
"410 60 CURVE SMOOTH",
"413 74 LINE SMOOTH",
"421 113 OFFCURVE",
"405 134 OFFCURVE",
"366 134 CURVE SMOOTH",
"356 134 LINE SMOOTH",
"317 134 OFFCURVE",
"291 113 OFFCURVE",
"283 74 CURVE SMOOTH"
);
},
{
closed = 1;
nodes = (
"17 60 LINE SMOOTH",
"9 21 OFFCURVE",
"25 0 OFFCURVE",
"64 0 CURVE SMOOTH",
"74 0 LINE SMOOTH",
"113 0 OFFCURVE",
"139 21 OFFCURVE",
"147 60 CURVE SMOOTH",
"150 74 LINE SMOOTH",
"158 113 OFFCURVE",
"142 134 OFFCURVE",
"103 134 CURVE SMOOTH",
"93 134 LINE SMOOTH",
"54 134 OFFCURVE",
"28 113 OFFCURVE",
"20 74 CURVE SMOOTH"
);
}
);
width = 778.005;
}
);
unicode = 2026;
},
{
glyphname = exclam;
lastChange = "2013-12-18 08:32:10 +0400";
layers = (
{
layerId = "4FD7A5AB-3C0B-49D1-A419-889C157412FC";
name = Bold;
paths = (
{
closed = 1;
nodes = (
"105 259 LINE SMOOTH",
"101 234 OFFCURVE",
"112 221 OFFCURVE",
"134 221 CURVE SMOOTH",
"156 221 OFFCURVE",
"170 234 OFFCURVE",
"178 259 CURVE SMOOTH",
"284 627 LINE SMOOTH",
"297 668 OFFCURVE",
"275 700 OFFCURVE",
"235 700 CURVE SMOOTH",
"195 700 OFFCURVE",
"160 668 OFFCURVE",
"154 627 CURVE SMOOTH"
);
},
{
closed = 1;
nodes = (
"32 60 LINE SMOOTH",
"24 21 OFFCURVE",
"41 0 OFFCURVE",
"80 0 CURVE SMOOTH",
"93 0 LINE SMOOTH",
"132 0 OFFCURVE",
"157 21 OFFCURVE",
"165 60 CURVE SMOOTH",
"169 77 LINE SMOOTH",
"177 116 OFFCURVE",
"161 137 OFFCURVE",
"122 137 CURVE SMOOTH",
"109 137 LINE SMOOTH",
"70 137 OFFCURVE",
"44 116 OFFCURVE",
"36 77 CURVE SMOOTH"
);
}
);
width = 297.558;
}
);
unicode = 0021;
},
{
glyphname = exclamdown;
lastChange = "2013-12-18 08:32:10 +0400";
layers = (
{
layerId = "4FD7A5AB-3C0B-49D1-A419-889C157412FC";
name = Bold;
paths = (
{
closed = 1;
nodes = (
"2 32 OFFCURVE",
"23 0 OFFCURVE",
"63 0 CURVE SMOOTH",
"103 0 OFFCURVE",
"139 32 OFFCURVE",
"144 73 CURVE SMOOTH",
"194 441 LINE SMOOTH",
"197 466 OFFCURVE",
"188 479 OFFCURVE",
"166 479 CURVE SMOOTH",
"144 479 OFFCURVE",
"128 466 OFFCURVE",
"121 441 CURVE SMOOTH",
"14 73 LINE SMOOTH"
);
},
{
closed = 1;
nodes = (
"121 584 OFFCURVE",
"138 563 OFFCURVE",
"177 563 CURVE SMOOTH",
"190 563 LINE SMOOTH",
"229 563 OFFCURVE",
"254 584 OFFCURVE",
"262 623 CURVE SMOOTH",
"266 640 LINE SMOOTH",
"274 679 OFFCURVE",
"258 700 OFFCURVE",
"219 700 CURVE SMOOTH",
"206 700 LINE SMOOTH",
"167 700 OFFCURVE",
"141 679 OFFCURVE",
"133 640 CURVE SMOOTH",
"129 623 LINE SMOOTH"
);
}
);
width = 297.825;
}
);
unicode = 00A1;
},
{
glyphname = numbersign;
lastChange = "2013-12-18 08:32:10 +0400";
layers = (
{
layerId = "4FD7A5AB-3C0B-49D1-A419-889C157412FC";
name = Bold;
paths = (
{
closed = 1;
nodes = (
"75 67 LINE SMOOTH",
"60 30 OFFCURVE",
"77 0 OFFCURVE",
"112 0 CURVE SMOOTH",
"139 0 OFFCURVE",
"162 17 OFFCURVE",
"172 43 CURVE SMOOTH",
"215 156 LINE SMOOTH",
"217 159 OFFCURVE",
"219 161 OFFCURVE",
"222 161 CURVE SMOOTH",
"376 161 LINE SMOOTH",
"379 161 OFFCURVE",
"381 159 OFFCURVE",
"379 156 CURVE SMOOTH",
"345 67 LINE SMOOTH",
"330 30 OFFCURVE",
"347 0 OFFCURVE",
"383 0 CURVE SMOOTH",
"409 0 OFFCURVE",
"432 17 OFFCURVE",
"442 43 CURVE SMOOTH",
"486 156 LINE SMOOTH",
"488 159 OFFCURVE",
"490 161 OFFCURVE",
"493 161 CURVE SMOOTH",
"552 161 LINE SMOOTH",
"583 161 OFFCURVE",
"611 182 OFFCURVE",
"617 211 CURVE SMOOTH",
"623 242 OFFCURVE",
"605 265 OFFCURVE",
"574 265 CURVE SMOOTH",
"533 265 LINE SMOOTH",
"530 265 OFFCURVE",
"529 267 OFFCURVE",
"530 270 CURVE SMOOTH",
"592 434 LINE SMOOTH",
"594 437 OFFCURVE",
"596 439 OFFCURVE",
"599 439 CURVE SMOOTH",
"647 439 LINE SMOOTH",
"678 439 OFFCURVE",
"706 460 OFFCURVE",
"712 489 CURVE SMOOTH",
"718 520 OFFCURVE",
"700 543 OFFCURVE",
"669 543 CURVE SMOOTH",
"639 543 LINE SMOOTH",
"636 543 OFFCURVE",
"635 545 OFFCURVE",
"636 548 CURVE SMOOTH",
"668 633 LINE SMOOTH",
"683 670 OFFCURVE",
"667 700 OFFCURVE",
"632 700 CURVE SMOOTH",
"605 700 OFFCURVE",
"581 683 OFFCURVE",
"572 657 CURVE SMOOTH",
"530 548 LINE SMOOTH",
"529 545 OFFCURVE",
"526 543 OFFCURVE",
"523 543 CURVE SMOOTH",
"369 543 LINE SMOOTH",
"366 543 OFFCURVE",
"365 545 OFFCURVE",
"366 548 CURVE SMOOTH",
"398 633 LINE SMOOTH",
"413 670 OFFCURVE",
"397 700 OFFCURVE",
"361 700 CURVE SMOOTH",
"335 700 OFFCURVE",
"311 683 OFFCURVE",
"302 657 CURVE SMOOTH",
"259 548 LINE SMOOTH",
"258 545 OFFCURVE",
"255 543 OFFCURVE",
"252 543 CURVE SMOOTH",
"193 543 LINE SMOOTH",
"162 543 OFFCURVE",
"135 522 OFFCURVE",
"129 493 CURVE SMOOTH",
"122 462 OFFCURVE",
"140 439 OFFCURVE",
"171 439 CURVE SMOOTH",
"212 439 LINE SMOOTH",
"215 439 OFFCURVE",
"217 437 OFFCURVE",
"215 434 CURVE SMOOTH",
"153 270 LINE SMOOTH",
"152 267 OFFCURVE",
"149 265 OFFCURVE",
"146 265 CURVE SMOOTH",
"97 265 LINE SMOOTH",
"66 265 OFFCURVE",
"39 244 OFFCURVE",
"33 215 CURVE SMOOTH",
"26 184 OFFCURVE",
"44 161 OFFCURVE",
"75 161 CURVE SMOOTH",
"106 161 LINE SMOOTH",
"109 161 OFFCURVE",
"111 159 OFFCURVE",
"109 156 CURVE SMOOTH"
);
},
{
closed = 1;
nodes = (
"262 265 LINE SMOOTH",
"259 265 OFFCURVE",
"258 267 OFFCURVE",
"259 270 CURVE SMOOTH",
"322 434 LINE SMOOTH",
"324 437 OFFCURVE",
"326 439 OFFCURVE",
"329 439 CURVE SMOOTH",
"483 439 LINE SMOOTH",
"486 439 OFFCURVE",
"488 437 OFFCURVE",
"486 434 CURVE SMOOTH",
"423 270 LINE SMOOTH",
"422 267 OFFCURVE",
"419 265 OFFCURVE",
"416 265 CURVE SMOOTH"
);
}
);
width = 725.147;
}
);
unicode = 0023;
},
{
glyphname = period;
lastChange = "2013-12-18 08:32:10 +0400";
layers = (
{
layerId = "4FD7A5AB-3C0B-49D1-A419-889C157412FC";
name = Bold;
paths = (
{
closed = 1;
nodes = (
"17 61 LINE SMOOTH",
"9 22 OFFCURVE",
"25 1 OFFCURVE",
"64 1 CURVE SMOOTH",
"77 1 LINE SMOOTH",
"116 1 OFFCURVE",
"142 22 OFFCURVE",
"150 61 CURVE SMOOTH",
"154 78 LINE SMOOTH",
"162 117 OFFCURVE",
"146 138 OFFCURVE",
"107 138 CURVE SMOOTH",
"94 138 LINE SMOOTH",
"55 138 OFFCURVE",
"29 117 OFFCURVE",
"21 78 CURVE SMOOTH"
);
}
);
width = 256.004;
}
);
unicode = 002E;
},
{
glyphname = periodcentered;
lastChange = "2013-12-18 08:32:10 +0400";
layers = (
{
layerId = "4FD7A5AB-3C0B-49D1-A419-889C157412FC";
name = Bold;
paths = (
{
closed = 1;
nodes = (
"72 298 LINE SMOOTH",
"64 259 OFFCURVE",
"80 238 OFFCURVE",
"119 238 CURVE SMOOTH",
"132 238 LINE SMOOTH",
"171 238 OFFCURVE",
"197 259 OFFCURVE",
"205 298 CURVE SMOOTH",
"209 315 LINE SMOOTH",
"217 354 OFFCURVE",
"201 375 OFFCURVE",
"162 375 CURVE SMOOTH",
"149 375 LINE SMOOTH",
"110 375 OFFCURVE",
"84 354 OFFCURVE",
"76 315 CURVE SMOOTH"
);
}
);
width = 276.005;
}
);
unicode = 00B7;
},
{
glyphname = question;
lastChange = "2013-12-18 08:32:10 +0400";
layers = (
{
layerId = "4FD7A5AB-3C0B-49D1-A419-889C157412FC";
name = Bold;
paths = (
{
closed = 1;
nodes = (
"128 240 LINE SMOOTH",
"120 205 OFFCURVE",
"140 179 OFFCURVE",
"175 179 CURVE SMOOTH",
"210 179 OFFCURVE",
"240 205 OFFCURVE",
"248 240 CURVE SMOOTH",
"255 277 LINE SMOOTH",
"256 280 OFFCURVE",
"258 281 OFFCURVE",
"261 282 CURVE SMOOTH",
"380 300 OFFCURVE",
"481 371 OFFCURVE",
"510 504 CURVE SMOOTH",
"538 637 OFFCURVE",
"451 740 OFFCURVE",
"314 740 CURVE SMOOTH",
"240 740 OFFCURVE",
"168 711 OFFCURVE",
"109 662 CURVE SMOOTH",
"75 634 OFFCURVE",
"70 597 OFFCURVE",
"97 573 CURVE SMOOTH",
"122 550 OFFCURVE",
"158 564 OFFCURVE",
"183 583 CURVE SMOOTH",
"214 606 OFFCURVE",
"251 620 OFFCURVE",
"288 620 CURVE SMOOTH",
"359 620 OFFCURVE",
"404 571 OFFCURVE",
"390 504 CURVE SMOOTH",
"370 412 OFFCURVE",
"298 377 OFFCURVE",
"217 377 CURVE SMOOTH",
"182 377 OFFCURVE",
"151 351 OFFCURVE",
"144 316 CURVE SMOOTH"
);
},
{
closed = 1;
nodes = (
"161 137 LINE SMOOTH",
"122 137 OFFCURVE",
"96 116 OFFCURVE",
"88 77 CURVE SMOOTH",
"84 60 LINE SMOOTH",
"76 21 OFFCURVE",
"93 0 OFFCURVE",
"132 0 CURVE SMOOTH",
"145 0 LINE SMOOTH",
"184 0 OFFCURVE",
"209 21 OFFCURVE",
"217 60 CURVE SMOOTH",
"221 77 LINE SMOOTH",
"229 116 OFFCURVE",
"213 137 OFFCURVE",
"174 137 CURVE SMOOTH"
);
}
);
width = 535.237;
}
);
unicode = 003F;
},
{
glyphname = questiondown;
lastChange = "2013-12-18 08:32:10 +0400";
layers = (
{
layerId = "4FD7A5AB-3C0B-49D1-A419-889C157412FC";
name = Bold;
paths = (
{
closed = 1;
nodes = (
"205 204 OFFCURVE",
"225 178 OFFCURVE",
"260 178 CURVE SMOOTH",
"341 178 OFFCURVE",
"398 143 OFFCURVE",
"379 51 CURVE SMOOTH",
"364 -16 OFFCURVE",
"299 -65 OFFCURVE",
"228 -65 CURVE SMOOTH",
"191 -65 OFFCURVE",
"160 -51 OFFCURVE",
"139 -28 CURVE SMOOTH",
"122 -9 OFFCURVE",
"92 5 OFFCURVE",
"57 -18 CURVE SMOOTH",
"20 -42 OFFCURVE",
"9 -79 OFFCURVE",
"31 -107 CURVE SMOOTH",
"69 -156 OFFCURVE",
"128 -185 OFFCURVE",
"202 -185 CURVE SMOOTH",
"339 -185 OFFCURVE",
"470 -82 OFFCURVE",
"499 51 CURVE SMOOTH",
"527 184 OFFCURVE",
"456 255 OFFCURVE",
"345 273 CURVE SMOOTH",
"342 274 OFFCURVE",
"340 275 OFFCURVE",
"341 278 CURVE SMOOTH",
"349 315 LINE SMOOTH",
"356 350 OFFCURVE",
"337 376 OFFCURVE",
"302 376 CURVE SMOOTH",
"267 376 OFFCURVE",
"236 350 OFFCURVE",
"229 315 CURVE SMOOTH",
"213 239 LINE SMOOTH"
);
},
{
closed = 1;
nodes = (
"358 418 OFFCURVE",
"383 439 OFFCURVE",
"391 478 CURVE SMOOTH",
"395 495 LINE SMOOTH",
"403 534 OFFCURVE",
"387 555 OFFCURVE",
"348 555 CURVE SMOOTH",
"335 555 LINE SMOOTH",
"296 555 OFFCURVE",
"270 534 OFFCURVE",
"262 495 CURVE SMOOTH",
"258 478 LINE SMOOTH",
"250 439 OFFCURVE",
"267 418 OFFCURVE",
"306 418 CURVE SMOOTH",
"319 418 LINE SMOOTH"
);
}
);
width = 585.315;
}
);
unicode = 00BF;
},
{
glyphname = quotedbl;
lastChange = "2013-12-18 08:32:10 +0400";
layers = (
{
layerId = "4FD7A5AB-3C0B-49D1-A419-889C157412FC";
name = Bold;
paths = (
{
closed = 1;
nodes = (
"302 443 LINE SMOOTH",
"294 416 OFFCURVE",
"301 401 OFFCURVE",
"322 401 CURVE SMOOTH",
"343 401 OFFCURVE",
"358 412 OFFCURVE",
"371 434 CURVE SMOOTH",
"483 643 LINE SMOOTH",
"503 678 OFFCURVE",
"491 700 OFFCURVE",
"454 700 CURVE SMOOTH",
"425 700 LINE SMOOTH",
"393 700 OFFCURVE",
"373 684 OFFCURVE",
"363 652 CURVE SMOOTH"
);
},
{
closed = 1;
nodes = (
"83 442 LINE SMOOTH",
"75 416 OFFCURVE",
"82 401 OFFCURVE",
"103 401 CURVE SMOOTH",
"124 401 OFFCURVE",
"139 412 OFFCURVE",
"152 434 CURVE SMOOTH",
"264 643 LINE SMOOTH",
"283 678 OFFCURVE",
"271 700 OFFCURVE",
"234 700 CURVE SMOOTH",
"205 700 LINE SMOOTH",
"173 700 OFFCURVE",
"153 684 OFFCURVE",
"143 652 CURVE SMOOTH"
);
}
);
width = 513.117;
}
);
unicode = 0022;
},
{
glyphname = quotesingle;
lastChange = "2013-12-18 08:32:10 +0400";
layers = (
{
layerId = "4FD7A5AB-3C0B-49D1-A419-889C157412FC";
name = Bold;
paths = (
{
closed = 1;
nodes = (
"83 442 LINE SMOOTH",
"75 416 OFFCURVE",
"82 401 OFFCURVE",
"103 401 CURVE SMOOTH",
"125 401 OFFCURVE",
"140 412 OFFCURVE",
"153 434 CURVE SMOOTH",
"265 643 LINE SMOOTH",
"285 678 OFFCURVE",
"273 700 OFFCURVE",
"236 700 CURVE SMOOTH",
"205 700 LINE SMOOTH",
"173 700 OFFCURVE",
"153 684 OFFCURVE",
"143 652 CURVE SMOOTH"
);
}
);
width = 294.601;
}
);
unicode = 0027;
},
{
glyphname = semicolon;
lastChange = "2013-12-18 08:32:10 +0400";
layers = (
{
layerId = "4FD7A5AB-3C0B-49D1-A419-889C157412FC";
name = Bold;
paths = (
{
closed = 1;
nodes = (
"6 -136 OFFCURVE",
"27 -146 OFFCURVE",
"65 -135 CURVE SMOOTH",
"133 -114 OFFCURVE",
"176 -67 OFFCURVE",
"195 21 CURVE SMOOTH",
"207 77 LINE SMOOTH",
"215 116 OFFCURVE",
"199 137 OFFCURVE",
"160 137 CURVE SMOOTH",
"147 137 LINE SMOOTH",
"108 137 OFFCURVE",
"82 116 OFFCURVE",
"74 77 CURVE SMOOTH",
"70 60 LINE SMOOTH",
"62 21 OFFCURVE",
"76 0 OFFCURVE",
"109 0 CURVE",
"105 -33 OFFCURVE",
"88 -58 OFFCURVE",
"61 -74 CURVE SMOOTH",
"24 -95 OFFCURVE",
"4 -103 OFFCURVE",
"5 -120 CURVE SMOOTH"
);
},
{
closed = 1;
nodes = (
"153 451 LINE SMOOTH",
"145 412 OFFCURVE",
"162 391 OFFCURVE",
"201 391 CURVE SMOOTH",
"214 391 LINE SMOOTH",
"253 391 OFFCURVE",
"278 412 OFFCURVE",
"286 451 CURVE SMOOTH",
"290 468 LINE SMOOTH",
"298 507 OFFCURVE",
"282 528 OFFCURVE",
"243 528 CURVE SMOOTH",
"230 528 LINE SMOOTH",
"191 528 OFFCURVE",
"165 507 OFFCURVE",
"157 468 CURVE SMOOTH"
);
}
);
width = 338.005;
}
);
unicode = 003B;
},
{
glyphname = slash;
lastChange = "2013-12-22 08:04:27 +0400";
layers = (
{
layerId = "4FD7A5AB-3C0B-49D1-A419-889C157412FC";
name = Bold;
paths = (
{
closed = 1;
nodes = (
"547 808 OFFCURVE",
"518 798 OFFCURVE",
"502 771 CURVE SMOOTH",
"22 -60 LINE SMOOTH",
"7 -87 OFFCURVE",
"14 -115 OFFCURVE",
"40 -128 CURVE SMOOTH",
"63 -141 OFFCURVE",
"94 -131 OFFCURVE",
"109 -104 CURVE SMOOTH",
"589 727 LINE SMOOTH",
"604 754 OFFCURVE",
"597 782 OFFCURVE",
"571 795 CURVE SMOOTH"
);
},
{
closed = 1;
nodes = (
"547 808 OFFCURVE",
"518 798 OFFCURVE",
"502 771 CURVE SMOOTH",
"22 -60 LINE SMOOTH",
"7 -87 OFFCURVE",
"14 -115 OFFCURVE",
"40 -128 CURVE SMOOTH",
"63 -141 OFFCURVE",
"94 -131 OFFCURVE",
"109 -104 CURVE SMOOTH",
"589 727 LINE SMOOTH",
"604 754 OFFCURVE",
"597 782 OFFCURVE",
"571 795 CURVE SMOOTH"
);
}
);
width = 602.992;
}
);
unicode = 002F;
},
{
glyphname = underscore;
lastChange = "2013-12-18 08:32:10 +0400";
layers = (
{
layerId = "4FD7A5AB-3C0B-49D1-A419-889C157412FC";
name = Bold;
paths = (
{
closed = 1;
nodes = (
"-87 -140 OFFCURVE",
"-72 -160 OFFCURVE",
"-44 -160 CURVE SMOOTH",
"464 -160 LINE SMOOTH",
"492 -160 OFFCURVE",
"516 -141 OFFCURVE",
"522 -114 CURVE SMOOTH",
"528 -86 OFFCURVE",
"512 -66 OFFCURVE",
"484 -66 CURVE SMOOTH",
"-24 -66 LINE SMOOTH",
"-52 -66 OFFCURVE",
"-76 -86 OFFCURVE",
"-82 -113 CURVE SMOOTH"
);
}
);
width = 605.253;
}
);
unicode = 005F;
},
{
glyphname = braceleft;
lastChange = "2013-12-18 08:32:10 +0400";
layers = (
{
layerId = "4FD7A5AB-3C0B-49D1-A419-889C157412FC";
name = Bold;
paths = (
{
closed = 1;
nodes = (
"313 -78 OFFCURVE",
"304 -57 OFFCURVE",
"281 -48 CURVE SMOOTH",
"206 -19 OFFCURVE",
"201 13 OFFCURVE",
"214 76 CURVE SMOOTH",
"218 96 OFFCURVE",
"234 159 OFFCURVE",
"238 180 CURVE SMOOTH",
"255 258 OFFCURVE",
"226 295 OFFCURVE",
"163 317 CURVE",
"234 338 OFFCURVE",
"280 376 OFFCURVE",
"296 454 CURVE SMOOTH",
"301 475 OFFCURVE",
"312 538 OFFCURVE",
"316 558 CURVE SMOOTH",
"330 621 OFFCURVE",
"349 653 OFFCURVE",
"436 682 CURVE SMOOTH",
"463 691 OFFCURVE",
"481 711 OFFCURVE",
"480 734 CURVE SMOOTH",
"479 758 OFFCURVE",
"459 772 OFFCURVE",
"432 766 CURVE SMOOTH",
"279 731 OFFCURVE",
"228 669 OFFCURVE",
"208 575 CURVE SMOOTH",
"205 560 OFFCURVE",
"192 490 OFFCURVE",
"188 473 CURVE SMOOTH",
"172 395 OFFCURVE",
"125 363 OFFCURVE",
"72 363 CURVE SMOOTH",
"47 363 OFFCURVE",
"22 344 OFFCURVE",
"16 317 CURVE SMOOTH",
"11 290 OFFCURVE",
"27 271 OFFCURVE",
"52 271 CURVE SMOOTH",
"105 271 OFFCURVE",
"139 239 OFFCURVE",
"122 161 CURVE SMOOTH",
"118 144 OFFCURVE",
"102 74 OFFCURVE",
"98 59 CURVE SMOOTH",
"78 -35 OFFCURVE",
"103 -97 OFFCURVE",
"241 -132 CURVE SMOOTH",
"266 -138 OFFCURVE",
"291 -124 OFFCURVE",
"302 -101 CURVE SMOOTH"
);
}
);
width = 403.04;
}
);
unicode = 007B;
},
{
glyphname = braceright;
lastChange = "2013-12-18 08:32:10 +0400";
layers = (
{
layerId = "4FD7A5AB-3C0B-49D1-A419-889C157412FC";
name = Bold;
paths = (
{
closed = 1;
nodes = (
"-69 -124 OFFCURVE",
"-50 -138 OFFCURVE",
"-22 -132 CURVE SMOOTH",
"130 -97 OFFCURVE",
"181 -35 OFFCURVE",
"201 59 CURVE SMOOTH",
"204 74 OFFCURVE",
"217 144 OFFCURVE",
"221 161 CURVE SMOOTH",
"237 239 OFFCURVE",
"284 271 OFFCURVE",
"337 271 CURVE SMOOTH",
"362 271 OFFCURVE",
"387 290 OFFCURVE",
"393 317 CURVE SMOOTH",
"399 344 OFFCURVE",
"382 363 OFFCURVE",
"357 363 CURVE SMOOTH",
"304 363 OFFCURVE",
"271 395 OFFCURVE",
"287 473 CURVE SMOOTH",
"291 490 OFFCURVE",
"308 560 OFFCURVE",
"311 575 CURVE SMOOTH",
"331 669 OFFCURVE",
"306 731 OFFCURVE",
"168 766 CURVE SMOOTH",
"144 772 OFFCURVE",
"118 758 OFFCURVE",
"107 734 CURVE SMOOTH",
"96 711 OFFCURVE",
"105 691 OFFCURVE",
"129 682 CURVE SMOOTH",
"203 653 OFFCURVE",
"209 621 OFFCURVE",
"195 558 CURVE SMOOTH",
"191 538 OFFCURVE",
"176 475 OFFCURVE",
"171 454 CURVE SMOOTH",
"155 376 OFFCURVE",
"184 338 OFFCURVE",
"246 317 CURVE",
"174 295 OFFCURVE",
"129 258 OFFCURVE",
"113 180 CURVE SMOOTH",
"108 159 OFFCURVE",
"97 96 OFFCURVE",
"93 76 CURVE SMOOTH",
"79 13 OFFCURVE",
"61 -19 OFFCURVE",
"-27 -48 CURVE SMOOTH",
"-54 -57 OFFCURVE",
"-72 -78 OFFCURVE",
"-71 -101 CURVE SMOOTH"
);
}
);
width = 401.209;
}
);
unicode = 007D;
},
{
glyphname = bracketleft;
lastChange = "2013-12-18 08:32:10 +0400";
layers = (
{
layerId = "4FD7A5AB-3C0B-49D1-A419-889C157412FC";
name = Bold;
paths = (
{
closed = 1;
nodes = (
"-1 -82 LINE SMOOTH",
"-7 -110 OFFCURVE",
"9 -130 OFFCURVE",
"37 -130 CURVE SMOOTH",
"248 -130 LINE SMOOTH",
"276 -130 OFFCURVE",
"300 -110 OFFCURVE",
"306 -83 CURVE SMOOTH",
"312 -55 OFFCURVE",
"296 -35 OFFCURVE",
"268 -35 CURVE SMOOTH",
"129 -35 LINE SMOOTH",
"126 -35 OFFCURVE",
"124 -33 OFFCURVE",
"125 -30 CURVE SMOOTH",
"272 660 LINE SMOOTH",
"272 663 OFFCURVE",
"275 665 OFFCURVE",
"278 665 CURVE SMOOTH",
"417 665 LINE SMOOTH",
"445 665 OFFCURVE",
"469 685 OFFCURVE",
"475 712 CURVE SMOOTH",
"481 740 OFFCURVE",
"465 760 OFFCURVE",
"437 760 CURVE SMOOTH",
"226 760 LINE SMOOTH",
"198 760 OFFCURVE",
"174 740 OFFCURVE",
"168 712 CURVE SMOOTH"
);
}
);
width = 402.253;
}
);
unicode = 005B;
},
{
glyphname = bracketright;
lastChange = "2013-12-18 08:32:10 +0400";
layers = (
{
layerId = "4FD7A5AB-3C0B-49D1-A419-889C157412FC";
name = Bold;
paths = (
{
closed = 1;
nodes = (
"416 740 OFFCURVE",
"401 760 OFFCURVE",
"373 760 CURVE SMOOTH",
"162 760 LINE SMOOTH",
"134 760 OFFCURVE",
"109 740 OFFCURVE",
"103 712 CURVE SMOOTH",
"98 685 OFFCURVE",
"113 665 OFFCURVE",
"141 665 CURVE SMOOTH",
"280 665 LINE SMOOTH",
"283 665 OFFCURVE",
"285 663 OFFCURVE",
"284 660 CURVE SMOOTH",
"138 -30 LINE SMOOTH",
"137 -33 OFFCURVE",
"135 -35 OFFCURVE",
"132 -35 CURVE SMOOTH",
"-7 -35 LINE SMOOTH",
"-35 -35 OFFCURVE",
"-60 -55 OFFCURVE",
"-66 -83 CURVE SMOOTH",
"-71 -110 OFFCURVE",
"-56 -130 OFFCURVE",
"-28 -130 CURVE SMOOTH",
"183 -130 LINE SMOOTH",
"211 -130 OFFCURVE",
"236 -110 OFFCURVE",
"242 -82 CURVE SMOOTH",
"410 712 LINE SMOOTH"
);
}
);
width = 384.31;
}
);
unicode = 005D;
},
{
glyphname = parenleft;
lastChange = "2013-12-18 08:32:10 +0400";
layers = (
{
layerId = "4FD7A5AB-3C0B-49D1-A419-889C157412FC";
name = Bold;
paths = (
{
closed = 1;
nodes = (
"269 -100 CURVE SMOOTH",
"290 -77 OFFCURVE",
"290 -49 OFFCURVE",
"271 -32 CURVE SMOOTH",
"176 58 OFFCURVE",
"147 183 OFFCURVE",
"176 317 CURVE SMOOTH",
"204 451 OFFCURVE",
"286 576 OFFCURVE",
"420 666 CURVE SMOOTH",
"445 683 OFFCURVE",
"457 711 OFFCURVE",
"446 734 CURVE SMOOTH",
"446 735 LINE SMOOTH",
"436 758 OFFCURVE",
"409 766 OFFCURVE",
"382 750 CURVE SMOOTH",
"206 650 OFFCURVE",
"92 491 OFFCURVE",
"55 317 CURVE SMOOTH",
"18 143 OFFCURVE",
"65 -16 OFFCURVE",
"198 -116 CURVE SMOOTH",
"218 -132 OFFCURVE",
"249 -124 OFFCURVE"
);
}
);
width = 378.094;
}
);
unicode = 0028;
},
{
glyphname = parenright;
lastChange = "2013-12-18 08:32:10 +0400";
layers = (
{
layerId = "4FD7A5AB-3C0B-49D1-A419-889C157412FC";
name = Bold;
paths = (
{
closed = 1;
nodes = (
"-17 -132 OFFCURVE",
"10 -116 CURVE SMOOTH",
"186 -16 OFFCURVE",
"300 143 OFFCURVE",
"337 317 CURVE SMOOTH",
"374 491 OFFCURVE",
"327 650 OFFCURVE",
"194 750 CURVE SMOOTH",
"174 766 OFFCURVE",
"143 758 OFFCURVE",
"123 735 CURVE SMOOTH",
"123 734 LINE SMOOTH",
"102 711 OFFCURVE",
"102 683 OFFCURVE",
"121 666 CURVE SMOOTH",
"217 576 OFFCURVE",
"245 451 OFFCURVE",
"216 317 CURVE SMOOTH",
"188 183 OFFCURVE",
"106 58 OFFCURVE",
"-28 -32 CURVE SMOOTH",
"-53 -49 OFFCURVE",
"-65 -77 OFFCURVE",
"-54 -100 CURVE SMOOTH",
"-44 -124 OFFCURVE"
);
}
);
width = 384.202;
}
);
unicode = 0029;
},
{
glyphname = emdash;
lastChange = "2013-12-18 08:32:10 +0400";
layers = (
{
layerId = "4FD7A5AB-3C0B-49D1-A419-889C157412FC";
name = Bold;
paths = (
{
closed = 1;
nodes = (
"52 273 OFFCURVE",
"73 249 OFFCURVE",
"108 249 CURVE SMOOTH",
"772 249 LINE SMOOTH",
"807 249 OFFCURVE",
"838 273 OFFCURVE",
"845 307 CURVE SMOOTH",
"852 340 OFFCURVE",
"831 364 OFFCURVE",
"796 364 CURVE SMOOTH",
"132 364 LINE SMOOTH",
"97 364 OFFCURVE",
"66 340 OFFCURVE",
"59 307 CURVE SMOOTH"
);
}
);
width = 898.341;
}
);
unicode = 2014;
},
{
glyphname = endash;
lastChange = "2013-12-18 08:32:10 +0400";
layers = (
{
layerId = "4FD7A5AB-3C0B-49D1-A419-889C157412FC";
name = Bold;
paths = (
{
closed = 1;
nodes = (
"46 273 OFFCURVE",
"67 249 OFFCURVE",
"102 249 CURVE SMOOTH",
"396 249 LINE SMOOTH",
"431 249 OFFCURVE",
"462 273 OFFCURVE",
"469 307 CURVE SMOOTH",
"476 340 OFFCURVE",
"456 364 OFFCURVE",
"421 364 CURVE SMOOTH",
"127 364 LINE SMOOTH",
"92 364 OFFCURVE",
"60 340 OFFCURVE",
"53 307 CURVE SMOOTH"
);
}
);
width = 516.388;
}
);
unicode = 2013;
},
{
glyphname = hyphen;
lastChange = "2013-12-18 08:32:10 +0400";
layers = (
{
layerId = "4FD7A5AB-3C0B-49D1-A419-889C157412FC";
name = Bold;
paths = (
{
closed = 1;
nodes = (
"47 272 OFFCURVE",
"68 247 OFFCURVE",
"103 247 CURVE SMOOTH",
"277 247 LINE SMOOTH",
"312 247 OFFCURVE",
"343 271 OFFCURVE",
"350 305 CURVE SMOOTH",
"357 340 OFFCURVE",
"337 366 OFFCURVE",
"302 366 CURVE SMOOTH",
"128 366 LINE SMOOTH",
"93 366 OFFCURVE",
"62 341 OFFCURVE",
"54 307 CURVE SMOOTH"
);
}
);
width = 408.388;
}
);
unicode = 002D;
},
{
glyphname = guillemetleft;
lastChange = "2013-12-18 08:32:10 +0400";
layers = (
{
layerId = "4FD7A5AB-3C0B-49D1-A419-889C157412FC";
name = Bold;
paths = (
{
closed = 1;
nodes = (
"390 71 LINE SMOOTH",
"400 50 OFFCURVE",
"426 44 OFFCURVE",
"453 58 CURVE SMOOTH",
"486 75 OFFCURVE",
"500 109 OFFCURVE",
"486 136 CURVE SMOOTH",
"420 258 LINE SMOOTH",
"419 263 OFFCURVE",
"419 267 OFFCURVE",
"423 272 CURVE SMOOTH",
"537 390 LINE SMOOTH",
"564 418 OFFCURVE",
"565 453 OFFCURVE",
"537 469 CURVE SMOOTH",
"518 480 OFFCURVE",
"492 475 OFFCURVE",
"473 455 CURVE SMOOTH",
"317 291 LINE SMOOTH",
"302 274 OFFCURVE",
"297 253 OFFCURVE",
"306 236 CURVE SMOOTH"
);
},
{
closed = 1;
nodes = (
"139 71 LINE SMOOTH",
"149 52 OFFCURVE",
"172 42 OFFCURVE",
"202 58 CURVE SMOOTH",
"235 75 OFFCURVE",
"249 109 OFFCURVE",
"235 136 CURVE SMOOTH",
"169 258 LINE SMOOTH",
"168 263 OFFCURVE",
"168 267 OFFCURVE",
"172 272 CURVE SMOOTH",
"286 390 LINE SMOOTH",
"313 418 OFFCURVE",
"314 453 OFFCURVE",
"286 469 CURVE SMOOTH",
"267 481 OFFCURVE",
"241 475 OFFCURVE",
"222 455 CURVE SMOOTH",
"65 291 LINE SMOOTH",
"50 275 OFFCURVE",
"45 253 OFFCURVE",
"54 236 CURVE SMOOTH"
);
}
);
width = 569.04;
}
);
unicode = 00AB;
},
{
glyphname = guillemetright;
lastChange = "2013-12-18 08:32:10 +0400";
layers = (
{
layerId = "4FD7A5AB-3C0B-49D1-A419-889C157412FC";
name = Bold;
paths = (
{
closed = 1;
nodes = (
"270 253 OFFCURVE",
"274 274 OFFCURVE",
"266 291 CURVE SMOOTH",
"180 455 LINE SMOOTH",
"170 475 OFFCURVE",
"146 480 OFFCURVE",
"122 469 CURVE SMOOTH",
"87 453 OFFCURVE",
"73 418 OFFCURVE",
"89 390 CURVE SMOOTH",
"152 272 LINE SMOOTH",
"154 267 OFFCURVE",
"153 263 OFFCURVE",
"149 258 CURVE SMOOTH",
"32 136 LINE SMOOTH",
"6 109 OFFCURVE",
"6 75 OFFCURVE",
"32 58 CURVE SMOOTH",
"53 44 OFFCURVE",
"81 50 OFFCURVE",
"100 71 CURVE SMOOTH",
"254 236 LINE SMOOTH"
);
},
{
closed = 1;
nodes = (
"522 253 OFFCURVE",
"527 275 OFFCURVE",
"518 291 CURVE SMOOTH",
"431 455 LINE SMOOTH",
"421 475 OFFCURVE",
"397 481 OFFCURVE",
"373 469 CURVE SMOOTH",
"338 453 OFFCURVE",
"324 418 OFFCURVE",
"340 390 CURVE SMOOTH",
"403 272 LINE SMOOTH",
"405 267 OFFCURVE",
"404 263 OFFCURVE",
"400 258 CURVE SMOOTH",
"283 136 LINE SMOOTH",
"257 109 OFFCURVE",
"257 75 OFFCURVE",
"283 58 CURVE SMOOTH",
"306 42 OFFCURVE",
"333 52 OFFCURVE",
"351 71 CURVE SMOOTH",
"506 236 LINE SMOOTH"
);
}
);
width = 571.973;
}
);
unicode = 00BB;
},
{
glyphname = guilsinglleft;
lastChange = "2013-12-18 08:32:10 +0400";
layers = (
{
layerId = "4FD7A5AB-3C0B-49D1-A419-889C157412FC";
name = Bold;
paths = (
{
closed = 1;
nodes = (
"116 71 LINE SMOOTH",
"126 50 OFFCURVE",
"152 44 OFFCURVE",
"179 58 CURVE SMOOTH",
"212 75 OFFCURVE",
"226 109 OFFCURVE",
"212 136 CURVE SMOOTH",
"147 258 LINE SMOOTH",
"145 263 OFFCURVE",
"146 267 OFFCURVE",
"150 272 CURVE SMOOTH",
"263 390 LINE SMOOTH",
"291 418 OFFCURVE",
"291 453 OFFCURVE",
"264 469 CURVE SMOOTH",
"244 480 OFFCURVE",
"218 475 OFFCURVE",
"200 455 CURVE SMOOTH",
"44 291 LINE SMOOTH",
"28 274 OFFCURVE",
"24 253 OFFCURVE",
"32 236 CURVE SMOOTH"
);
}
);
width = 306.127;
}
);
unicode = 2039;
},
{
glyphname = guilsinglright;
lastChange = "2013-12-18 08:32:10 +0400";
layers = (
{
layerId = "4FD7A5AB-3C0B-49D1-A419-889C157412FC";
name = Bold;
paths = (
{
closed = 1;
nodes = (
"268 253 OFFCURVE",
"273 274 OFFCURVE",
"264 291 CURVE SMOOTH",
"178 455 LINE SMOOTH",
"169 475 OFFCURVE",
"145 480 OFFCURVE",
"120 469 CURVE SMOOTH",
"86 453 OFFCURVE",
"71 418 OFFCURVE",
"87 390 CURVE SMOOTH",
"150 272 LINE SMOOTH",
"152 267 OFFCURVE",
"151 263 OFFCURVE",
"147 258 CURVE SMOOTH",
"30 136 LINE SMOOTH",
"5 109 OFFCURVE",
"5 75 OFFCURVE",
"30 58 CURVE SMOOTH",
"51 44 OFFCURVE",
"79 50 OFFCURVE",
"99 71 CURVE SMOOTH",
"253 236 LINE SMOOTH"
);
}
);
width = 307.483;
}
);
unicode = 203A;
},
{
glyphname = quotedblbase;
lastChange = "2013-12-18 08:32:10 +0400";
layers = (
{
layerId = "4FD7A5AB-3C0B-49D1-A419-889C157412FC";
name = Bold;
paths = (
{
closed = 1;
nodes = (
"-14 -135 OFFCURVE",
"10 -145 OFFCURVE",
"43 -135 CURVE SMOOTH",
"113 -115 OFFCURVE",
"157 -68 OFFCURVE",
"176 21 CURVE SMOOTH",
"187 76 LINE SMOOTH",
"195 111 OFFCURVE",
"174 137 OFFCURVE",
"139 137 CURVE SMOOTH",
"128 137 LINE SMOOTH",
"93 137 OFFCURVE",
"62 111 OFFCURVE",
"54 76 CURVE SMOOTH",
"51 61 LINE SMOOTH",
"44 30 OFFCURVE",
"56 6 OFFCURVE",
"80 1 CURVE SMOOTH",
"86 0 OFFCURVE",
"88 -3 OFFCURVE",
"87 -9 CURVE SMOOTH",
"82 -40 OFFCURVE",
"64 -62 OFFCURVE",
"36 -77 CURVE SMOOTH",
"6 -93 OFFCURVE",
"-15 -104 OFFCURVE",
"-14 -120 CURVE SMOOTH"
);
}
);
width = 301.696;
}
);
unicode = 201E;
},
{
glyphname = quotedblleft;
lastChange = "2013-12-18 08:32:10 +0400";
layers = (
{
layerId = "4FD7A5AB-3C0B-49D1-A419-889C157412FC";
name = Bold;
paths = (
{
closed = 1;
nodes = (
"294 695 OFFCURVE",
"270 706 OFFCURVE",
"236 696 CURVE SMOOTH",
"168 676 OFFCURVE",
"124 628 OFFCURVE",
"105 540 CURVE SMOOTH",
"93 484 LINE SMOOTH",
"86 449 OFFCURVE",
"106 423 OFFCURVE",
"141 423 CURVE SMOOTH",
"152 423 LINE SMOOTH",
"187 423 OFFCURVE",
"219 449 OFFCURVE",
"226 484 CURVE SMOOTH",
"229 499 LINE SMOOTH",
"236 530 OFFCURVE",
"224 554 OFFCURVE",
"200 559 CURVE SMOOTH",
"194 560 OFFCURVE",
"192 563 OFFCURVE",
"193 569 CURVE SMOOTH",
"199 600 OFFCURVE",
"217 622 OFFCURVE",
"245 637 CURVE SMOOTH",
"274 653 OFFCURVE",
"295 664 OFFCURVE",
"295 680 CURVE SMOOTH"
);
},
{
closed = 1;
nodes = (
"526 695 OFFCURVE",
"502 706 OFFCURVE",
"468 696 CURVE SMOOTH",
"400 676 OFFCURVE",
"356 628 OFFCURVE",
"337 540 CURVE SMOOTH",
"325 484 LINE SMOOTH",
"318 449 OFFCURVE",
"338 423 OFFCURVE",
"373 423 CURVE SMOOTH",
"384 423 LINE SMOOTH",
"419 423 OFFCURVE",
"451 449 OFFCURVE",
"458 484 CURVE SMOOTH",
"461 499 LINE SMOOTH",
"468 530 OFFCURVE",
"456 554 OFFCURVE",
"432 559 CURVE SMOOTH",
"426 560 OFFCURVE",
"424 563 OFFCURVE",
"425 569 CURVE SMOOTH",
"431 600 OFFCURVE",
"449 622 OFFCURVE",
"477 637 CURVE SMOOTH",
"506 653 OFFCURVE",
"527 664 OFFCURVE",
"527 680 CURVE SMOOTH"
);
}
);
width = 512;
}
);
unicode = 201C;
},
{
glyphname = quotedblright;
lastChange = "2013-12-18 08:32:10 +0400";
layers = (
{
layerId = "4FD7A5AB-3C0B-49D1-A419-889C157412FC";
name = Bold;
paths = (
{
closed = 1;
nodes = (
"323 428 OFFCURVE",
"347 417 OFFCURVE",
"381 427 CURVE SMOOTH",
"449 447 OFFCURVE",
"494 495 OFFCURVE",
"512 583 CURVE SMOOTH",
"524 639 LINE SMOOTH",
"532 674 OFFCURVE",
"511 700 OFFCURVE",
"476 700 CURVE SMOOTH",
"465 700 LINE SMOOTH",
"430 700 OFFCURVE",
"399 674 OFFCURVE",
"391 639 CURVE SMOOTH",
"388 624 LINE SMOOTH",
"382 593 OFFCURVE",
"393 569 OFFCURVE",
"417 564 CURVE SMOOTH",
"423 563 OFFCURVE",
"426 560 OFFCURVE",
"424 554 CURVE SMOOTH",
"419 523 OFFCURVE",
"401 501 OFFCURVE",
"373 486 CURVE SMOOTH",
"343 470 OFFCURVE",
"322 459 OFFCURVE",
"323 443 CURVE SMOOTH"
);
},
{
closed = 1;
nodes = (
"91 428 OFFCURVE",
"115 417 OFFCURVE",
"149 427 CURVE SMOOTH",
"217 447 OFFCURVE",
"262 495 OFFCURVE",
"280 583 CURVE SMOOTH",
"292 639 LINE SMOOTH",
"300 674 OFFCURVE",
"279 700 OFFCURVE",
"244 700 CURVE SMOOTH",
"233 700 LINE SMOOTH",
"198 700 OFFCURVE",
"167 674 OFFCURVE",
"159 639 CURVE SMOOTH",
"156 624 LINE SMOOTH",
"150 593 OFFCURVE",
"161 569 OFFCURVE",
"185 564 CURVE SMOOTH",
"191 563 OFFCURVE",
"194 560 OFFCURVE",
"192 554 CURVE SMOOTH",
"187 523 OFFCURVE",
"169 501 OFFCURVE",
"141 486 CURVE SMOOTH",
"111 470 OFFCURVE",
"90 459 OFFCURVE",
"91 443 CURVE SMOOTH"
);
}
);
width = 500.696;
}
);
unicode = 201D;
},
{
glyphname = quoteleft;
lastChange = "2013-12-18 08:32:10 +0400";
layers = (
{
layerId = "4FD7A5AB-3C0B-49D1-A419-889C157412FC";
name = Bold;
paths = (
{
closed = 1;
nodes = (
"294 695 OFFCURVE",
"270 706 OFFCURVE",
"236 696 CURVE SMOOTH",
"168 676 OFFCURVE",
"124 628 OFFCURVE",
"105 540 CURVE SMOOTH",
"93 484 LINE SMOOTH",
"86 449 OFFCURVE",
"106 423 OFFCURVE",
"141 423 CURVE SMOOTH",
"152 423 LINE SMOOTH",
"187 423 OFFCURVE",
"219 449 OFFCURVE",
"226 484 CURVE SMOOTH",
"229 499 LINE SMOOTH",
"237 534 OFFCURVE",
"221 560 OFFCURVE",
"191 560 CURVE",
"196 595 OFFCURVE",
"213 621 OFFCURVE",
"245 637 CURVE SMOOTH",
"274 653 OFFCURVE",
"295 664 OFFCURVE",
"295 680 CURVE SMOOTH"
);
}
);
width = 279;
}
);
unicode = 2018;
},
{
glyphname = quoteright;
lastChange = "2013-12-18 08:32:10 +0400";
layers = (
{
layerId = "4FD7A5AB-3C0B-49D1-A419-889C157412FC";
name = Bold;
paths = (
{
closed = 1;
nodes = (
"91 428 OFFCURVE",
"115 417 OFFCURVE",
"149 427 CURVE SMOOTH",
"217 447 OFFCURVE",
"262 495 OFFCURVE",
"280 583 CURVE SMOOTH",
"292 639 LINE SMOOTH",
"300 674 OFFCURVE",
"279 700 OFFCURVE",
"244 700 CURVE SMOOTH",
"233 700 LINE SMOOTH",
"198 700 OFFCURVE",
"167 674 OFFCURVE",
"159 639 CURVE SMOOTH",
"156 624 LINE SMOOTH",
"149 589 OFFCURVE",
"164 563 OFFCURVE",
"194 563 CURVE",
"190 528 OFFCURVE",
"172 502 OFFCURVE",
"141 486 CURVE SMOOTH",
"111 470 OFFCURVE",
"90 459 OFFCURVE",
"91 443 CURVE SMOOTH"
);
}
);
width = 267.696;
}
);
unicode = 2019;
},
{
glyphname = quotesinglbase;
lastChange = "2013-12-18 08:32:10 +0400";
layers = (
{
layerId = "4FD7A5AB-3C0B-49D1-A419-889C157412FC";
name = Bold;
paths = (
{
closed = 1;
nodes = (
"-14 -135 OFFCURVE",
"10 -145 OFFCURVE",
"43 -135 CURVE SMOOTH",
"113 -115 OFFCURVE",
"157 -68 OFFCURVE",
"176 21 CURVE SMOOTH",
"187 76 LINE SMOOTH",
"195 111 OFFCURVE",
"174 137 OFFCURVE",
"139 137 CURVE SMOOTH",
"128 137 LINE SMOOTH",
"93 137 OFFCURVE",
"62 111 OFFCURVE",
"54 76 CURVE SMOOTH",
"51 61 LINE SMOOTH",
"44 30 OFFCURVE",
"56 6 OFFCURVE",
"80 1 CURVE SMOOTH",
"86 0 OFFCURVE",
"88 -3 OFFCURVE",
"87 -9 CURVE SMOOTH",
"82 -40 OFFCURVE",
"64 -62 OFFCURVE",
"36 -77 CURVE SMOOTH",
"6 -93 OFFCURVE",
"-15 -104 OFFCURVE",
"-14 -120 CURVE SMOOTH"
);
}
);
width = 301.696;
}
);
unicode = 201A;
},
{
glyphname = .notdef;
lastChange = "2013-12-18 08:32:10 +0400";
layers = (
{
layerId = "4FD7A5AB-3C0B-49D1-A419-889C157412FC";
name = Bold;
paths = (
{
closed = 1;
nodes = (
"40 35 LINE SMOOTH",
"40 12 OFFCURVE",
"52 0 OFFCURVE",
"75 0 CURVE SMOOTH",
"509 0 LINE SMOOTH",
"532 0 OFFCURVE",
"544 12 OFFCURVE",
"544 35 CURVE SMOOTH",
"544 665 LINE SMOOTH",
"544 688 OFFCURVE",
"532 700 OFFCURVE",
"509 700 CURVE SMOOTH",
"75 700 LINE SMOOTH",
"52 700 OFFCURVE",
"40 688 OFFCURVE",
"40 665 CURVE SMOOTH"
);
},
{
closed = 1;
nodes = (
"509 670 LINE SMOOTH",
"512 670 OFFCURVE",
"514 668 OFFCURVE",
"514 665 CURVE SMOOTH",
"514 67 LINE SMOOTH",
"514 62 OFFCURVE",
"511 61 OFFCURVE",
"508 65 CURVE SMOOTH",
"92 664 LINE SMOOTH",
"90 667 OFFCURVE",
"91 670 OFFCURVE",
"95 670 CURVE SMOOTH"
);
},
{
closed = 1;
nodes = (
"70 633 LINE SMOOTH",
"70 638 OFFCURVE",
"73 639 OFFCURVE",
"76 635 CURVE SMOOTH",
"491 36 LINE SMOOTH",
"493 33 OFFCURVE",
"492 30 OFFCURVE",
"488 30 CURVE SMOOTH",
"75 30 LINE SMOOTH",
"72 30 OFFCURVE",
"70 32 OFFCURVE",
"70 35 CURVE SMOOTH"
);
}
);
width = 584;
}
);
},
{
glyphname = florin;
lastChange = "2013-12-18 08:32:10 +0400";
layers = (
{
layerId = "4FD7A5AB-3C0B-49D1-A419-889C157412FC";
name = Bold;
paths = (
{
closed = 1;
nodes = (
"112 -5 OFFCURVE",
"175 38 OFFCURVE",
"216 145 CURVE SMOOTH",
"299 356 LINE",
"393 356 LINE SMOOTH",
"423 356 OFFCURVE",
"449 377 OFFCURVE",
"455 407 CURVE SMOOTH",
"461 436 OFFCURVE",
"445 457 OFFCURVE",
"415 457 CURVE SMOOTH",
"339 457 LINE",
"365 525 LINE SMOOTH",
"387 579 OFFCURVE",
"416 602 OFFCURVE",
"463 602 CURVE SMOOTH",
"474 602 OFFCURVE",
"485 602 OFFCURVE",
"495 601 CURVE SMOOTH",
"522 599 OFFCURVE",
"546 622 OFFCURVE",
"552 650 CURVE SMOOTH",
"556 672 OFFCURVE",
"548 693 OFFCURVE",
"515 700 CURVE SMOOTH",
"497 704 OFFCURVE",
"481 705 OFFCURVE",
"461 705 CURVE SMOOTH",
"353 705 OFFCURVE",
"294 651 OFFCURVE",
"254 550 CURVE SMOOTH",
"216 457 LINE",
"157 457 LINE SMOOTH",
"127 457 OFFCURVE",
"101 436 OFFCURVE",
"95 407 CURVE SMOOTH",
"89 377 OFFCURVE",
"105 356 OFFCURVE",
"135 356 CURVE SMOOTH",
"177 356 LINE",
"101 163 LINE SMOOTH",
"83 115 OFFCURVE",
"56 96 OFFCURVE",
"14 96 CURVE SMOOTH",
"2 96 OFFCURVE",
"-35 94 OFFCURVE",
"-45 48 CURVE SMOOTH",
"-54 5 OFFCURVE",
"-22 -5 OFFCURVE",
"9 -5 CURVE SMOOTH"
);
}
);
width = 487;
}
);
unicode = 0192;
},
{
glyphname = cent;
lastChange = "2013-12-18 08:32:10 +0400";
layers = (
{
anchors = (
{
name = bottom;
position = "{190, 0}";
},
{
name = top;
position = "{300, 515}";
}
);
layerId = "4FD7A5AB-3C0B-49D1-A419-889C157412FC";
name = Bold;
paths = (
{
closed = 1;
nodes = (
"373 397 LINE SMOOTH",
"374 401 OFFCURVE",
"376 403 OFFCURVE",
"379 402 CURVE SMOOTH",
"419 394 OFFCURVE",
"455 378 OFFCURVE",
"488 422 CURVE SMOOTH",
"509 449 OFFCURVE",
"506 488 OFFCURVE",
"477 504 CURVE SMOOTH",
"454 517 OFFCURVE",
"431 522 OFFCURVE",
"405 524 CURVE SMOOTH",
"402 524 OFFCURVE",
"400 526 OFFCURVE",
"401 529 CURVE SMOOTH",
"410 575 LINE SMOOTH",
"416 601 OFFCURVE",
"405 615 OFFCURVE",
"379 615 CURVE SMOOTH",
"353 615 OFFCURVE",
"336 601 OFFCURVE",
"330 575 CURVE SMOOTH",
"320 524 LINE SMOOTH",
"319 521 OFFCURVE",
"318 519 OFFCURVE",
"314 518 CURVE SMOOTH",
"186 491 OFFCURVE",
"72 384 OFFCURVE",
"45 257 CURVE SMOOTH",
"18 130 OFFCURVE",
"86 24 OFFCURVE",
"204 -3 CURVE SMOOTH",
"206 -4 OFFCURVE",
"207 -6 OFFCURVE",
"206 -9 CURVE SMOOTH",
"196 -60 LINE SMOOTH",
"190 -86 OFFCURVE",
"201 -100 OFFCURVE",
"227 -100 CURVE SMOOTH",
"253 -100 OFFCURVE",
"270 -86 OFFCURVE",
"276 -60 CURVE SMOOTH",
"285 -14 LINE SMOOTH",
"286 -11 OFFCURVE",
"288 -9 OFFCURVE",
"291 -9 CURVE SMOOTH",
"319 -7 OFFCURVE",
"345 -1 OFFCURVE",
"373 11 CURVE SMOOTH",
"408 27 OFFCURVE",
"433 72 OFFCURVE",
"415 105 CURVE SMOOTH",
"396 139 OFFCURVE",
"359 121 OFFCURVE",
"317 113 CURVE SMOOTH",
"314 112 OFFCURVE",
"312 114 OFFCURVE",
"313 118 CURVE SMOOTH"
);
},
{
closed = 1;
nodes = (
"178 317 OFFCURVE",
"226 369 OFFCURVE",
"286 392 CURVE SMOOTH",
"290 394 OFFCURVE",
"292 392 OFFCURVE",
"291 389 CURVE SMOOTH",
"235 126 LINE SMOOTH",
"234 123 OFFCURVE",
"232 121 OFFCURVE",
"228 123 CURVE SMOOTH",
"178 146 OFFCURVE",
"152 198 OFFCURVE",
"165 257 CURVE SMOOTH"
);
}
);
width = 490;
}
);
unicode = 00A2;
},
{
glyphname = currency;
lastChange = "2013-12-18 08:32:10 +0400";
layers = (
{
layerId = "4FD7A5AB-3C0B-49D1-A419-889C157412FC";
name = Bold;
paths = (
{
closed = 1;
nodes = (
"182 371 OFFCURVE",
"248 425 OFFCURVE",
"316 425 CURVE SMOOTH",
"384 425 OFFCURVE",
"426 371 OFFCURVE",
"412 303 CURVE SMOOTH",
"398 236 OFFCURVE",
"332 182 OFFCURVE",
"264 182 CURVE SMOOTH",
"196 182 OFFCURVE",
"154 236 OFFCURVE",
"168 303 CURVE SMOOTH"
);
},
{
closed = 1;
nodes = (
"92 267 OFFCURVE",
"96 232 OFFCURVE",
"109 203 CURVE SMOOTH",
"109 200 OFFCURVE",
"108 198 OFFCURVE",
"106 196 CURVE SMOOTH",
"58 157 LINE SMOOTH",
"37 141 OFFCURVE",
"30 118 OFFCURVE",
"42 103 CURVE SMOOTH",
"56 86 OFFCURVE",
"80 86 OFFCURVE",
"100 103 CURVE SMOOTH",
"149 142 LINE SMOOTH",
"151 144 OFFCURVE",
"153 144 OFFCURVE",
"156 143 CURVE SMOOTH",
"180 125 OFFCURVE",
"214 114 OFFCURVE",
"250 114 CURVE SMOOTH",
"286 114 OFFCURVE",
"323 125 OFFCURVE",
"355 143 CURVE SMOOTH",
"358 144 OFFCURVE",
"360 144 OFFCURVE",
"362 142 CURVE SMOOTH",
"393 102 LINE SMOOTH",
"407 86 OFFCURVE",
"429 85 OFFCURVE",
"448 100 CURVE SMOOTH",
"467 117 OFFCURVE",
"472 141 OFFCURVE",
"459 158 CURVE SMOOTH",
"428 197 LINE SMOOTH",
"427 199 OFFCURVE",
"427 201 OFFCURVE",
"429 204 CURVE SMOOTH",
"453 232 OFFCURVE",
"471 267 OFFCURVE",
"479 303 CURVE SMOOTH",
"487 340 OFFCURVE",
"483 374 OFFCURVE",
"471 403 CURVE SMOOTH",
"471 406 OFFCURVE",
"471 408 OFFCURVE",
"474 410 CURVE SMOOTH",
"522 450 LINE SMOOTH",
"542 467 OFFCURVE",
"548 489 OFFCURVE",
"537 504 CURVE SMOOTH",
"523 521 OFFCURVE",
"499 521 OFFCURVE",
"479 504 CURVE SMOOTH",
"430 464 LINE SMOOTH",
"428 462 OFFCURVE",
"426 462 OFFCURVE",
"423 464 CURVE SMOOTH",
"399 482 OFFCURVE",
"366 493 OFFCURVE",
"330 493 CURVE SMOOTH",
"294 493 OFFCURVE",
"256 482 OFFCURVE",
"224 464 CURVE SMOOTH",
"221 462 OFFCURVE",
"219 462 OFFCURVE",
"217 464 CURVE SMOOTH",
"186 505 LINE SMOOTH",
"172 522 OFFCURVE",
"150 523 OFFCURVE",
"131 508 CURVE SMOOTH",
"112 491 OFFCURVE",
"107 467 OFFCURVE",
"120 450 CURVE SMOOTH",
"152 410 LINE SMOOTH",
"153 408 OFFCURVE",
"153 406 OFFCURVE",
"150 403 CURVE SMOOTH",
"126 375 OFFCURVE",
"108 340 OFFCURVE",
"100 303 CURVE SMOOTH"
);
}
);
width = 579;
}
);
unicode = 00A4;
},
{
glyphname = dollar;
lastChange = "2013-12-18 08:32:10 +0400";
layers = (
{
components = (
{
name = S;
transform = "{1, 0, 0, 1, 6, 0}";
}
);
layerId = "4FD7A5AB-3C0B-49D1-A419-889C157412FC";
name = Bold;
paths = (
{
closed = 1;
nodes = (
"446 728 LINE SMOOTH",
"453 758 OFFCURVE",
"436 779 OFFCURVE",
"408 779 CURVE SMOOTH",
"378 779 OFFCURVE",
"353 758 OFFCURVE",
"346 728 CURVE SMOOTH",
"178 -66 LINE SMOOTH",
"171 -96 OFFCURVE",
"188 -117 OFFCURVE",
"216 -117 CURVE SMOOTH",
"246 -117 OFFCURVE",
"271 -96 OFFCURVE",
"278 -66 CURVE SMOOTH"
);
}
);
width = 592;
}
);
unicode = 0024;
},
{
glyphname = euro;
lastChange = "2013-12-18 08:32:10 +0400";
layers = (
{
layerId = "4FD7A5AB-3C0B-49D1-A419-889C157412FC";
name = Bold;
paths = (
{
closed = 1;
nodes = (
"446 -12 OFFCURVE",
"518 25 OFFCURVE",
"581 82 CURVE SMOOTH",
"609 108 OFFCURVE",
"611 143 OFFCURVE",
"590 161 CURVE SMOOTH",
"568 180 OFFCURVE",
"536 174 OFFCURVE",
"508 151 CURVE SMOOTH",
"467 117 OFFCURVE",
"428 98 OFFCURVE",
"379 98 CURVE SMOOTH",
"301 98 OFFCURVE",
"254 147 OFFCURVE",
"243 225 CURVE",
"413 225 LINE SMOOTH",
"440 225 OFFCURVE",
"463 243 OFFCURVE",
"469 268 CURVE SMOOTH",
"474 292 OFFCURVE",
"458 310 OFFCURVE",
"431 310 CURVE SMOOTH",
"243 310 LINE",
"245 323 OFFCURVE",
"247 336 OFFCURVE",
"250 350 CURVE SMOOTH",
"250 352 LINE SMOOTH",
"254 367 OFFCURVE",
"258 382 OFFCURVE",
"262 395 CURVE",
"450 395 LINE SMOOTH",
"477 395 OFFCURVE",
"499 413 OFFCURVE",
"505 438 CURVE SMOOTH",
"510 462 OFFCURVE",
"495 480 OFFCURVE",
"468 480 CURVE SMOOTH",
"299 480 LINE",
"343 555 OFFCURVE",
"408 602 OFFCURVE",
"479 602 CURVE SMOOTH",
"529 602 OFFCURVE",
"561 585 OFFCURVE",
"586 554 CURVE SMOOTH",
"604 532 OFFCURVE",
"631 523 OFFCURVE",
"668 546 CURVE SMOOTH",
"698 565 OFFCURVE",
"711 603 OFFCURVE",
"692 630 CURVE SMOOTH",
"654 679 OFFCURVE",
"598 712 OFFCURVE",
"505 712 CURVE SMOOTH",
"364 712 OFFCURVE",
"240 615 OFFCURVE",
"172 480 CURVE",
"124 480 LINE SMOOTH",
"97 480 OFFCURVE",
"74 462 OFFCURVE",
"69 438 CURVE SMOOTH",
"63 413 OFFCURVE",
"79 395 OFFCURVE",
"106 395 CURVE SMOOTH",
"138 395 LINE",
"133 381 OFFCURVE",
"129 365 OFFCURVE",
"126 350 CURVE SMOOTH",
"126 348 LINE SMOOTH",
"123 335 OFFCURVE",
"120 323 OFFCURVE",
"118 310 CURVE",
"87 310 LINE SMOOTH",
"60 310 OFFCURVE",
"38 292 OFFCURVE",
"33 268 CURVE SMOOTH",
"27 243 OFFCURVE",
"42 225 OFFCURVE",
"69 225 CURVE SMOOTH",
"114 225 LINE",
"122 84 OFFCURVE",
"207 -12 OFFCURVE",
"355 -12 CURVE SMOOTH"
);
}
);
width = 701.96;
}
);
unicode = 20AC;
},
{
glyphname = sterling;
lastChange = "2013-12-18 08:32:10 +0400";
layers = (
{
layerId = "4FD7A5AB-3C0B-49D1-A419-889C157412FC";
name = Bold;
paths = (
{
closed = 1;
nodes = (
"-60 13 OFFCURVE",
"-40 0 OFFCURVE",
"-9 0 CURVE SMOOTH",
"411 0 LINE SMOOTH",
"442 0 OFFCURVE",
"469 22 OFFCURVE",
"476 53 CURVE SMOOTH",
"482 84 OFFCURVE",
"464 107 OFFCURVE",
"433 107 CURVE SMOOTH",
"162 107 LINE",
"197 272 LINE SMOOTH",
"198 276 OFFCURVE",
"201 278 OFFCURVE",
"205 278 CURVE SMOOTH",
"394 278 LINE SMOOTH",
"425 278 OFFCURVE",
"452 299 OFFCURVE",
"458 328 CURVE SMOOTH",
"465 359 OFFCURVE",
"447 382 OFFCURVE",
"416 382 CURVE SMOOTH",
"227 382 LINE SMOOTH",
"223 382 OFFCURVE",
"221 384 OFFCURVE",
"222 388 CURVE SMOOTH",
"240 471 LINE SMOOTH",
"249 513 OFFCURVE",
"269 546 OFFCURVE",
"294 568 CURVE",
"317 586 OFFCURVE",
"342 596 OFFCURVE",
"373 596 CURVE SMOOTH",
"412 596 OFFCURVE",
"438 584 OFFCURVE",
"459 560 CURVE SMOOTH",
"471 545 OFFCURVE",
"505 531 OFFCURVE",
"542 559 CURVE SMOOTH",
"572 582 OFFCURVE",
"581 620 OFFCURVE",
"565 641 CURVE SMOOTH",
"532 683 OFFCURVE",
"480 710 OFFCURVE",
"396 710 CURVE SMOOTH",
"324 710 OFFCURVE",
"263 688 OFFCURVE",
"215 648 CURVE SMOOTH",
"167 608 OFFCURVE",
"132 547 OFFCURVE",
"116 474 CURVE SMOOTH",
"98 388 LINE SMOOTH",
"97 384 OFFCURVE",
"95 382 OFFCURVE",
"91 382 CURVE SMOOTH",
"72 382 LINE SMOOTH",
"41 382 OFFCURVE",
"13 361 OFFCURVE",
"7 332 CURVE SMOOTH",
"1 301 OFFCURVE",
"19 278 OFFCURVE",
"50 278 CURVE SMOOTH",
"69 278 LINE SMOOTH",
"73 278 OFFCURVE",
"74 276 OFFCURVE",
"73 272 CURVE SMOOTH",
"37 102 LINE",
"-10 89 LINE SMOOTH",
"-31 83 OFFCURVE",
"-50 70 OFFCURVE",
"-55 41 CURVE SMOOTH"
);
}
);
width = 538;
}
);
unicode = 00A3;
},
{
glyphname = yen;
lastChange = "2013-12-18 08:32:10 +0400";
layers = (
{
anchors = (
{
name = top;
position = "{376, 700}";
}
);
layerId = "4FD7A5AB-3C0B-49D1-A419-889C157412FC";
name = Bold;
paths = (
{
closed = 1;
nodes = (
"609 711 OFFCURVE",
"573 705 OFFCURVE",
"546 677 CURVE SMOOTH",
"332 449 LINE",
"326 443 OFFCURVE",
"320 443 OFFCURVE",
"318 449 CURVE",
"199 677 LINE SMOOTH",
"184 705 OFFCURVE",
"150 711 OFFCURVE",
"118 691 CURVE SMOOTH",
"85 671 OFFCURVE",
"72 635 OFFCURVE",
"87 606 CURVE SMOOTH",
"195 399 LINE SMOOTH",
"196 396 OFFCURVE",
"195 393 OFFCURVE",
"191 393 CURVE SMOOTH",
"121 393 LINE SMOOTH",
"94 393 OFFCURVE",
"71 375 OFFCURVE",
"65 349 CURVE SMOOTH",
"60 322 OFFCURVE",
"75 303 OFFCURVE",
"102 303 CURVE SMOOTH",
"229 303 LINE SMOOTH",
"232 303 OFFCURVE",
"233 301 OFFCURVE",
"233 298 CURVE SMOOTH",
"218 228 LINE SMOOTH",
"217 225 OFFCURVE",
"215 223 OFFCURVE",
"212 223 CURVE SMOOTH",
"85 223 LINE SMOOTH",
"58 223 OFFCURVE",
"35 205 OFFCURVE",
"29 179 CURVE SMOOTH",
"24 152 OFFCURVE",
"39 133 OFFCURVE",
"66 133 CURVE SMOOTH",
"193 133 LINE SMOOTH",
"196 133 OFFCURVE",
"197 131 OFFCURVE",
"197 128 CURVE SMOOTH",
"182 61 LINE SMOOTH",
"175 26 OFFCURVE",
"194 0 OFFCURVE",
"229 0 CURVE SMOOTH",
"264 0 OFFCURVE",
"295 26 OFFCURVE",
"302 61 CURVE SMOOTH",
"317 128 LINE SMOOTH",
"317 131 OFFCURVE",
"320 133 OFFCURVE",
"323 133 CURVE SMOOTH",
"440 133 LINE SMOOTH",
"467 133 OFFCURVE",
"489 151 OFFCURVE",
"495 177 CURVE SMOOTH",
"501 204 OFFCURVE",
"486 223 OFFCURVE",
"459 223 CURVE SMOOTH",
"342 223 LINE SMOOTH",
"339 223 OFFCURVE",
"337 225 OFFCURVE",
"338 228 CURVE SMOOTH",
"353 298 LINE SMOOTH",
"353 301 OFFCURVE",
"356 303 OFFCURVE",
"359 303 CURVE SMOOTH",
"476 303 LINE SMOOTH",
"503 303 OFFCURVE",
"526 321 OFFCURVE",
"531 347 CURVE SMOOTH",
"537 374 OFFCURVE",
"522 393 OFFCURVE",
"495 393 CURVE SMOOTH",
"435 393 LINE SMOOTH",
"431 393 OFFCURVE",
"429 396 OFFCURVE",
"433 399 CURVE SMOOTH",
"628 607 LINE SMOOTH",
"655 635 OFFCURVE",
"658 671 OFFCURVE",
"634 691 CURVE SMOOTH"
);
}
);
width = 607;
}
);
unicode = 00A5;
},
{
glyphname = Ohm;
lastChange = "2013-12-18 08:32:10 +0400";
layers = (
{
layerId = "4FD7A5AB-3C0B-49D1-A419-889C157412FC";
name = Bold;
paths = (
{
closed = 1;
nodes = (
"249 710 OFFCURVE",
"96 593 OFFCURVE",
"61 432 CURVE SMOOTH",
"31 289 OFFCURVE",
"85 167 OFFCURVE",
"125 90 CURVE",
"52 90 LINE SMOOTH",
"25 90 OFFCURVE",
"2 71 OFFCURVE",
"-4 45 CURVE SMOOTH",
"-9 19 OFFCURVE",
"6 0 OFFCURVE",
"33 0 CURVE SMOOTH",
"173 0 LINE SMOOTH",
"197 0 OFFCURVE",
"217 17 OFFCURVE",
"222 41 CURVE SMOOTH",
"229 75 LINE SMOOTH",
"231 82 OFFCURVE",
"230 89 OFFCURVE",
"227 95 CURVE SMOOTH",
"163 210 OFFCURVE",
"135 318 OFFCURVE",
"159 431 CURVE SMOOTH",
"182 540 OFFCURVE",
"287 622 OFFCURVE",
"392 622 CURVE SMOOTH",
"497 622 OFFCURVE",
"566 540 OFFCURVE",
"543 431 CURVE SMOOTH",
"519 318 OFFCURVE",
"445 210 OFFCURVE",
"333 95 CURVE SMOOTH",
"326 89 OFFCURVE",
"323 82 OFFCURVE",
"321 75 CURVE SMOOTH",
"314 41 LINE SMOOTH",
"309 17 OFFCURVE",
"323 0 OFFCURVE",
"347 0 CURVE SMOOTH",
"487 0 LINE SMOOTH",
"514 0 OFFCURVE",
"537 19 OFFCURVE",
"542 45 CURVE SMOOTH",
"548 71 OFFCURVE",
"533 90 OFFCURVE",
"506 90 CURVE SMOOTH",
"433 90 LINE",
"504 166 OFFCURVE",
"610 289 OFFCURVE",
"640 431 CURVE SMOOTH",
"675 593 OFFCURVE",
"570 710 OFFCURVE",
"410 710 CURVE SMOOTH"
);
}
);
width = 669;
}
);
unicode = 2126;
},
{
glyphname = approxequal;
lastChange = "2013-12-18 08:32:10 +0400";
layers = (
{
layerId = "4FD7A5AB-3C0B-49D1-A419-889C157412FC";
name = Bold;
paths = (
{
closed = 1;
nodes = (
"40 155 OFFCURVE",
"61 154 OFFCURVE",
"82 165 CURVE SMOOTH",
"113 181 OFFCURVE",
"141 189 OFFCURVE",
"167 189 CURVE SMOOTH",
"196 189 OFFCURVE",
"225 178 OFFCURVE",
"266 158 CURVE SMOOTH",
"312 136 OFFCURVE",
"337 123 OFFCURVE",
"377 123 CURVE SMOOTH",
"435 123 OFFCURVE",
"489 162 OFFCURVE",
"526 198 CURVE SMOOTH",
"541 212 OFFCURVE",
"545 231 OFFCURVE",
"537 244 CURVE SMOOTH",
"528 260 OFFCURVE",
"507 262 OFFCURVE",
"486 251 CURVE SMOOTH",
"455 235 OFFCURVE",
"427 227 OFFCURVE",
"400 227 CURVE SMOOTH",
"371 227 OFFCURVE",
"342 239 OFFCURVE",
"301 258 CURVE SMOOTH",
"255 279 OFFCURVE",
"228 292 OFFCURVE",
"189 292 CURVE SMOOTH",
"131 292 OFFCURVE",
"79 254 OFFCURVE",
"41 219 CURVE SMOOTH",
"26 205 OFFCURVE",
"22 186 OFFCURVE",
"31 171 CURVE SMOOTH"
);
},
{
closed = 1;
nodes = (
"81 349 OFFCURVE",
"102 347 OFFCURVE",
"124 359 CURVE SMOOTH",
"153 374 OFFCURVE",
"182 383 OFFCURVE",
"209 383 CURVE SMOOTH",
"238 383 OFFCURVE",
"266 371 OFFCURVE",
"307 352 CURVE SMOOTH",
"353 330 OFFCURVE",
"379 317 OFFCURVE",
"419 317 CURVE SMOOTH",
"477 317 OFFCURVE",
"529 355 OFFCURVE",
"567 391 CURVE SMOOTH",
"582 405 OFFCURVE",
"586 424 OFFCURVE",
"578 437 CURVE SMOOTH",
"569 454 OFFCURVE",
"547 456 OFFCURVE",
"526 444 CURVE SMOOTH",
"496 428 OFFCURVE",
"468 420 OFFCURVE",
"441 420 CURVE SMOOTH",
"412 420 OFFCURVE",
"383 433 OFFCURVE",
"342 452 CURVE SMOOTH",
"296 473 OFFCURVE",
"270 486 OFFCURVE",
"231 486 CURVE SMOOTH",
"173 486 OFFCURVE",
"121 448 OFFCURVE",
"82 413 CURVE SMOOTH",
"67 399 OFFCURVE",
"63 380 OFFCURVE",
"72 365 CURVE SMOOTH"
);
}
);
width = 608;
}
);
unicode = 2248;
},
{
glyphname = asciitilde;
lastChange = "2013-12-18 08:32:10 +0400";
layers = (
{
layerId = "4FD7A5AB-3C0B-49D1-A419-889C157412FC";
name = Bold;
paths = (
{
closed = 1;
nodes = (
"61 252 OFFCURVE",
"82 251 OFFCURVE",
"103 262 CURVE SMOOTH",
"133 278 OFFCURVE",
"162 286 OFFCURVE",
"188 286 CURVE SMOOTH",
"217 286 OFFCURVE",
"246 275 OFFCURVE",
"286 255 CURVE SMOOTH",
"333 233 OFFCURVE",
"358 220 OFFCURVE",
"398 220 CURVE SMOOTH",
"456 220 OFFCURVE",
"509 259 OFFCURVE",
"547 295 CURVE SMOOTH",
"562 309 OFFCURVE",
"566 328 OFFCURVE",
"558 341 CURVE SMOOTH",
"548 357 OFFCURVE",
"528 359 OFFCURVE",
"506 348 CURVE SMOOTH",
"476 332 OFFCURVE",
"447 324 OFFCURVE",
"420 324 CURVE SMOOTH",
"391 324 OFFCURVE",
"363 336 OFFCURVE",
"322 355 CURVE SMOOTH",
"275 376 OFFCURVE",
"249 389 OFFCURVE",
"210 389 CURVE SMOOTH",
"152 389 OFFCURVE",
"100 351 OFFCURVE",
"61 316 CURVE SMOOTH",
"46 302 OFFCURVE",
"42 283 OFFCURVE",
"51 268 CURVE SMOOTH"
);
}
);
width = 608;
}
);
unicode = 007E;
},
{
glyphname = bulletoperator;
lastChange = "2013-12-22 08:03:55 +0400";
layers = (
{
layerId = "4FD7A5AB-3C0B-49D1-A419-889C157412FC";
name = Bold;
paths = (
{
closed = 1;
nodes = (
"179 217 OFFCURVE",
"217 255 OFFCURVE",
"217 301 CURVE SMOOTH",
"217 346 OFFCURVE",
"179 384 OFFCURVE",
"134 384 CURVE SMOOTH",
"88 384 OFFCURVE",
"50 346 OFFCURVE",
"50 301 CURVE SMOOTH",
"50 255 OFFCURVE",
"88 217 OFFCURVE",
"134 217 CURVE SMOOTH"
);
}
);
width = 267;
}
);
unicode = 2219;
},
{
glyphname = divide;
lastChange = "2013-12-18 08:32:10 +0400";
layers = (
{
layerId = "4FD7A5AB-3C0B-49D1-A419-889C157412FC";
name = Bold;
paths = (
{
closed = 1;
nodes = (
"439 553 OFFCURVE",
"408 592 OFFCURVE",
"361 592 CURVE SMOOTH",
"313 592 OFFCURVE",
"266 553 OFFCURVE",
"256 505 CURVE SMOOTH",
"246 458 OFFCURVE",
"276 419 OFFCURVE",
"324 419 CURVE SMOOTH",
"371 419 OFFCURVE",
"419 458 OFFCURVE",
"429 505 CURVE SMOOTH"
);
},
{
closed = 1;
nodes = (
"481 240 LINE SMOOTH",
"518 240 OFFCURVE",
"551 267 OFFCURVE",
"559 304 CURVE SMOOTH",
"567 340 OFFCURVE",
"545 367 OFFCURVE",
"508 367 CURVE SMOOTH",
"117 367 LINE SMOOTH",
"80 367 OFFCURVE",
"48 341 OFFCURVE",
"40 304 CURVE SMOOTH",
"32 267 OFFCURVE",
"53 240 OFFCURVE",
"90 240 CURVE SMOOTH"
);
},
{
closed = 1;
nodes = (
"353 150 OFFCURVE",
"323 189 OFFCURVE",
"276 189 CURVE SMOOTH",
"228 189 OFFCURVE",
"180 150 OFFCURVE",
"170 102 CURVE SMOOTH",
"160 55 OFFCURVE",
"191 16 OFFCURVE",
"239 16 CURVE SMOOTH",
"286 16 OFFCURVE",
"333 55 OFFCURVE",
"343 102 CURVE SMOOTH"
);
}
);
width = 680;
}
);
unicode = 00F7;
},
{
glyphname = divisionslash;
lastChange = "2013-12-22 08:04:53 +0400";
layers = (
{
layerId = "4FD7A5AB-3C0B-49D1-A419-889C157412FC";
name = Bold;
paths = (
{
closed = 1;
nodes = (
"547 808 OFFCURVE",
"518 798 OFFCURVE",
"502 771 CURVE SMOOTH",
"22 -60 LINE SMOOTH",
"7 -87 OFFCURVE",
"14 -115 OFFCURVE",
"40 -128 CURVE SMOOTH",
"63 -141 OFFCURVE",
"94 -131 OFFCURVE",
"109 -104 CURVE SMOOTH",
"589 727 LINE SMOOTH",
"604 754 OFFCURVE",
"597 782 OFFCURVE",
"571 795 CURVE SMOOTH"
);
},
{
closed = 1;
nodes = (
"547 808 OFFCURVE",
"518 798 OFFCURVE",
"502 771 CURVE SMOOTH",
"22 -60 LINE SMOOTH",
"7 -87 OFFCURVE",
"14 -115 OFFCURVE",
"40 -128 CURVE SMOOTH",
"63 -141 OFFCURVE",
"94 -131 OFFCURVE",
"109 -104 CURVE SMOOTH",
"589 727 LINE SMOOTH",
"604 754 OFFCURVE",
"597 782 OFFCURVE",
"571 795 CURVE SMOOTH"
);
}
);
width = 602.994;
}
);
unicode = 2215;
},
{
glyphname = emptyset;
lastChange = "2013-12-18 08:32:10 +0400";
layers = (
{
layerId = "4FD7A5AB-3C0B-49D1-A419-889C157412FC";
name = Bold;
paths = (
{
closed = 1;
nodes = (
"614 434 LINE SMOOTH",
"641 457 OFFCURVE",
"650 489 OFFCURVE",
"636 514 CURVE",
"635 515 LINE",
"620 539 OFFCURVE",
"583 537 OFFCURVE",
"549 509 CURVE SMOOTH",
"518 483 LINE SMOOTH",
"516 481 OFFCURVE",
"513 481 OFFCURVE",
"511 483 CURVE SMOOTH",
"474 509 OFFCURVE",
"428 525 OFFCURVE",
"375 525 CURVE SMOOTH",
"227 525 OFFCURVE",
"82 405 OFFCURVE",
"51 257 CURVE SMOOTH",
"40 206 OFFCURVE",
"44 158 OFFCURVE",
"60 118 CURVE SMOOTH",
"62 115 OFFCURVE",
"60 113 OFFCURVE",
"58 111 CURVE SMOOTH",
"21 81 LINE SMOOTH",
"-6 58 OFFCURVE",
"-15 26 OFFCURVE",
"-1 1 CURVE",
"0 0 LINE",
"15 -24 OFFCURVE",
"52 -22 OFFCURVE",
"86 6 CURVE SMOOTH",
"118 32 LINE SMOOTH",
"120 34 OFFCURVE",
"122 34 OFFCURVE",
"125 33 CURVE SMOOTH",
"161 6 OFFCURVE",
"207 -10 OFFCURVE",
"261 -10 CURVE SMOOTH",
"409 -10 OFFCURVE",
"554 109 OFFCURVE",
"586 257 CURVE SMOOTH",
"597 309 OFFCURVE",
"592 357 OFFCURVE",
"576 398 CURVE SMOOTH",
"575 401 OFFCURVE",
"575 403 OFFCURVE",
"578 405 CURVE SMOOTH"
);
},
{
closed = 1;
nodes = (
"188 339 OFFCURVE",
"267 405 OFFCURVE",
"349 405 CURVE SMOOTH",
"368 405 OFFCURVE",
"386 401 OFFCURVE",
"400 395 CURVE SMOOTH",
"404 394 OFFCURVE",
"403 391 OFFCURVE",
"401 388 CURVE SMOOTH",
"175 206 LINE SMOOTH",
"172 203 OFFCURVE",
"170 204 OFFCURVE",
"168 207 CURVE SMOOTH",
"167 223 OFFCURVE",
"167 239 OFFCURVE",
"171 257 CURVE SMOOTH"
);
},
{
closed = 1;
nodes = (
"449 176 OFFCURVE",
"369 110 OFFCURVE",
"287 110 CURVE SMOOTH",
"268 110 OFFCURVE",
"250 114 OFFCURVE",
"235 120 CURVE SMOOTH",
"231 121 OFFCURVE",
"232 124 OFFCURVE",
"235 127 CURVE SMOOTH",
"461 310 LINE SMOOTH",
"464 313 OFFCURVE",
"467 312 OFFCURVE",
"468 309 CURVE SMOOTH",
"471 293 OFFCURVE",
"470 275 OFFCURVE",
"466 257 CURVE SMOOTH"
);
}
);
width = 635;
}
);
unicode = 2205;
},
{
glyphname = equal;
lastChange = "2013-12-18 08:32:10 +0400";
layers = (
{
layerId = "4FD7A5AB-3C0B-49D1-A419-889C157412FC";
name = Bold;
paths = (
{
closed = 1;
nodes = (
"504 347 LINE SMOOTH",
"541 347 OFFCURVE",
"574 374 OFFCURVE",
"582 411 CURVE SMOOTH",
"589 447 OFFCURVE",
"568 474 OFFCURVE",
"531 474 CURVE SMOOTH",
"140 474 LINE SMOOTH",
"103 474 OFFCURVE",
"71 448 OFFCURVE",
"63 411 CURVE SMOOTH",
"55 374 OFFCURVE",
"76 347 OFFCURVE",
"113 347 CURVE SMOOTH"
);
},
{
closed = 1;
nodes = (
"459 134 LINE SMOOTH",
"496 134 OFFCURVE",
"529 161 OFFCURVE",
"536 198 CURVE SMOOTH",
"544 234 OFFCURVE",
"523 261 OFFCURVE",
"486 261 CURVE SMOOTH",
"95 261 LINE SMOOTH",
"58 261 OFFCURVE",
"25 235 OFFCURVE",
"17 198 CURVE SMOOTH",
"10 161 OFFCURVE",
"31 134 OFFCURVE",
"68 134 CURVE SMOOTH"
);
}
);
width = 599;
}
);
unicode = 003D;
},
{
glyphname = greater;
lastChange = "2013-12-18 08:32:10 +0400";
layers = (
{
layerId = "4FD7A5AB-3C0B-49D1-A419-889C157412FC";
name = Bold;
paths = (
{
closed = 1;
nodes = (
"24 19 OFFCURVE",
"62 19 OFFCURVE",
"94 45 CURVE SMOOTH",
"354 259 LINE SMOOTH",
"387 286 OFFCURVE",
"395 324 OFFCURVE",
"374 351 CURVE SMOOTH",
"204 565 LINE SMOOTH",
"184 591 OFFCURVE",
"146 591 OFFCURVE",
"114 565 CURVE SMOOTH",
"84 540 OFFCURVE",
"76 503 OFFCURVE",
"97 476 CURVE SMOOTH",
"228 309 LINE SMOOTH",
"230 306 OFFCURVE",
"230 304 OFFCURVE",
"226 301 CURVE SMOOTH",
"24 134 LINE SMOOTH",
"-8 108 OFFCURVE",
"-17 71 OFFCURVE",
"4 45 CURVE SMOOTH"
);
}
);
width = 424.25;
}
);
unicode = 003E;
},
{
glyphname = greaterequal;
lastChange = "2013-12-18 08:32:10 +0400";
layers = (
{
layerId = "4FD7A5AB-3C0B-49D1-A419-889C157412FC";
name = Bold;
paths = (
{
closed = 1;
nodes = (
"516 87 OFFCURVE",
"497 111 OFFCURVE",
"465 111 CURVE SMOOTH",
"89 111 LINE SMOOTH",
"57 111 OFFCURVE",
"28 87 OFFCURVE",
"21 55 CURVE SMOOTH",
"14 23 OFFCURVE",
"33 -1 OFFCURVE",
"65 -1 CURVE SMOOTH",
"441 -1 LINE SMOOTH",
"473 -1 OFFCURVE",
"502 23 OFFCURVE",
"509 55 CURVE SMOOTH"
);
},
{
closed = 1;
nodes = (
"560 354 OFFCURVE",
"576 372 OFFCURVE",
"582 400 CURVE SMOOTH",
"588 426 LINE SMOOTH",
"594 454 OFFCURVE",
"586 472 OFFCURVE",
"563 484 CURVE SMOOTH",
"220 661 LINE SMOOTH",
"188 677 OFFCURVE",
"161 662 OFFCURVE",
"153 623 CURVE SMOOTH",
"151 614 LINE SMOOTH",
"145 586 OFFCURVE",
"153 568 OFFCURVE",
"176 556 CURVE SMOOTH",
"465 414 LINE",
"116 271 LINE SMOOTH",
"87 259 OFFCURVE",
"71 241 OFFCURVE",
"65 213 CURVE SMOOTH",
"63 203 LINE SMOOTH",
"55 164 OFFCURVE",
"76 149 OFFCURVE",
"114 165 CURVE SMOOTH",
"533 342 LINE SMOOTH"
);
}
);
width = 648;
}
);
unicode = 2265;
},
{
glyphname = increment;
lastChange = "2013-12-18 08:32:10 +0400";
layers = (
{
layerId = "4FD7A5AB-3C0B-49D1-A419-889C157412FC";
name = Bold;
paths = (
{
closed = 1;
nodes = (
"476 673 LINE SMOOTH",
"471 693 OFFCURVE",
"457 704 OFFCURVE",
"438 705 CURVE",
"418 706 OFFCURVE",
"396 695 OFFCURVE",
"382 674 CURVE SMOOTH",
"-15 72 LINE SMOOTH",
"-26 54 OFFCURVE",
"-28 36 OFFCURVE",
"-21 22 CURVE",
"-15 8 OFFCURVE",
"-2 0 OFFCURVE",
"17 0 CURVE SMOOTH",
"555 0 LINE SMOOTH",
"578 0 OFFCURVE",
"599 12 OFFCURVE",
"610 31 CURVE",
"617 43 OFFCURVE",
"620 58 OFFCURVE",
"617 72 CURVE SMOOTH"
);
},
{
closed = 1;
nodes = (
"394 526 LINE SMOOTH",
"397 530 OFFCURVE",
"400 530 OFFCURVE",
"401 526 CURVE SMOOTH",
"500 106 LINE SMOOTH",
"501 102 OFFCURVE",
"498 100 OFFCURVE",
"494 100 CURVE SMOOTH",
"119 100 LINE SMOOTH",
"115 100 OFFCURVE",
"114 102 OFFCURVE",
"117 106 CURVE SMOOTH"
);
}
);
width = 721.634;
}
);
unicode = 2206;
},
